G04 #@! TF.FileFunction,Copper,L2,Bot,Signal*
%FSLAX46Y46*%
G04 Gerber Fmt 4.6, Leading zero omitted, Abs format (unit mm)*
G04 Created by KiCad (PCBNEW 4.0.7) date 05/29/18 16:24:36*
%MOMM*%
%LPD*%
G01*
G04 APERTURE LIST*
%ADD10C,0.100000*%
%ADD11C,0.620000*%
%ADD12O,1.524000X2.199640*%
%ADD13O,1.524000X2.197100*%
%ADD14C,2.000000*%
%ADD15C,2.800000*%
%ADD16C,0.600000*%
%ADD17C,0.600000*%
%ADD18C,0.300000*%
%ADD19C,0.200000*%
G04 APERTURE END LIST*
D10*
D11*
X146431000Y-128397000D03*
X138811000Y-127254000D03*
X145288000Y-126619000D03*
X134874000Y-113030000D03*
X130810000Y-122682000D03*
X170053000Y-97790000D03*
X174371000Y-100965000D03*
X137541000Y-111252000D03*
X126746000Y-92075000D03*
X172339000Y-101981000D03*
X145288000Y-107061000D03*
X146939000Y-120396000D03*
X180594000Y-104013000D03*
X116713000Y-116332000D03*
X154051000Y-120142000D03*
X128905000Y-120777000D03*
X148717000Y-105664000D03*
X155575000Y-104013000D03*
X153416000Y-127889000D03*
X119253000Y-79883000D03*
X183007000Y-79883000D03*
X168783000Y-116586000D03*
X182880000Y-130810000D03*
X159004000Y-124841000D03*
X162814000Y-125476000D03*
X119380000Y-130810000D03*
D12*
X156210000Y-81280000D03*
X153670000Y-81280000D03*
X151130000Y-81280000D03*
X148590000Y-81280000D03*
X146050000Y-81280000D03*
X143510000Y-81280000D03*
X140970000Y-81280000D03*
X138430000Y-81280000D03*
X133350000Y-81280000D03*
X130810000Y-81280000D03*
X128270000Y-81280000D03*
X125730000Y-81280000D03*
X123190000Y-81280000D03*
X120650000Y-81280000D03*
D13*
X120650000Y-129540000D03*
X123190000Y-129540000D03*
X125730000Y-129540000D03*
X128270000Y-129540000D03*
X130810000Y-129540000D03*
X133350000Y-129540000D03*
X135890000Y-129540000D03*
X138430000Y-129540000D03*
X142494000Y-129540000D03*
X145034000Y-129540000D03*
X147574000Y-129540000D03*
X150114000Y-129540000D03*
X152654000Y-129540000D03*
X155194000Y-129540000D03*
X157734000Y-129540000D03*
X160271460Y-129540000D03*
X162814000Y-129540000D03*
X165354000Y-129540000D03*
D14*
X172730000Y-86360000D03*
X180330000Y-86360000D03*
X146050000Y-105410000D03*
X147846051Y-107206051D03*
X144253949Y-103613949D03*
X171450000Y-120650000D03*
X181610000Y-120650000D03*
X171450000Y-115570000D03*
X181610000Y-115570000D03*
X171450000Y-110490000D03*
X181610000Y-110490000D03*
X171450000Y-105410000D03*
X181610000Y-105410000D03*
X171450000Y-100330000D03*
X181610000Y-100330000D03*
X171450000Y-95250000D03*
X181610000Y-95250000D03*
D15*
X129067816Y-97266650D03*
X132603350Y-100802184D03*
X141442184Y-91963350D03*
X137906650Y-88427816D03*
D14*
X140027971Y-99387971D03*
X130482029Y-89842029D03*
D15*
X138014228Y-122344964D03*
X141487520Y-118748265D03*
X132495772Y-110065036D03*
X129022480Y-113661735D03*
D14*
X139943944Y-111349456D03*
X130566056Y-121060544D03*
D15*
X163032184Y-113553350D03*
X159496650Y-110017816D03*
X150657816Y-118856650D03*
X154193350Y-122392184D03*
D14*
X152072029Y-111432029D03*
X161617971Y-120977971D03*
D15*
X154193350Y-88427816D03*
X150657816Y-91963350D03*
X159496650Y-100802184D03*
X163032184Y-97266650D03*
D14*
X152072029Y-99387971D03*
X161617971Y-89842029D03*
D16*
X129540000Y-124460000D03*
X166370000Y-120650000D03*
D17*
X181610000Y-100330000D02*
X177800000Y-96520000D01*
X146050000Y-82550000D02*
X146050000Y-81280000D01*
X147320000Y-83820000D02*
X146050000Y-82550000D01*
X175260000Y-83820000D02*
X147320000Y-83820000D01*
X177800000Y-86360000D02*
X175260000Y-83820000D01*
X177800000Y-96520000D02*
X177800000Y-86360000D01*
D18*
X129067816Y-97266650D02*
X137906650Y-88427816D01*
X154193350Y-122392184D02*
X141132816Y-122392184D01*
X139065000Y-124460000D02*
X129540000Y-124460000D01*
X141132816Y-122392184D02*
X139065000Y-124460000D01*
X154193350Y-88427816D02*
X163032184Y-97266650D01*
X154193350Y-88427816D02*
X152125534Y-86360000D01*
X125730000Y-82550000D02*
X125730000Y-81280000D01*
X127000000Y-83820000D02*
X125730000Y-82550000D01*
X143510000Y-83820000D02*
X127000000Y-83820000D01*
X146050000Y-86360000D02*
X143510000Y-83820000D01*
X152125534Y-86360000D02*
X146050000Y-86360000D01*
X135890000Y-129540000D02*
X135890000Y-128905000D01*
X135890000Y-128905000D02*
X138430000Y-126365000D01*
X139700000Y-126365000D02*
X140970000Y-125095000D01*
X138430000Y-126365000D02*
X139700000Y-126365000D01*
X161617971Y-120977971D02*
X157500942Y-125095000D01*
X157500942Y-125095000D02*
X140970000Y-125095000D01*
X161290000Y-125730000D02*
X166370000Y-120650000D01*
X138430000Y-129540000D02*
X138430000Y-128905000D01*
X138430000Y-128905000D02*
X141605000Y-125730000D01*
X141605000Y-125730000D02*
X161290000Y-125730000D01*
X179070000Y-123190000D02*
X175895000Y-126365000D01*
X172730000Y-86360000D02*
X169545000Y-89545000D01*
X179070000Y-104140000D02*
X179070000Y-106680000D01*
X172085000Y-97155000D02*
X179070000Y-104140000D01*
X170815000Y-97155000D02*
X172085000Y-97155000D01*
X169545000Y-95885000D02*
X170815000Y-97155000D01*
X169545000Y-89545000D02*
X169545000Y-95885000D01*
X179070000Y-106680000D02*
X179070000Y-123190000D01*
X147320000Y-126365000D02*
X145034000Y-128651000D01*
X175895000Y-126365000D02*
X147320000Y-126365000D01*
X145034000Y-128651000D02*
X145034000Y-129540000D01*
X147574000Y-129540000D02*
X147574000Y-128651000D01*
X147574000Y-128651000D02*
X149225000Y-127000000D01*
X149225000Y-127000000D02*
X176530000Y-127000000D01*
X176530000Y-127000000D02*
X179705000Y-123825000D01*
X179705000Y-123825000D02*
X179705000Y-103505000D01*
X179705000Y-103505000D02*
X171450000Y-95250000D01*
X146050000Y-105410000D02*
X146685000Y-104775000D01*
X146685000Y-104775000D02*
X167005000Y-104775000D01*
X167005000Y-104775000D02*
X171450000Y-100330000D01*
X136525000Y-106680000D02*
X136525000Y-102890942D01*
X167005000Y-116205000D02*
X139065000Y-116205000D01*
X139065000Y-116205000D02*
X136525000Y-113665000D01*
X136525000Y-113665000D02*
X136525000Y-106680000D01*
X171450000Y-120650000D02*
X167005000Y-116205000D01*
X136525000Y-102890942D02*
X140027971Y-99387971D01*
X171450000Y-115570000D02*
X149860000Y-115570000D01*
X144164488Y-115570000D02*
X139943944Y-111349456D01*
X149860000Y-115570000D02*
X144164488Y-115570000D01*
X152072029Y-111432029D02*
X155554058Y-107950000D01*
X168910000Y-107950000D02*
X171450000Y-110490000D01*
X155554058Y-107950000D02*
X168910000Y-107950000D01*
X152072029Y-99387971D02*
X156824058Y-104140000D01*
X173355000Y-103505000D02*
X171450000Y-105410000D01*
X173355000Y-99695000D02*
X173355000Y-103505000D01*
X172085000Y-98425000D02*
X173355000Y-99695000D01*
X170815000Y-98425000D02*
X172085000Y-98425000D01*
X165100000Y-104140000D02*
X170815000Y-98425000D01*
X156824058Y-104140000D02*
X165100000Y-104140000D01*
D19*
G36*
X183096588Y-79487110D02*
X183280203Y-79609797D01*
X183402890Y-79793411D01*
X183459500Y-80078006D01*
X183459500Y-130741994D01*
X183402890Y-131026589D01*
X183280203Y-131210203D01*
X183096588Y-131332890D01*
X182811993Y-131389500D01*
X119666014Y-131389500D01*
X118800500Y-130523986D01*
X118800500Y-129172133D01*
X119388000Y-129172133D01*
X119388000Y-129907867D01*
X119484064Y-130390813D01*
X119757631Y-130800236D01*
X120167054Y-131073803D01*
X120650000Y-131169867D01*
X121132946Y-131073803D01*
X121542369Y-130800236D01*
X121815936Y-130390813D01*
X121912000Y-129907867D01*
X121912000Y-129172133D01*
X121928000Y-129172133D01*
X121928000Y-129907867D01*
X122024064Y-130390813D01*
X122297631Y-130800236D01*
X122707054Y-131073803D01*
X123190000Y-131169867D01*
X123672946Y-131073803D01*
X124082369Y-130800236D01*
X124355936Y-130390813D01*
X124452000Y-129907867D01*
X124452000Y-129172133D01*
X124468000Y-129172133D01*
X124468000Y-129907867D01*
X124564064Y-130390813D01*
X124837631Y-130800236D01*
X125247054Y-131073803D01*
X125730000Y-131169867D01*
X126212946Y-131073803D01*
X126622369Y-130800236D01*
X126895936Y-130390813D01*
X126992000Y-129907867D01*
X126992000Y-129172133D01*
X127008000Y-129172133D01*
X127008000Y-129907867D01*
X127104064Y-130390813D01*
X127377631Y-130800236D01*
X127787054Y-131073803D01*
X128270000Y-131169867D01*
X128752946Y-131073803D01*
X129162369Y-130800236D01*
X129435936Y-130390813D01*
X129532000Y-129907867D01*
X129532000Y-129172133D01*
X129548000Y-129172133D01*
X129548000Y-129907867D01*
X129644064Y-130390813D01*
X129917631Y-130800236D01*
X130327054Y-131073803D01*
X130810000Y-131169867D01*
X131292946Y-131073803D01*
X131702369Y-130800236D01*
X131975936Y-130390813D01*
X132072000Y-129907867D01*
X132072000Y-129172133D01*
X132088000Y-129172133D01*
X132088000Y-129907867D01*
X132184064Y-130390813D01*
X132457631Y-130800236D01*
X132867054Y-131073803D01*
X133350000Y-131169867D01*
X133832946Y-131073803D01*
X134242369Y-130800236D01*
X134515936Y-130390813D01*
X134612000Y-129907867D01*
X134612000Y-129172133D01*
X134628000Y-129172133D01*
X134628000Y-129907867D01*
X134724064Y-130390813D01*
X134997631Y-130800236D01*
X135407054Y-131073803D01*
X135890000Y-131169867D01*
X136372946Y-131073803D01*
X136782369Y-130800236D01*
X137055936Y-130390813D01*
X137152000Y-129907867D01*
X137152000Y-129172133D01*
X137055936Y-128689187D01*
X137043565Y-128670673D01*
X138699239Y-127015000D01*
X139400762Y-127015000D01*
X138493081Y-127922681D01*
X138430000Y-127910133D01*
X137947054Y-128006197D01*
X137537631Y-128279764D01*
X137264064Y-128689187D01*
X137168000Y-129172133D01*
X137168000Y-129907867D01*
X137264064Y-130390813D01*
X137537631Y-130800236D01*
X137947054Y-131073803D01*
X138430000Y-131169867D01*
X138912946Y-131073803D01*
X139322369Y-130800236D01*
X139595936Y-130390813D01*
X139692000Y-129907867D01*
X139692000Y-129172133D01*
X141232000Y-129172133D01*
X141232000Y-129907867D01*
X141328064Y-130390813D01*
X141601631Y-130800236D01*
X142011054Y-131073803D01*
X142494000Y-131169867D01*
X142976946Y-131073803D01*
X143386369Y-130800236D01*
X143659936Y-130390813D01*
X143756000Y-129907867D01*
X143756000Y-129172133D01*
X143659936Y-128689187D01*
X143386369Y-128279764D01*
X142976946Y-128006197D01*
X142494000Y-127910133D01*
X142011054Y-128006197D01*
X141601631Y-128279764D01*
X141328064Y-128689187D01*
X141232000Y-129172133D01*
X139692000Y-129172133D01*
X139595936Y-128689187D01*
X139583565Y-128670673D01*
X141874238Y-126380000D01*
X146385761Y-126380000D01*
X144811339Y-127954423D01*
X144551054Y-128006197D01*
X144141631Y-128279764D01*
X143868064Y-128689187D01*
X143772000Y-129172133D01*
X143772000Y-129907867D01*
X143868064Y-130390813D01*
X144141631Y-130800236D01*
X144551054Y-131073803D01*
X145034000Y-131169867D01*
X145516946Y-131073803D01*
X145926369Y-130800236D01*
X146199936Y-130390813D01*
X146296000Y-129907867D01*
X146296000Y-129172133D01*
X146199936Y-128689187D01*
X146085827Y-128518411D01*
X146248408Y-128355830D01*
X146477639Y-128585061D01*
X146408064Y-128689187D01*
X146312000Y-129172133D01*
X146312000Y-129907867D01*
X146408064Y-130390813D01*
X146681631Y-130800236D01*
X147091054Y-131073803D01*
X147574000Y-131169867D01*
X148056946Y-131073803D01*
X148466369Y-130800236D01*
X148739936Y-130390813D01*
X148836000Y-129907867D01*
X148836000Y-129172133D01*
X148852000Y-129172133D01*
X148852000Y-129907867D01*
X148948064Y-130390813D01*
X149221631Y-130800236D01*
X149631054Y-131073803D01*
X150114000Y-131169867D01*
X150596946Y-131073803D01*
X151006369Y-130800236D01*
X151279936Y-130390813D01*
X151376000Y-129907867D01*
X151376000Y-129172133D01*
X151392000Y-129172133D01*
X151392000Y-129907867D01*
X151488064Y-130390813D01*
X151761631Y-130800236D01*
X152171054Y-131073803D01*
X152654000Y-131169867D01*
X153136946Y-131073803D01*
X153546369Y-130800236D01*
X153819936Y-130390813D01*
X153916000Y-129907867D01*
X153916000Y-129172133D01*
X153932000Y-129172133D01*
X153932000Y-129907867D01*
X154028064Y-130390813D01*
X154301631Y-130800236D01*
X154711054Y-131073803D01*
X155194000Y-131169867D01*
X155676946Y-131073803D01*
X156086369Y-130800236D01*
X156359936Y-130390813D01*
X156456000Y-129907867D01*
X156456000Y-129172133D01*
X156472000Y-129172133D01*
X156472000Y-129907867D01*
X156568064Y-130390813D01*
X156841631Y-130800236D01*
X157251054Y-131073803D01*
X157734000Y-131169867D01*
X158216946Y-131073803D01*
X158626369Y-130800236D01*
X158899936Y-130390813D01*
X158996000Y-129907867D01*
X158996000Y-129172133D01*
X159009460Y-129172133D01*
X159009460Y-129907867D01*
X159105524Y-130390813D01*
X159379091Y-130800236D01*
X159788514Y-131073803D01*
X160271460Y-131169867D01*
X160754406Y-131073803D01*
X161163829Y-130800236D01*
X161437396Y-130390813D01*
X161533460Y-129907867D01*
X161533460Y-129172133D01*
X161552000Y-129172133D01*
X161552000Y-129907867D01*
X161648064Y-130390813D01*
X161921631Y-130800236D01*
X162331054Y-131073803D01*
X162814000Y-131169867D01*
X163296946Y-131073803D01*
X163706369Y-130800236D01*
X163979936Y-130390813D01*
X164076000Y-129907867D01*
X164076000Y-129172133D01*
X164092000Y-129172133D01*
X164092000Y-129907867D01*
X164188064Y-130390813D01*
X164461631Y-130800236D01*
X164871054Y-131073803D01*
X165354000Y-131169867D01*
X165836946Y-131073803D01*
X166246369Y-130800236D01*
X166519936Y-130390813D01*
X166616000Y-129907867D01*
X166616000Y-129172133D01*
X166519936Y-128689187D01*
X166246369Y-128279764D01*
X165836946Y-128006197D01*
X165354000Y-127910133D01*
X164871054Y-128006197D01*
X164461631Y-128279764D01*
X164188064Y-128689187D01*
X164092000Y-129172133D01*
X164076000Y-129172133D01*
X163979936Y-128689187D01*
X163706369Y-128279764D01*
X163296946Y-128006197D01*
X162814000Y-127910133D01*
X162331054Y-128006197D01*
X161921631Y-128279764D01*
X161648064Y-128689187D01*
X161552000Y-129172133D01*
X161533460Y-129172133D01*
X161437396Y-128689187D01*
X161163829Y-128279764D01*
X160754406Y-128006197D01*
X160271460Y-127910133D01*
X159788514Y-128006197D01*
X159379091Y-128279764D01*
X159105524Y-128689187D01*
X159009460Y-129172133D01*
X158996000Y-129172133D01*
X158899936Y-128689187D01*
X158626369Y-128279764D01*
X158216946Y-128006197D01*
X157734000Y-127910133D01*
X157251054Y-128006197D01*
X156841631Y-128279764D01*
X156568064Y-128689187D01*
X156472000Y-129172133D01*
X156456000Y-129172133D01*
X156359936Y-128689187D01*
X156086369Y-128279764D01*
X155676946Y-128006197D01*
X155194000Y-127910133D01*
X154711054Y-128006197D01*
X154301631Y-128279764D01*
X154028064Y-128689187D01*
X153932000Y-129172133D01*
X153916000Y-129172133D01*
X153819936Y-128689187D01*
X153546369Y-128279764D01*
X153136946Y-128006197D01*
X152654000Y-127910133D01*
X152171054Y-128006197D01*
X151761631Y-128279764D01*
X151488064Y-128689187D01*
X151392000Y-129172133D01*
X151376000Y-129172133D01*
X151279936Y-128689187D01*
X151006369Y-128279764D01*
X150596946Y-128006197D01*
X150114000Y-127910133D01*
X149631054Y-128006197D01*
X149221631Y-128279764D01*
X148948064Y-128689187D01*
X148852000Y-129172133D01*
X148836000Y-129172133D01*
X148739936Y-128689187D01*
X148625827Y-128518411D01*
X149494239Y-127650000D01*
X176530000Y-127650000D01*
X176737476Y-127608731D01*
X176778745Y-127600522D01*
X176989619Y-127459619D01*
X180164619Y-124284619D01*
X180305522Y-124073745D01*
X180329188Y-123954766D01*
X180355000Y-123825000D01*
X180355000Y-121515982D01*
X180759209Y-121920897D01*
X181310323Y-122149739D01*
X181907059Y-122150260D01*
X182458572Y-121922380D01*
X182880897Y-121500791D01*
X183109739Y-120949677D01*
X183110260Y-120352941D01*
X182882380Y-119801428D01*
X182460791Y-119379103D01*
X181909677Y-119150261D01*
X181312941Y-119149740D01*
X180761428Y-119377620D01*
X180355000Y-119783340D01*
X180355000Y-116435982D01*
X180759209Y-116840897D01*
X181310323Y-117069739D01*
X181907059Y-117070260D01*
X182458572Y-116842380D01*
X182880897Y-116420791D01*
X183109739Y-115869677D01*
X183110260Y-115272941D01*
X182882380Y-114721428D01*
X182460791Y-114299103D01*
X181909677Y-114070261D01*
X181312941Y-114069740D01*
X180761428Y-114297620D01*
X180355000Y-114703340D01*
X180355000Y-111355982D01*
X180759209Y-111760897D01*
X181310323Y-111989739D01*
X181907059Y-111990260D01*
X182458572Y-111762380D01*
X182880897Y-111340791D01*
X183109739Y-110789677D01*
X183110260Y-110192941D01*
X182882380Y-109641428D01*
X182460791Y-109219103D01*
X181909677Y-108990261D01*
X181312941Y-108989740D01*
X180761428Y-109217620D01*
X180355000Y-109623340D01*
X180355000Y-106275982D01*
X180759209Y-106680897D01*
X181310323Y-106909739D01*
X181907059Y-106910260D01*
X182458572Y-106682380D01*
X182880897Y-106260791D01*
X183109739Y-105709677D01*
X183110260Y-105112941D01*
X182882380Y-104561428D01*
X182460791Y-104139103D01*
X181909677Y-103910261D01*
X181312941Y-103909740D01*
X180761428Y-104137620D01*
X180355000Y-104543340D01*
X180355000Y-103505000D01*
X180305522Y-103256256D01*
X180305522Y-103256255D01*
X180164619Y-103045381D01*
X172867344Y-95748106D01*
X172949739Y-95549677D01*
X172950260Y-94952941D01*
X172722380Y-94401428D01*
X172300791Y-93979103D01*
X171749677Y-93750261D01*
X171152941Y-93749740D01*
X170601428Y-93977620D01*
X170195000Y-94383340D01*
X170195000Y-89814238D01*
X172231894Y-87777344D01*
X172430323Y-87859739D01*
X173027059Y-87860260D01*
X173578572Y-87632380D01*
X174000897Y-87210791D01*
X174229739Y-86659677D01*
X174230260Y-86062941D01*
X174002380Y-85511428D01*
X173580791Y-85089103D01*
X173029677Y-84860261D01*
X172432941Y-84859740D01*
X171881428Y-85087620D01*
X171459103Y-85509209D01*
X171230261Y-86060323D01*
X171229740Y-86657059D01*
X171312765Y-86857996D01*
X169085381Y-89085381D01*
X168944478Y-89296255D01*
X168944478Y-89296256D01*
X168895000Y-89545000D01*
X168895000Y-95885000D01*
X168908788Y-95954315D01*
X168944478Y-96133745D01*
X169085381Y-96344619D01*
X170355380Y-97614619D01*
X170566255Y-97755522D01*
X170607524Y-97763731D01*
X170739590Y-97790000D01*
X170566256Y-97824478D01*
X170355381Y-97965380D01*
X164830762Y-103490000D01*
X157093297Y-103490000D01*
X154859674Y-101256377D01*
X157613424Y-101256377D01*
X157930588Y-101942483D01*
X158486171Y-102454989D01*
X159042457Y-102685410D01*
X159342650Y-102607852D01*
X159342650Y-100956184D01*
X159650650Y-100956184D01*
X159650650Y-102607852D01*
X159950843Y-102685410D01*
X160636949Y-102368246D01*
X161149455Y-101812663D01*
X161379876Y-101256377D01*
X161302318Y-100956184D01*
X159650650Y-100956184D01*
X159342650Y-100956184D01*
X157690982Y-100956184D01*
X157613424Y-101256377D01*
X154859674Y-101256377D01*
X153951288Y-100347991D01*
X157613424Y-100347991D01*
X157690982Y-100648184D01*
X159342650Y-100648184D01*
X159342650Y-98996516D01*
X159650650Y-98996516D01*
X159650650Y-100648184D01*
X161302318Y-100648184D01*
X161379876Y-100347991D01*
X161062712Y-99661885D01*
X160507129Y-99149379D01*
X159950843Y-98918958D01*
X159650650Y-98996516D01*
X159342650Y-98996516D01*
X159042457Y-98918958D01*
X158356351Y-99236122D01*
X157843845Y-99791705D01*
X157613424Y-100347991D01*
X153951288Y-100347991D01*
X153489373Y-99886077D01*
X153571768Y-99687648D01*
X153572109Y-99296902D01*
X153960078Y-99297241D01*
X154511591Y-99069361D01*
X154933916Y-98647772D01*
X155162758Y-98096658D01*
X155163279Y-97499922D01*
X154935399Y-96948409D01*
X154513810Y-96526084D01*
X153962696Y-96297242D01*
X153365960Y-96296721D01*
X152814447Y-96524601D01*
X152392122Y-96946190D01*
X152163280Y-97497304D01*
X152162939Y-97888050D01*
X151774970Y-97887711D01*
X151223457Y-98115591D01*
X150801132Y-98537180D01*
X150572290Y-99088294D01*
X150571769Y-99685030D01*
X150799649Y-100236543D01*
X151221238Y-100658868D01*
X151772352Y-100887710D01*
X152369088Y-100888231D01*
X152570025Y-100805206D01*
X155889819Y-104125000D01*
X146866827Y-104125000D01*
X146349677Y-103910261D01*
X145753691Y-103909741D01*
X145754209Y-103316890D01*
X145526329Y-102765377D01*
X145104740Y-102343052D01*
X144553626Y-102114210D01*
X143956890Y-102113689D01*
X143405377Y-102341569D01*
X142983052Y-102763158D01*
X142754210Y-103314272D01*
X142753689Y-103911008D01*
X142981569Y-104462521D01*
X143403158Y-104884846D01*
X143954272Y-105113688D01*
X144550258Y-105114208D01*
X144549740Y-105707059D01*
X144777620Y-106258572D01*
X145199209Y-106680897D01*
X145750323Y-106909739D01*
X146346309Y-106910259D01*
X146345791Y-107503110D01*
X146573671Y-108054623D01*
X146995260Y-108476948D01*
X147546374Y-108705790D01*
X148143110Y-108706311D01*
X148694623Y-108478431D01*
X149116948Y-108056842D01*
X149345790Y-107505728D01*
X149346311Y-106908992D01*
X149118431Y-106357479D01*
X148696842Y-105935154D01*
X148145728Y-105706312D01*
X147549742Y-105705792D01*
X147549988Y-105425000D01*
X167005000Y-105425000D01*
X167212476Y-105383731D01*
X167253745Y-105375522D01*
X167464619Y-105234619D01*
X170951894Y-101747344D01*
X171150323Y-101829739D01*
X171747059Y-101830260D01*
X172298572Y-101602380D01*
X172705000Y-101196660D01*
X172705000Y-103235761D01*
X171948106Y-103992656D01*
X171749677Y-103910261D01*
X171152941Y-103909740D01*
X170601428Y-104137620D01*
X170179103Y-104559209D01*
X169950261Y-105110323D01*
X169949740Y-105707059D01*
X170177620Y-106258572D01*
X170599209Y-106680897D01*
X171150323Y-106909739D01*
X171747059Y-106910260D01*
X172298572Y-106682380D01*
X172720897Y-106260791D01*
X172949739Y-105709677D01*
X172950260Y-105112941D01*
X172867235Y-104912004D01*
X173814620Y-103964619D01*
X173955522Y-103753744D01*
X174005000Y-103505000D01*
X174005000Y-99994238D01*
X178420000Y-104409239D01*
X178420000Y-122920762D01*
X175625762Y-125715000D01*
X162224238Y-125715000D01*
X166489133Y-121450105D01*
X166528432Y-121450139D01*
X166822572Y-121328603D01*
X167047812Y-121103755D01*
X167169861Y-120809828D01*
X167170139Y-120491568D01*
X167048603Y-120197428D01*
X166823755Y-119972188D01*
X166529828Y-119850139D01*
X166211568Y-119849861D01*
X165917428Y-119971397D01*
X165692188Y-120196245D01*
X165570139Y-120490172D01*
X165570104Y-120530658D01*
X161020762Y-125080000D01*
X158435180Y-125080000D01*
X161119865Y-122395315D01*
X161318294Y-122477710D01*
X161915030Y-122478231D01*
X162466543Y-122250351D01*
X162888868Y-121828762D01*
X163117710Y-121277648D01*
X163118231Y-120680912D01*
X162890351Y-120129399D01*
X162468762Y-119707074D01*
X161917648Y-119478232D01*
X161526902Y-119477891D01*
X161527241Y-119089922D01*
X161299361Y-118538409D01*
X160877772Y-118116084D01*
X160326658Y-117887242D01*
X159729922Y-117886721D01*
X159178409Y-118114601D01*
X158756084Y-118536190D01*
X158527242Y-119087304D01*
X158526721Y-119684040D01*
X158754601Y-120235553D01*
X159176190Y-120657878D01*
X159727304Y-120886720D01*
X160118050Y-120887061D01*
X160117711Y-121275030D01*
X160200736Y-121475967D01*
X157231704Y-124445000D01*
X140970000Y-124445000D01*
X140762524Y-124486269D01*
X140721255Y-124494478D01*
X140510380Y-124635381D01*
X139430762Y-125715000D01*
X138430000Y-125715000D01*
X138181256Y-125764478D01*
X138181254Y-125764479D01*
X138181255Y-125764479D01*
X137970380Y-125905381D01*
X135953081Y-127922681D01*
X135890000Y-127910133D01*
X135407054Y-128006197D01*
X134997631Y-128279764D01*
X134724064Y-128689187D01*
X134628000Y-129172133D01*
X134612000Y-129172133D01*
X134515936Y-128689187D01*
X134242369Y-128279764D01*
X133832946Y-128006197D01*
X133350000Y-127910133D01*
X132867054Y-128006197D01*
X132457631Y-128279764D01*
X132184064Y-128689187D01*
X132088000Y-129172133D01*
X132072000Y-129172133D01*
X131975936Y-128689187D01*
X131702369Y-128279764D01*
X131292946Y-128006197D01*
X130810000Y-127910133D01*
X130327054Y-128006197D01*
X129917631Y-128279764D01*
X129644064Y-128689187D01*
X129548000Y-129172133D01*
X129532000Y-129172133D01*
X129435936Y-128689187D01*
X129162369Y-128279764D01*
X128752946Y-128006197D01*
X128270000Y-127910133D01*
X127787054Y-128006197D01*
X127377631Y-128279764D01*
X127104064Y-128689187D01*
X127008000Y-129172133D01*
X126992000Y-129172133D01*
X126895936Y-128689187D01*
X126622369Y-128279764D01*
X126212946Y-128006197D01*
X125730000Y-127910133D01*
X125247054Y-128006197D01*
X124837631Y-128279764D01*
X124564064Y-128689187D01*
X124468000Y-129172133D01*
X124452000Y-129172133D01*
X124355936Y-128689187D01*
X124082369Y-128279764D01*
X123672946Y-128006197D01*
X123190000Y-127910133D01*
X122707054Y-128006197D01*
X122297631Y-128279764D01*
X122024064Y-128689187D01*
X121928000Y-129172133D01*
X121912000Y-129172133D01*
X121815936Y-128689187D01*
X121542369Y-128279764D01*
X121132946Y-128006197D01*
X120650000Y-127910133D01*
X120167054Y-128006197D01*
X119757631Y-128279764D01*
X119484064Y-128689187D01*
X119388000Y-129172133D01*
X118800500Y-129172133D01*
X118800500Y-124618432D01*
X128739861Y-124618432D01*
X128861397Y-124912572D01*
X129086245Y-125137812D01*
X129380172Y-125259861D01*
X129698432Y-125260139D01*
X129992572Y-125138603D01*
X130021225Y-125110000D01*
X139065000Y-125110000D01*
X139272476Y-125068731D01*
X139313745Y-125060522D01*
X139524619Y-124919619D01*
X141402055Y-123042184D01*
X152406122Y-123042184D01*
X152581669Y-123467041D01*
X153115681Y-124001986D01*
X153813759Y-124291853D01*
X154569625Y-124292513D01*
X155268207Y-124003865D01*
X155803152Y-123469853D01*
X156093019Y-122771775D01*
X156093679Y-122015909D01*
X155805031Y-121317327D01*
X155271019Y-120782382D01*
X154572941Y-120492515D01*
X153817075Y-120491855D01*
X153118493Y-120780503D01*
X152583548Y-121314515D01*
X152405965Y-121742184D01*
X141132816Y-121742184D01*
X140884072Y-121791662D01*
X140884070Y-121791663D01*
X140884071Y-121791663D01*
X140673196Y-121932565D01*
X139913926Y-122691836D01*
X139914557Y-121968689D01*
X139625909Y-121270107D01*
X139091897Y-120735162D01*
X138393819Y-120445295D01*
X137637953Y-120444635D01*
X136939371Y-120733283D01*
X136404426Y-121267295D01*
X136114559Y-121965373D01*
X136113899Y-122721239D01*
X136402547Y-123419821D01*
X136792045Y-123810000D01*
X130021519Y-123810000D01*
X129993755Y-123782188D01*
X129699828Y-123660139D01*
X129381568Y-123659861D01*
X129087428Y-123781397D01*
X128862188Y-124006245D01*
X128740139Y-124300172D01*
X128739861Y-124618432D01*
X118800500Y-124618432D01*
X118800500Y-121357603D01*
X129065796Y-121357603D01*
X129293676Y-121909116D01*
X129715265Y-122331441D01*
X130266379Y-122560283D01*
X130863115Y-122560804D01*
X131414628Y-122332924D01*
X131836953Y-121911335D01*
X132065795Y-121360221D01*
X132066160Y-120941975D01*
X132426096Y-120942289D01*
X132977609Y-120714409D01*
X133399934Y-120292820D01*
X133628776Y-119741706D01*
X133629218Y-119235256D01*
X139612508Y-119235256D01*
X139941597Y-119915722D01*
X140506040Y-120418454D01*
X141066263Y-120639131D01*
X141365057Y-120556346D01*
X141336231Y-118904929D01*
X139684815Y-118933755D01*
X139612508Y-119235256D01*
X133629218Y-119235256D01*
X133629297Y-119144970D01*
X133527894Y-118899554D01*
X141644184Y-118899554D01*
X141673010Y-120550970D01*
X141974511Y-120623277D01*
X142654977Y-120294188D01*
X143157709Y-119729745D01*
X143322718Y-119310843D01*
X148774590Y-119310843D01*
X149091754Y-119996949D01*
X149647337Y-120509455D01*
X150203623Y-120739876D01*
X150503816Y-120662318D01*
X150503816Y-119010650D01*
X150811816Y-119010650D01*
X150811816Y-120662318D01*
X151112009Y-120739876D01*
X151798115Y-120422712D01*
X152310621Y-119867129D01*
X152541042Y-119310843D01*
X152463484Y-119010650D01*
X150811816Y-119010650D01*
X150503816Y-119010650D01*
X148852148Y-119010650D01*
X148774590Y-119310843D01*
X143322718Y-119310843D01*
X143378386Y-119169522D01*
X143295601Y-118870728D01*
X141644184Y-118899554D01*
X133527894Y-118899554D01*
X133401417Y-118593457D01*
X133135433Y-118327008D01*
X139596654Y-118327008D01*
X139679439Y-118625802D01*
X141330856Y-118596976D01*
X141302030Y-116945560D01*
X141279614Y-116940184D01*
X141609983Y-116940184D01*
X141638809Y-118591601D01*
X143290225Y-118562775D01*
X143328673Y-118402457D01*
X148774590Y-118402457D01*
X148852148Y-118702650D01*
X150503816Y-118702650D01*
X150503816Y-117050982D01*
X150811816Y-117050982D01*
X150811816Y-118702650D01*
X152463484Y-118702650D01*
X152541042Y-118402457D01*
X152223878Y-117716351D01*
X151668295Y-117203845D01*
X151112009Y-116973424D01*
X150811816Y-117050982D01*
X150503816Y-117050982D01*
X150203623Y-116973424D01*
X149517517Y-117290588D01*
X149005011Y-117846171D01*
X148774590Y-118402457D01*
X143328673Y-118402457D01*
X143362532Y-118261274D01*
X143033443Y-117580808D01*
X142469000Y-117078076D01*
X141908777Y-116857399D01*
X141609983Y-116940184D01*
X141279614Y-116940184D01*
X141000529Y-116873253D01*
X140320063Y-117202342D01*
X139817331Y-117766785D01*
X139596654Y-118327008D01*
X133135433Y-118327008D01*
X132979828Y-118171132D01*
X132428714Y-117942290D01*
X131831978Y-117941769D01*
X131280465Y-118169649D01*
X130858140Y-118591238D01*
X130629298Y-119142352D01*
X130628933Y-119560598D01*
X130268997Y-119560284D01*
X129717484Y-119788164D01*
X129295159Y-120209753D01*
X129066317Y-120760867D01*
X129065796Y-121357603D01*
X118800500Y-121357603D01*
X118800500Y-119380000D01*
X118747939Y-119115757D01*
X118728927Y-119087304D01*
X118598257Y-118891742D01*
X116260500Y-116553986D01*
X116260500Y-114038010D01*
X127122151Y-114038010D01*
X127410799Y-114736592D01*
X127944811Y-115271537D01*
X128642889Y-115561404D01*
X129398755Y-115562064D01*
X130097337Y-115273416D01*
X130632282Y-114739404D01*
X130922149Y-114041326D01*
X130922809Y-113285460D01*
X130634161Y-112586878D01*
X130100149Y-112051933D01*
X129402071Y-111762066D01*
X128646205Y-111761406D01*
X127947623Y-112050054D01*
X127412678Y-112584066D01*
X127122811Y-113282144D01*
X127122151Y-114038010D01*
X116260500Y-114038010D01*
X116260500Y-110552027D01*
X130620760Y-110552027D01*
X130949849Y-111232493D01*
X131514292Y-111735225D01*
X132074515Y-111955902D01*
X132373309Y-111873117D01*
X132344483Y-110221700D01*
X130693067Y-110250526D01*
X130620760Y-110552027D01*
X116260500Y-110552027D01*
X116260500Y-110216325D01*
X132652436Y-110216325D01*
X132681262Y-111867741D01*
X132982763Y-111940048D01*
X133663229Y-111610959D01*
X134165961Y-111046516D01*
X134386638Y-110486293D01*
X134303853Y-110187499D01*
X132652436Y-110216325D01*
X116260500Y-110216325D01*
X116260500Y-109643779D01*
X130604906Y-109643779D01*
X130687691Y-109942573D01*
X132339108Y-109913747D01*
X132310282Y-108262331D01*
X132287866Y-108256955D01*
X132618235Y-108256955D01*
X132647061Y-109908372D01*
X134298477Y-109879546D01*
X134370784Y-109578045D01*
X134041695Y-108897579D01*
X133477252Y-108394847D01*
X132917029Y-108174170D01*
X132618235Y-108256955D01*
X132287866Y-108256955D01*
X132008781Y-108190024D01*
X131328315Y-108519113D01*
X130825583Y-109083556D01*
X130604906Y-109643779D01*
X116260500Y-109643779D01*
X116260500Y-102890942D01*
X135875000Y-102890942D01*
X135875000Y-113665000D01*
X135905144Y-113816543D01*
X135924478Y-113913745D01*
X136065381Y-114124619D01*
X138605380Y-116664619D01*
X138746283Y-116758767D01*
X138816256Y-116805522D01*
X139065000Y-116855000D01*
X166735762Y-116855000D01*
X170032656Y-120151894D01*
X169950261Y-120350323D01*
X169949740Y-120947059D01*
X170177620Y-121498572D01*
X170599209Y-121920897D01*
X171150323Y-122149739D01*
X171747059Y-122150260D01*
X172298572Y-121922380D01*
X172720897Y-121500791D01*
X172949739Y-120949677D01*
X172950260Y-120352941D01*
X172722380Y-119801428D01*
X172300791Y-119379103D01*
X171749677Y-119150261D01*
X171152941Y-119149740D01*
X170952004Y-119232765D01*
X167939238Y-116220000D01*
X170095572Y-116220000D01*
X170177620Y-116418572D01*
X170599209Y-116840897D01*
X171150323Y-117069739D01*
X171747059Y-117070260D01*
X172298572Y-116842380D01*
X172720897Y-116420791D01*
X172949739Y-115869677D01*
X172950260Y-115272941D01*
X172722380Y-114721428D01*
X172300791Y-114299103D01*
X171749677Y-114070261D01*
X171152941Y-114069740D01*
X170601428Y-114297620D01*
X170179103Y-114719209D01*
X170095727Y-114920000D01*
X164352500Y-114920000D01*
X164641986Y-114631019D01*
X164931853Y-113932941D01*
X164932513Y-113177075D01*
X164643865Y-112478493D01*
X164109853Y-111943548D01*
X163411775Y-111653681D01*
X162655909Y-111653021D01*
X161957327Y-111941669D01*
X161422382Y-112475681D01*
X161132515Y-113173759D01*
X161131855Y-113929625D01*
X161420503Y-114628207D01*
X161711787Y-114920000D01*
X144433727Y-114920000D01*
X141361288Y-111847562D01*
X141410482Y-111729088D01*
X150571769Y-111729088D01*
X150799649Y-112280601D01*
X151221238Y-112702926D01*
X151772352Y-112931768D01*
X152163098Y-112932109D01*
X152162759Y-113320078D01*
X152390639Y-113871591D01*
X152812228Y-114293916D01*
X153363342Y-114522758D01*
X153960078Y-114523279D01*
X154511591Y-114295399D01*
X154933916Y-113873810D01*
X155162758Y-113322696D01*
X155163279Y-112725960D01*
X154935399Y-112174447D01*
X154513810Y-111752122D01*
X153962696Y-111523280D01*
X153571950Y-111522939D01*
X153572289Y-111134970D01*
X153489264Y-110934033D01*
X153951288Y-110472009D01*
X157613424Y-110472009D01*
X157930588Y-111158115D01*
X158486171Y-111670621D01*
X159042457Y-111901042D01*
X159342650Y-111823484D01*
X159342650Y-110171816D01*
X159650650Y-110171816D01*
X159650650Y-111823484D01*
X159950843Y-111901042D01*
X160636949Y-111583878D01*
X161149455Y-111028295D01*
X161379876Y-110472009D01*
X161302318Y-110171816D01*
X159650650Y-110171816D01*
X159342650Y-110171816D01*
X157690982Y-110171816D01*
X157613424Y-110472009D01*
X153951288Y-110472009D01*
X155823297Y-108600000D01*
X158219599Y-108600000D01*
X157843845Y-109007337D01*
X157613424Y-109563623D01*
X157690982Y-109863816D01*
X159342650Y-109863816D01*
X159342650Y-108600000D01*
X159650650Y-108600000D01*
X159650650Y-109863816D01*
X161302318Y-109863816D01*
X161379876Y-109563623D01*
X161062712Y-108877517D01*
X160761869Y-108600000D01*
X168640762Y-108600000D01*
X170032656Y-109991894D01*
X169950261Y-110190323D01*
X169949740Y-110787059D01*
X170177620Y-111338572D01*
X170599209Y-111760897D01*
X171150323Y-111989739D01*
X171747059Y-111990260D01*
X172298572Y-111762380D01*
X172720897Y-111340791D01*
X172949739Y-110789677D01*
X172950260Y-110192941D01*
X172722380Y-109641428D01*
X172300791Y-109219103D01*
X171749677Y-108990261D01*
X171152941Y-108989740D01*
X170952004Y-109072765D01*
X169369619Y-107490381D01*
X169158745Y-107349478D01*
X169117476Y-107341269D01*
X168910000Y-107300000D01*
X155554058Y-107300000D01*
X155305314Y-107349478D01*
X155094439Y-107490380D01*
X152570135Y-110014685D01*
X152371706Y-109932290D01*
X151774970Y-109931769D01*
X151223457Y-110159649D01*
X150801132Y-110581238D01*
X150572290Y-111132352D01*
X150571769Y-111729088D01*
X141410482Y-111729088D01*
X141443683Y-111649133D01*
X141444204Y-111052397D01*
X141216324Y-110500884D01*
X140794735Y-110078559D01*
X140243621Y-109849717D01*
X139646885Y-109849196D01*
X139095372Y-110077076D01*
X138673047Y-110498665D01*
X138444205Y-111049779D01*
X138443840Y-111468025D01*
X138083904Y-111467711D01*
X137532391Y-111695591D01*
X137175000Y-112052359D01*
X137175000Y-103160180D01*
X139529865Y-100805315D01*
X139728294Y-100887710D01*
X140325030Y-100888231D01*
X140876543Y-100660351D01*
X141298868Y-100238762D01*
X141527710Y-99687648D01*
X141528231Y-99090912D01*
X141300351Y-98539399D01*
X140878762Y-98117074D01*
X140327648Y-97888232D01*
X139936902Y-97887891D01*
X139937241Y-97499922D01*
X139709361Y-96948409D01*
X139287772Y-96526084D01*
X138736658Y-96297242D01*
X138139922Y-96296721D01*
X137588409Y-96524601D01*
X137166084Y-96946190D01*
X136937242Y-97497304D01*
X136936721Y-98094040D01*
X137164601Y-98645553D01*
X137586190Y-99067878D01*
X138137304Y-99296720D01*
X138528050Y-99297061D01*
X138527711Y-99685030D01*
X138610736Y-99885968D01*
X136065381Y-102431323D01*
X135924478Y-102642197D01*
X135924478Y-102642198D01*
X135875000Y-102890942D01*
X116260500Y-102890942D01*
X116260500Y-101256377D01*
X130720124Y-101256377D01*
X131037288Y-101942483D01*
X131592871Y-102454989D01*
X132149157Y-102685410D01*
X132449350Y-102607852D01*
X132449350Y-100956184D01*
X132757350Y-100956184D01*
X132757350Y-102607852D01*
X133057543Y-102685410D01*
X133743649Y-102368246D01*
X134256155Y-101812663D01*
X134486576Y-101256377D01*
X134409018Y-100956184D01*
X132757350Y-100956184D01*
X132449350Y-100956184D01*
X130797682Y-100956184D01*
X130720124Y-101256377D01*
X116260500Y-101256377D01*
X116260500Y-100347991D01*
X130720124Y-100347991D01*
X130797682Y-100648184D01*
X132449350Y-100648184D01*
X132449350Y-98996516D01*
X132757350Y-98996516D01*
X132757350Y-100648184D01*
X134409018Y-100648184D01*
X134486576Y-100347991D01*
X134169412Y-99661885D01*
X133613829Y-99149379D01*
X133057543Y-98918958D01*
X132757350Y-98996516D01*
X132449350Y-98996516D01*
X132149157Y-98918958D01*
X131463051Y-99236122D01*
X130950545Y-99791705D01*
X130720124Y-100347991D01*
X116260500Y-100347991D01*
X116260500Y-97642925D01*
X127167487Y-97642925D01*
X127456135Y-98341507D01*
X127990147Y-98876452D01*
X128688225Y-99166319D01*
X129444091Y-99166979D01*
X130142673Y-98878331D01*
X130677618Y-98344319D01*
X130967485Y-97646241D01*
X130968145Y-96890375D01*
X130791308Y-96462396D01*
X134836161Y-92417543D01*
X139558958Y-92417543D01*
X139876122Y-93103649D01*
X140431705Y-93616155D01*
X140987991Y-93846576D01*
X141288184Y-93769018D01*
X141288184Y-92117350D01*
X141596184Y-92117350D01*
X141596184Y-93769018D01*
X141896377Y-93846576D01*
X142582483Y-93529412D01*
X143094989Y-92973829D01*
X143325410Y-92417543D01*
X148774590Y-92417543D01*
X149091754Y-93103649D01*
X149647337Y-93616155D01*
X150203623Y-93846576D01*
X150503816Y-93769018D01*
X150503816Y-92117350D01*
X150811816Y-92117350D01*
X150811816Y-93769018D01*
X151112009Y-93846576D01*
X151798115Y-93529412D01*
X152310621Y-92973829D01*
X152541042Y-92417543D01*
X152463484Y-92117350D01*
X150811816Y-92117350D01*
X150503816Y-92117350D01*
X148852148Y-92117350D01*
X148774590Y-92417543D01*
X143325410Y-92417543D01*
X143247852Y-92117350D01*
X141596184Y-92117350D01*
X141288184Y-92117350D01*
X139636516Y-92117350D01*
X139558958Y-92417543D01*
X134836161Y-92417543D01*
X135744547Y-91509157D01*
X139558958Y-91509157D01*
X139636516Y-91809350D01*
X141288184Y-91809350D01*
X141288184Y-90157682D01*
X141596184Y-90157682D01*
X141596184Y-91809350D01*
X143247852Y-91809350D01*
X143325410Y-91509157D01*
X148774590Y-91509157D01*
X148852148Y-91809350D01*
X150503816Y-91809350D01*
X150503816Y-90157682D01*
X150811816Y-90157682D01*
X150811816Y-91809350D01*
X152463484Y-91809350D01*
X152541042Y-91509157D01*
X152223878Y-90823051D01*
X151668295Y-90310545D01*
X151112009Y-90080124D01*
X150811816Y-90157682D01*
X150503816Y-90157682D01*
X150203623Y-90080124D01*
X149517517Y-90397288D01*
X149005011Y-90952871D01*
X148774590Y-91509157D01*
X143325410Y-91509157D01*
X143008246Y-90823051D01*
X142452663Y-90310545D01*
X141896377Y-90080124D01*
X141596184Y-90157682D01*
X141288184Y-90157682D01*
X140987991Y-90080124D01*
X140301885Y-90397288D01*
X139789379Y-90952871D01*
X139558958Y-91509157D01*
X135744547Y-91509157D01*
X137102508Y-90151196D01*
X137527059Y-90327485D01*
X138282925Y-90328145D01*
X138981507Y-90039497D01*
X139516452Y-89505485D01*
X139806319Y-88807407D01*
X139806979Y-88051541D01*
X139518331Y-87352959D01*
X138984319Y-86818014D01*
X138286241Y-86528147D01*
X137530375Y-86527487D01*
X136831793Y-86816135D01*
X136296848Y-87350147D01*
X136006981Y-88048225D01*
X136006321Y-88804091D01*
X136183158Y-89232070D01*
X133494809Y-91920419D01*
X133572758Y-91732696D01*
X133573279Y-91135960D01*
X133345399Y-90584447D01*
X132923810Y-90162122D01*
X132372696Y-89933280D01*
X131981950Y-89932939D01*
X131982289Y-89544970D01*
X131754409Y-88993457D01*
X131332820Y-88571132D01*
X130781706Y-88342290D01*
X130184970Y-88341769D01*
X129633457Y-88569649D01*
X129211132Y-88991238D01*
X128982290Y-89542352D01*
X128981769Y-90139088D01*
X129209649Y-90690601D01*
X129631238Y-91112926D01*
X130182352Y-91341768D01*
X130573098Y-91342109D01*
X130572759Y-91730078D01*
X130800639Y-92281591D01*
X131222228Y-92703916D01*
X131773342Y-92932758D01*
X132370078Y-92933279D01*
X132560721Y-92854507D01*
X129871958Y-95543270D01*
X129447407Y-95366981D01*
X128691541Y-95366321D01*
X127992959Y-95654969D01*
X127458014Y-96188981D01*
X127168147Y-96887059D01*
X127167487Y-97642925D01*
X116260500Y-97642925D01*
X116260500Y-84106014D01*
X118598257Y-81768258D01*
X118747939Y-81544243D01*
X118800500Y-81280000D01*
X118800500Y-80910838D01*
X119388000Y-80910838D01*
X119388000Y-81649162D01*
X119484064Y-82132108D01*
X119757631Y-82541531D01*
X120167054Y-82815098D01*
X120650000Y-82911162D01*
X121132946Y-82815098D01*
X121542369Y-82541531D01*
X121815936Y-82132108D01*
X121912000Y-81649162D01*
X121912000Y-80910838D01*
X121928000Y-80910838D01*
X121928000Y-81649162D01*
X122024064Y-82132108D01*
X122297631Y-82541531D01*
X122707054Y-82815098D01*
X123190000Y-82911162D01*
X123672946Y-82815098D01*
X124082369Y-82541531D01*
X124355936Y-82132108D01*
X124452000Y-81649162D01*
X124452000Y-80910838D01*
X124468000Y-80910838D01*
X124468000Y-81649162D01*
X124564064Y-82132108D01*
X124837631Y-82541531D01*
X125115208Y-82727001D01*
X125118657Y-82744343D01*
X125129478Y-82798745D01*
X125270381Y-83009619D01*
X126540380Y-84279619D01*
X126751255Y-84420522D01*
X126792524Y-84428731D01*
X127000000Y-84470000D01*
X143240762Y-84470000D01*
X145590380Y-86819619D01*
X145731283Y-86913767D01*
X145801256Y-86960522D01*
X146050000Y-87010000D01*
X151856296Y-87010000D01*
X152469970Y-87623674D01*
X152293681Y-88048225D01*
X152293021Y-88804091D01*
X152581669Y-89502673D01*
X153115681Y-90037618D01*
X153813759Y-90327485D01*
X154569625Y-90328145D01*
X154997604Y-90151308D01*
X161308804Y-96462508D01*
X161132515Y-96887059D01*
X161131855Y-97642925D01*
X161420503Y-98341507D01*
X161954515Y-98876452D01*
X162652593Y-99166319D01*
X163408459Y-99166979D01*
X164107041Y-98878331D01*
X164641986Y-98344319D01*
X164931853Y-97646241D01*
X164932513Y-96890375D01*
X164643865Y-96191793D01*
X164109853Y-95656848D01*
X163411775Y-95366981D01*
X162655909Y-95366321D01*
X162227930Y-95543158D01*
X159539581Y-92854809D01*
X159727304Y-92932758D01*
X160324040Y-92933279D01*
X160875553Y-92705399D01*
X161297878Y-92283810D01*
X161526720Y-91732696D01*
X161527061Y-91341950D01*
X161915030Y-91342289D01*
X162466543Y-91114409D01*
X162888868Y-90692820D01*
X163117710Y-90141706D01*
X163118231Y-89544970D01*
X162890351Y-88993457D01*
X162468762Y-88571132D01*
X161917648Y-88342290D01*
X161320912Y-88341769D01*
X160769399Y-88569649D01*
X160347074Y-88991238D01*
X160118232Y-89542352D01*
X160117891Y-89933098D01*
X159729922Y-89932759D01*
X159178409Y-90160639D01*
X158756084Y-90582228D01*
X158527242Y-91133342D01*
X158526721Y-91730078D01*
X158605493Y-91920721D01*
X155916730Y-89231958D01*
X156093019Y-88807407D01*
X156093679Y-88051541D01*
X155805031Y-87352959D01*
X155271019Y-86818014D01*
X154572941Y-86528147D01*
X153817075Y-86527487D01*
X153389096Y-86704324D01*
X152585153Y-85900381D01*
X152374279Y-85759478D01*
X152333010Y-85751269D01*
X152125534Y-85710000D01*
X146319239Y-85710000D01*
X143969619Y-83360381D01*
X143758745Y-83219478D01*
X143717476Y-83211269D01*
X143510000Y-83170000D01*
X127269239Y-83170000D01*
X126629739Y-82530501D01*
X126895936Y-82132108D01*
X126992000Y-81649162D01*
X126992000Y-80910838D01*
X127008000Y-80910838D01*
X127008000Y-81649162D01*
X127104064Y-82132108D01*
X127377631Y-82541531D01*
X127787054Y-82815098D01*
X128270000Y-82911162D01*
X128752946Y-82815098D01*
X129162369Y-82541531D01*
X129435936Y-82132108D01*
X129532000Y-81649162D01*
X129532000Y-80910838D01*
X129548000Y-80910838D01*
X129548000Y-81649162D01*
X129644064Y-82132108D01*
X129917631Y-82541531D01*
X130327054Y-82815098D01*
X130810000Y-82911162D01*
X131292946Y-82815098D01*
X131702369Y-82541531D01*
X131975936Y-82132108D01*
X132072000Y-81649162D01*
X132072000Y-80910838D01*
X132088000Y-80910838D01*
X132088000Y-81649162D01*
X132184064Y-82132108D01*
X132457631Y-82541531D01*
X132867054Y-82815098D01*
X133350000Y-82911162D01*
X133832946Y-82815098D01*
X134242369Y-82541531D01*
X134515936Y-82132108D01*
X134612000Y-81649162D01*
X134612000Y-80910838D01*
X137168000Y-80910838D01*
X137168000Y-81649162D01*
X137264064Y-82132108D01*
X137537631Y-82541531D01*
X137947054Y-82815098D01*
X138430000Y-82911162D01*
X138912946Y-82815098D01*
X139322369Y-82541531D01*
X139595936Y-82132108D01*
X139692000Y-81649162D01*
X139692000Y-81434000D01*
X139708000Y-81434000D01*
X139708000Y-81771820D01*
X139862997Y-82243044D01*
X140186525Y-82619083D01*
X140621951Y-82830877D01*
X140816000Y-82744343D01*
X140816000Y-81434000D01*
X141124000Y-81434000D01*
X141124000Y-82744343D01*
X141318049Y-82830877D01*
X141753475Y-82619083D01*
X142077003Y-82243044D01*
X142232000Y-81771820D01*
X142232000Y-81434000D01*
X142248000Y-81434000D01*
X142248000Y-81771820D01*
X142402997Y-82243044D01*
X142726525Y-82619083D01*
X143161951Y-82830877D01*
X143356000Y-82744343D01*
X143356000Y-81434000D01*
X143664000Y-81434000D01*
X143664000Y-82744343D01*
X143858049Y-82830877D01*
X144293475Y-82619083D01*
X144617003Y-82243044D01*
X144772000Y-81771820D01*
X144772000Y-81434000D01*
X143664000Y-81434000D01*
X143356000Y-81434000D01*
X142248000Y-81434000D01*
X142232000Y-81434000D01*
X141124000Y-81434000D01*
X140816000Y-81434000D01*
X139708000Y-81434000D01*
X139692000Y-81434000D01*
X139692000Y-80910838D01*
X139667602Y-80788180D01*
X139708000Y-80788180D01*
X139708000Y-81126000D01*
X140816000Y-81126000D01*
X140816000Y-79815657D01*
X141124000Y-79815657D01*
X141124000Y-81126000D01*
X142232000Y-81126000D01*
X142232000Y-80788180D01*
X142248000Y-80788180D01*
X142248000Y-81126000D01*
X143356000Y-81126000D01*
X143356000Y-79815657D01*
X143664000Y-79815657D01*
X143664000Y-81126000D01*
X144772000Y-81126000D01*
X144772000Y-80910838D01*
X144788000Y-80910838D01*
X144788000Y-81649162D01*
X144884064Y-82132108D01*
X145157631Y-82541531D01*
X145262216Y-82611412D01*
X145288657Y-82744343D01*
X145310896Y-82856147D01*
X145484315Y-83115685D01*
X146754314Y-84385685D01*
X146880500Y-84470000D01*
X147013853Y-84559104D01*
X147320000Y-84620000D01*
X174928630Y-84620000D01*
X177000000Y-86691371D01*
X177000000Y-96520000D01*
X177045698Y-96749739D01*
X177060896Y-96826147D01*
X177234315Y-97085685D01*
X180130415Y-99981786D01*
X180110261Y-100030323D01*
X180109740Y-100627059D01*
X180337620Y-101178572D01*
X180759209Y-101600897D01*
X181310323Y-101829739D01*
X181907059Y-101830260D01*
X182458572Y-101602380D01*
X182880897Y-101180791D01*
X183109739Y-100629677D01*
X183110260Y-100032941D01*
X182882380Y-99481428D01*
X182460791Y-99059103D01*
X181909677Y-98830261D01*
X181312941Y-98829740D01*
X181262113Y-98850742D01*
X178600000Y-96188630D01*
X178600000Y-95547059D01*
X180109740Y-95547059D01*
X180337620Y-96098572D01*
X180759209Y-96520897D01*
X181310323Y-96749739D01*
X181907059Y-96750260D01*
X182458572Y-96522380D01*
X182880897Y-96100791D01*
X183109739Y-95549677D01*
X183110260Y-94952941D01*
X182882380Y-94401428D01*
X182460791Y-93979103D01*
X181909677Y-93750261D01*
X181312941Y-93749740D01*
X180761428Y-93977620D01*
X180339103Y-94399209D01*
X180110261Y-94950323D01*
X180109740Y-95547059D01*
X178600000Y-95547059D01*
X178600000Y-86657059D01*
X178829740Y-86657059D01*
X179057620Y-87208572D01*
X179479209Y-87630897D01*
X180030323Y-87859739D01*
X180627059Y-87860260D01*
X181178572Y-87632380D01*
X181600897Y-87210791D01*
X181829739Y-86659677D01*
X181830260Y-86062941D01*
X181602380Y-85511428D01*
X181180791Y-85089103D01*
X180629677Y-84860261D01*
X180032941Y-84859740D01*
X179481428Y-85087620D01*
X179059103Y-85509209D01*
X178830261Y-86060323D01*
X178829740Y-86657059D01*
X178600000Y-86657059D01*
X178600000Y-86360000D01*
X178539104Y-86053853D01*
X178436556Y-85900380D01*
X178365685Y-85794314D01*
X175825685Y-83254315D01*
X175566147Y-83080896D01*
X175260000Y-83020000D01*
X147651371Y-83020000D01*
X147034707Y-82403337D01*
X147215936Y-82132108D01*
X147312000Y-81649162D01*
X147312000Y-80910838D01*
X147328000Y-80910838D01*
X147328000Y-81649162D01*
X147424064Y-82132108D01*
X147697631Y-82541531D01*
X148107054Y-82815098D01*
X148590000Y-82911162D01*
X149072946Y-82815098D01*
X149482369Y-82541531D01*
X149755936Y-82132108D01*
X149852000Y-81649162D01*
X149852000Y-80910838D01*
X149868000Y-80910838D01*
X149868000Y-81649162D01*
X149964064Y-82132108D01*
X150237631Y-82541531D01*
X150647054Y-82815098D01*
X151130000Y-82911162D01*
X151612946Y-82815098D01*
X152022369Y-82541531D01*
X152295936Y-82132108D01*
X152392000Y-81649162D01*
X152392000Y-80910838D01*
X152408000Y-80910838D01*
X152408000Y-81649162D01*
X152504064Y-82132108D01*
X152777631Y-82541531D01*
X153187054Y-82815098D01*
X153670000Y-82911162D01*
X154152946Y-82815098D01*
X154562369Y-82541531D01*
X154835936Y-82132108D01*
X154932000Y-81649162D01*
X154932000Y-80910838D01*
X154948000Y-80910838D01*
X154948000Y-81649162D01*
X155044064Y-82132108D01*
X155317631Y-82541531D01*
X155727054Y-82815098D01*
X156210000Y-82911162D01*
X156692946Y-82815098D01*
X157102369Y-82541531D01*
X157375936Y-82132108D01*
X157472000Y-81649162D01*
X157472000Y-80910838D01*
X157375936Y-80427892D01*
X157102369Y-80018469D01*
X156692946Y-79744902D01*
X156210000Y-79648838D01*
X155727054Y-79744902D01*
X155317631Y-80018469D01*
X155044064Y-80427892D01*
X154948000Y-80910838D01*
X154932000Y-80910838D01*
X154835936Y-80427892D01*
X154562369Y-80018469D01*
X154152946Y-79744902D01*
X153670000Y-79648838D01*
X153187054Y-79744902D01*
X152777631Y-80018469D01*
X152504064Y-80427892D01*
X152408000Y-80910838D01*
X152392000Y-80910838D01*
X152295936Y-80427892D01*
X152022369Y-80018469D01*
X151612946Y-79744902D01*
X151130000Y-79648838D01*
X150647054Y-79744902D01*
X150237631Y-80018469D01*
X149964064Y-80427892D01*
X149868000Y-80910838D01*
X149852000Y-80910838D01*
X149755936Y-80427892D01*
X149482369Y-80018469D01*
X149072946Y-79744902D01*
X148590000Y-79648838D01*
X148107054Y-79744902D01*
X147697631Y-80018469D01*
X147424064Y-80427892D01*
X147328000Y-80910838D01*
X147312000Y-80910838D01*
X147215936Y-80427892D01*
X146942369Y-80018469D01*
X146532946Y-79744902D01*
X146050000Y-79648838D01*
X145567054Y-79744902D01*
X145157631Y-80018469D01*
X144884064Y-80427892D01*
X144788000Y-80910838D01*
X144772000Y-80910838D01*
X144772000Y-80788180D01*
X144617003Y-80316956D01*
X144293475Y-79940917D01*
X143858049Y-79729123D01*
X143664000Y-79815657D01*
X143356000Y-79815657D01*
X143161951Y-79729123D01*
X142726525Y-79940917D01*
X142402997Y-80316956D01*
X142248000Y-80788180D01*
X142232000Y-80788180D01*
X142077003Y-80316956D01*
X141753475Y-79940917D01*
X141318049Y-79729123D01*
X141124000Y-79815657D01*
X140816000Y-79815657D01*
X140621951Y-79729123D01*
X140186525Y-79940917D01*
X139862997Y-80316956D01*
X139708000Y-80788180D01*
X139667602Y-80788180D01*
X139595936Y-80427892D01*
X139322369Y-80018469D01*
X138912946Y-79744902D01*
X138430000Y-79648838D01*
X137947054Y-79744902D01*
X137537631Y-80018469D01*
X137264064Y-80427892D01*
X137168000Y-80910838D01*
X134612000Y-80910838D01*
X134515936Y-80427892D01*
X134242369Y-80018469D01*
X133832946Y-79744902D01*
X133350000Y-79648838D01*
X132867054Y-79744902D01*
X132457631Y-80018469D01*
X132184064Y-80427892D01*
X132088000Y-80910838D01*
X132072000Y-80910838D01*
X131975936Y-80427892D01*
X131702369Y-80018469D01*
X131292946Y-79744902D01*
X130810000Y-79648838D01*
X130327054Y-79744902D01*
X129917631Y-80018469D01*
X129644064Y-80427892D01*
X129548000Y-80910838D01*
X129532000Y-80910838D01*
X129435936Y-80427892D01*
X129162369Y-80018469D01*
X128752946Y-79744902D01*
X128270000Y-79648838D01*
X127787054Y-79744902D01*
X127377631Y-80018469D01*
X127104064Y-80427892D01*
X127008000Y-80910838D01*
X126992000Y-80910838D01*
X126895936Y-80427892D01*
X126622369Y-80018469D01*
X126212946Y-79744902D01*
X125730000Y-79648838D01*
X125247054Y-79744902D01*
X124837631Y-80018469D01*
X124564064Y-80427892D01*
X124468000Y-80910838D01*
X124452000Y-80910838D01*
X124355936Y-80427892D01*
X124082369Y-80018469D01*
X123672946Y-79744902D01*
X123190000Y-79648838D01*
X122707054Y-79744902D01*
X122297631Y-80018469D01*
X122024064Y-80427892D01*
X121928000Y-80910838D01*
X121912000Y-80910838D01*
X121815936Y-80427892D01*
X121542369Y-80018469D01*
X121132946Y-79744902D01*
X120650000Y-79648838D01*
X120167054Y-79744902D01*
X119757631Y-80018469D01*
X119484064Y-80427892D01*
X119388000Y-80910838D01*
X118800500Y-80910838D01*
X118800500Y-80078007D01*
X118857110Y-79793412D01*
X118979797Y-79609797D01*
X119163411Y-79487110D01*
X119448006Y-79430500D01*
X182811993Y-79430500D01*
X183096588Y-79487110D01*
X183096588Y-79487110D01*
G37*
X183096588Y-79487110D02*
X183280203Y-79609797D01*
X183402890Y-79793411D01*
X183459500Y-80078006D01*
X183459500Y-130741994D01*
X183402890Y-131026589D01*
X183280203Y-131210203D01*
X183096588Y-131332890D01*
X182811993Y-131389500D01*
X119666014Y-131389500D01*
X118800500Y-130523986D01*
X118800500Y-129172133D01*
X119388000Y-129172133D01*
X119388000Y-129907867D01*
X119484064Y-130390813D01*
X119757631Y-130800236D01*
X120167054Y-131073803D01*
X120650000Y-131169867D01*
X121132946Y-131073803D01*
X121542369Y-130800236D01*
X121815936Y-130390813D01*
X121912000Y-129907867D01*
X121912000Y-129172133D01*
X121928000Y-129172133D01*
X121928000Y-129907867D01*
X122024064Y-130390813D01*
X122297631Y-130800236D01*
X122707054Y-131073803D01*
X123190000Y-131169867D01*
X123672946Y-131073803D01*
X124082369Y-130800236D01*
X124355936Y-130390813D01*
X124452000Y-129907867D01*
X124452000Y-129172133D01*
X124468000Y-129172133D01*
X124468000Y-129907867D01*
X124564064Y-130390813D01*
X124837631Y-130800236D01*
X125247054Y-131073803D01*
X125730000Y-131169867D01*
X126212946Y-131073803D01*
X126622369Y-130800236D01*
X126895936Y-130390813D01*
X126992000Y-129907867D01*
X126992000Y-129172133D01*
X127008000Y-129172133D01*
X127008000Y-129907867D01*
X127104064Y-130390813D01*
X127377631Y-130800236D01*
X127787054Y-131073803D01*
X128270000Y-131169867D01*
X128752946Y-131073803D01*
X129162369Y-130800236D01*
X129435936Y-130390813D01*
X129532000Y-129907867D01*
X129532000Y-129172133D01*
X129548000Y-129172133D01*
X129548000Y-129907867D01*
X129644064Y-130390813D01*
X129917631Y-130800236D01*
X130327054Y-131073803D01*
X130810000Y-131169867D01*
X131292946Y-131073803D01*
X131702369Y-130800236D01*
X131975936Y-130390813D01*
X132072000Y-129907867D01*
X132072000Y-129172133D01*
X132088000Y-129172133D01*
X132088000Y-129907867D01*
X132184064Y-130390813D01*
X132457631Y-130800236D01*
X132867054Y-131073803D01*
X133350000Y-131169867D01*
X133832946Y-131073803D01*
X134242369Y-130800236D01*
X134515936Y-130390813D01*
X134612000Y-129907867D01*
X134612000Y-129172133D01*
X134628000Y-129172133D01*
X134628000Y-129907867D01*
X134724064Y-130390813D01*
X134997631Y-130800236D01*
X135407054Y-131073803D01*
X135890000Y-131169867D01*
X136372946Y-131073803D01*
X136782369Y-130800236D01*
X137055936Y-130390813D01*
X137152000Y-129907867D01*
X137152000Y-129172133D01*
X137055936Y-128689187D01*
X137043565Y-128670673D01*
X138699239Y-127015000D01*
X139400762Y-127015000D01*
X138493081Y-127922681D01*
X138430000Y-127910133D01*
X137947054Y-128006197D01*
X137537631Y-128279764D01*
X137264064Y-128689187D01*
X137168000Y-129172133D01*
X137168000Y-129907867D01*
X137264064Y-130390813D01*
X137537631Y-130800236D01*
X137947054Y-131073803D01*
X138430000Y-131169867D01*
X138912946Y-131073803D01*
X139322369Y-130800236D01*
X139595936Y-130390813D01*
X139692000Y-129907867D01*
X139692000Y-129172133D01*
X141232000Y-129172133D01*
X141232000Y-129907867D01*
X141328064Y-130390813D01*
X141601631Y-130800236D01*
X142011054Y-131073803D01*
X142494000Y-131169867D01*
X142976946Y-131073803D01*
X143386369Y-130800236D01*
X143659936Y-130390813D01*
X143756000Y-129907867D01*
X143756000Y-129172133D01*
X143659936Y-128689187D01*
X143386369Y-128279764D01*
X142976946Y-128006197D01*
X142494000Y-127910133D01*
X142011054Y-128006197D01*
X141601631Y-128279764D01*
X141328064Y-128689187D01*
X141232000Y-129172133D01*
X139692000Y-129172133D01*
X139595936Y-128689187D01*
X139583565Y-128670673D01*
X141874238Y-126380000D01*
X146385761Y-126380000D01*
X144811339Y-127954423D01*
X144551054Y-128006197D01*
X144141631Y-128279764D01*
X143868064Y-128689187D01*
X143772000Y-129172133D01*
X143772000Y-129907867D01*
X143868064Y-130390813D01*
X144141631Y-130800236D01*
X144551054Y-131073803D01*
X145034000Y-131169867D01*
X145516946Y-131073803D01*
X145926369Y-130800236D01*
X146199936Y-130390813D01*
X146296000Y-129907867D01*
X146296000Y-129172133D01*
X146199936Y-128689187D01*
X146085827Y-128518411D01*
X146248408Y-128355830D01*
X146477639Y-128585061D01*
X146408064Y-128689187D01*
X146312000Y-129172133D01*
X146312000Y-129907867D01*
X146408064Y-130390813D01*
X146681631Y-130800236D01*
X147091054Y-131073803D01*
X147574000Y-131169867D01*
X148056946Y-131073803D01*
X148466369Y-130800236D01*
X148739936Y-130390813D01*
X148836000Y-129907867D01*
X148836000Y-129172133D01*
X148852000Y-129172133D01*
X148852000Y-129907867D01*
X148948064Y-130390813D01*
X149221631Y-130800236D01*
X149631054Y-131073803D01*
X150114000Y-131169867D01*
X150596946Y-131073803D01*
X151006369Y-130800236D01*
X151279936Y-130390813D01*
X151376000Y-129907867D01*
X151376000Y-129172133D01*
X151392000Y-129172133D01*
X151392000Y-129907867D01*
X151488064Y-130390813D01*
X151761631Y-130800236D01*
X152171054Y-131073803D01*
X152654000Y-131169867D01*
X153136946Y-131073803D01*
X153546369Y-130800236D01*
X153819936Y-130390813D01*
X153916000Y-129907867D01*
X153916000Y-129172133D01*
X153932000Y-129172133D01*
X153932000Y-129907867D01*
X154028064Y-130390813D01*
X154301631Y-130800236D01*
X154711054Y-131073803D01*
X155194000Y-131169867D01*
X155676946Y-131073803D01*
X156086369Y-130800236D01*
X156359936Y-130390813D01*
X156456000Y-129907867D01*
X156456000Y-129172133D01*
X156472000Y-129172133D01*
X156472000Y-129907867D01*
X156568064Y-130390813D01*
X156841631Y-130800236D01*
X157251054Y-131073803D01*
X157734000Y-131169867D01*
X158216946Y-131073803D01*
X158626369Y-130800236D01*
X158899936Y-130390813D01*
X158996000Y-129907867D01*
X158996000Y-129172133D01*
X159009460Y-129172133D01*
X159009460Y-129907867D01*
X159105524Y-130390813D01*
X159379091Y-130800236D01*
X159788514Y-131073803D01*
X160271460Y-131169867D01*
X160754406Y-131073803D01*
X161163829Y-130800236D01*
X161437396Y-130390813D01*
X161533460Y-129907867D01*
X161533460Y-129172133D01*
X161552000Y-129172133D01*
X161552000Y-129907867D01*
X161648064Y-130390813D01*
X161921631Y-130800236D01*
X162331054Y-131073803D01*
X162814000Y-131169867D01*
X163296946Y-131073803D01*
X163706369Y-130800236D01*
X163979936Y-130390813D01*
X164076000Y-129907867D01*
X164076000Y-129172133D01*
X164092000Y-129172133D01*
X164092000Y-129907867D01*
X164188064Y-130390813D01*
X164461631Y-130800236D01*
X164871054Y-131073803D01*
X165354000Y-131169867D01*
X165836946Y-131073803D01*
X166246369Y-130800236D01*
X166519936Y-130390813D01*
X166616000Y-129907867D01*
X166616000Y-129172133D01*
X166519936Y-128689187D01*
X166246369Y-128279764D01*
X165836946Y-128006197D01*
X165354000Y-127910133D01*
X164871054Y-128006197D01*
X164461631Y-128279764D01*
X164188064Y-128689187D01*
X164092000Y-129172133D01*
X164076000Y-129172133D01*
X163979936Y-128689187D01*
X163706369Y-128279764D01*
X163296946Y-128006197D01*
X162814000Y-127910133D01*
X162331054Y-128006197D01*
X161921631Y-128279764D01*
X161648064Y-128689187D01*
X161552000Y-129172133D01*
X161533460Y-129172133D01*
X161437396Y-128689187D01*
X161163829Y-128279764D01*
X160754406Y-128006197D01*
X160271460Y-127910133D01*
X159788514Y-128006197D01*
X159379091Y-128279764D01*
X159105524Y-128689187D01*
X159009460Y-129172133D01*
X158996000Y-129172133D01*
X158899936Y-128689187D01*
X158626369Y-128279764D01*
X158216946Y-128006197D01*
X157734000Y-127910133D01*
X157251054Y-128006197D01*
X156841631Y-128279764D01*
X156568064Y-128689187D01*
X156472000Y-129172133D01*
X156456000Y-129172133D01*
X156359936Y-128689187D01*
X156086369Y-128279764D01*
X155676946Y-128006197D01*
X155194000Y-127910133D01*
X154711054Y-128006197D01*
X154301631Y-128279764D01*
X154028064Y-128689187D01*
X153932000Y-129172133D01*
X153916000Y-129172133D01*
X153819936Y-128689187D01*
X153546369Y-128279764D01*
X153136946Y-128006197D01*
X152654000Y-127910133D01*
X152171054Y-128006197D01*
X151761631Y-128279764D01*
X151488064Y-128689187D01*
X151392000Y-129172133D01*
X151376000Y-129172133D01*
X151279936Y-128689187D01*
X151006369Y-128279764D01*
X150596946Y-128006197D01*
X150114000Y-127910133D01*
X149631054Y-128006197D01*
X149221631Y-128279764D01*
X148948064Y-128689187D01*
X148852000Y-129172133D01*
X148836000Y-129172133D01*
X148739936Y-128689187D01*
X148625827Y-128518411D01*
X149494239Y-127650000D01*
X176530000Y-127650000D01*
X176737476Y-127608731D01*
X176778745Y-127600522D01*
X176989619Y-127459619D01*
X180164619Y-124284619D01*
X180305522Y-124073745D01*
X180329188Y-123954766D01*
X180355000Y-123825000D01*
X180355000Y-121515982D01*
X180759209Y-121920897D01*
X181310323Y-122149739D01*
X181907059Y-122150260D01*
X182458572Y-121922380D01*
X182880897Y-121500791D01*
X183109739Y-120949677D01*
X183110260Y-120352941D01*
X182882380Y-119801428D01*
X182460791Y-119379103D01*
X181909677Y-119150261D01*
X181312941Y-119149740D01*
X180761428Y-119377620D01*
X180355000Y-119783340D01*
X180355000Y-116435982D01*
X180759209Y-116840897D01*
X181310323Y-117069739D01*
X181907059Y-117070260D01*
X182458572Y-116842380D01*
X182880897Y-116420791D01*
X183109739Y-115869677D01*
X183110260Y-115272941D01*
X182882380Y-114721428D01*
X182460791Y-114299103D01*
X181909677Y-114070261D01*
X181312941Y-114069740D01*
X180761428Y-114297620D01*
X180355000Y-114703340D01*
X180355000Y-111355982D01*
X180759209Y-111760897D01*
X181310323Y-111989739D01*
X181907059Y-111990260D01*
X182458572Y-111762380D01*
X182880897Y-111340791D01*
X183109739Y-110789677D01*
X183110260Y-110192941D01*
X182882380Y-109641428D01*
X182460791Y-109219103D01*
X181909677Y-108990261D01*
X181312941Y-108989740D01*
X180761428Y-109217620D01*
X180355000Y-109623340D01*
X180355000Y-106275982D01*
X180759209Y-106680897D01*
X181310323Y-106909739D01*
X181907059Y-106910260D01*
X182458572Y-106682380D01*
X182880897Y-106260791D01*
X183109739Y-105709677D01*
X183110260Y-105112941D01*
X182882380Y-104561428D01*
X182460791Y-104139103D01*
X181909677Y-103910261D01*
X181312941Y-103909740D01*
X180761428Y-104137620D01*
X180355000Y-104543340D01*
X180355000Y-103505000D01*
X180305522Y-103256256D01*
X180305522Y-103256255D01*
X180164619Y-103045381D01*
X172867344Y-95748106D01*
X172949739Y-95549677D01*
X172950260Y-94952941D01*
X172722380Y-94401428D01*
X172300791Y-93979103D01*
X171749677Y-93750261D01*
X171152941Y-93749740D01*
X170601428Y-93977620D01*
X170195000Y-94383340D01*
X170195000Y-89814238D01*
X172231894Y-87777344D01*
X172430323Y-87859739D01*
X173027059Y-87860260D01*
X173578572Y-87632380D01*
X174000897Y-87210791D01*
X174229739Y-86659677D01*
X174230260Y-86062941D01*
X174002380Y-85511428D01*
X173580791Y-85089103D01*
X173029677Y-84860261D01*
X172432941Y-84859740D01*
X171881428Y-85087620D01*
X171459103Y-85509209D01*
X171230261Y-86060323D01*
X171229740Y-86657059D01*
X171312765Y-86857996D01*
X169085381Y-89085381D01*
X168944478Y-89296255D01*
X168944478Y-89296256D01*
X168895000Y-89545000D01*
X168895000Y-95885000D01*
X168908788Y-95954315D01*
X168944478Y-96133745D01*
X169085381Y-96344619D01*
X170355380Y-97614619D01*
X170566255Y-97755522D01*
X170607524Y-97763731D01*
X170739590Y-97790000D01*
X170566256Y-97824478D01*
X170355381Y-97965380D01*
X164830762Y-103490000D01*
X157093297Y-103490000D01*
X154859674Y-101256377D01*
X157613424Y-101256377D01*
X157930588Y-101942483D01*
X158486171Y-102454989D01*
X159042457Y-102685410D01*
X159342650Y-102607852D01*
X159342650Y-100956184D01*
X159650650Y-100956184D01*
X159650650Y-102607852D01*
X159950843Y-102685410D01*
X160636949Y-102368246D01*
X161149455Y-101812663D01*
X161379876Y-101256377D01*
X161302318Y-100956184D01*
X159650650Y-100956184D01*
X159342650Y-100956184D01*
X157690982Y-100956184D01*
X157613424Y-101256377D01*
X154859674Y-101256377D01*
X153951288Y-100347991D01*
X157613424Y-100347991D01*
X157690982Y-100648184D01*
X159342650Y-100648184D01*
X159342650Y-98996516D01*
X159650650Y-98996516D01*
X159650650Y-100648184D01*
X161302318Y-100648184D01*
X161379876Y-100347991D01*
X161062712Y-99661885D01*
X160507129Y-99149379D01*
X159950843Y-98918958D01*
X159650650Y-98996516D01*
X159342650Y-98996516D01*
X159042457Y-98918958D01*
X158356351Y-99236122D01*
X157843845Y-99791705D01*
X157613424Y-100347991D01*
X153951288Y-100347991D01*
X153489373Y-99886077D01*
X153571768Y-99687648D01*
X153572109Y-99296902D01*
X153960078Y-99297241D01*
X154511591Y-99069361D01*
X154933916Y-98647772D01*
X155162758Y-98096658D01*
X155163279Y-97499922D01*
X154935399Y-96948409D01*
X154513810Y-96526084D01*
X153962696Y-96297242D01*
X153365960Y-96296721D01*
X152814447Y-96524601D01*
X152392122Y-96946190D01*
X152163280Y-97497304D01*
X152162939Y-97888050D01*
X151774970Y-97887711D01*
X151223457Y-98115591D01*
X150801132Y-98537180D01*
X150572290Y-99088294D01*
X150571769Y-99685030D01*
X150799649Y-100236543D01*
X151221238Y-100658868D01*
X151772352Y-100887710D01*
X152369088Y-100888231D01*
X152570025Y-100805206D01*
X155889819Y-104125000D01*
X146866827Y-104125000D01*
X146349677Y-103910261D01*
X145753691Y-103909741D01*
X145754209Y-103316890D01*
X145526329Y-102765377D01*
X145104740Y-102343052D01*
X144553626Y-102114210D01*
X143956890Y-102113689D01*
X143405377Y-102341569D01*
X142983052Y-102763158D01*
X142754210Y-103314272D01*
X142753689Y-103911008D01*
X142981569Y-104462521D01*
X143403158Y-104884846D01*
X143954272Y-105113688D01*
X144550258Y-105114208D01*
X144549740Y-105707059D01*
X144777620Y-106258572D01*
X145199209Y-106680897D01*
X145750323Y-106909739D01*
X146346309Y-106910259D01*
X146345791Y-107503110D01*
X146573671Y-108054623D01*
X146995260Y-108476948D01*
X147546374Y-108705790D01*
X148143110Y-108706311D01*
X148694623Y-108478431D01*
X149116948Y-108056842D01*
X149345790Y-107505728D01*
X149346311Y-106908992D01*
X149118431Y-106357479D01*
X148696842Y-105935154D01*
X148145728Y-105706312D01*
X147549742Y-105705792D01*
X147549988Y-105425000D01*
X167005000Y-105425000D01*
X167212476Y-105383731D01*
X167253745Y-105375522D01*
X167464619Y-105234619D01*
X170951894Y-101747344D01*
X171150323Y-101829739D01*
X171747059Y-101830260D01*
X172298572Y-101602380D01*
X172705000Y-101196660D01*
X172705000Y-103235761D01*
X171948106Y-103992656D01*
X171749677Y-103910261D01*
X171152941Y-103909740D01*
X170601428Y-104137620D01*
X170179103Y-104559209D01*
X169950261Y-105110323D01*
X169949740Y-105707059D01*
X170177620Y-106258572D01*
X170599209Y-106680897D01*
X171150323Y-106909739D01*
X171747059Y-106910260D01*
X172298572Y-106682380D01*
X172720897Y-106260791D01*
X172949739Y-105709677D01*
X172950260Y-105112941D01*
X172867235Y-104912004D01*
X173814620Y-103964619D01*
X173955522Y-103753744D01*
X174005000Y-103505000D01*
X174005000Y-99994238D01*
X178420000Y-104409239D01*
X178420000Y-122920762D01*
X175625762Y-125715000D01*
X162224238Y-125715000D01*
X166489133Y-121450105D01*
X166528432Y-121450139D01*
X166822572Y-121328603D01*
X167047812Y-121103755D01*
X167169861Y-120809828D01*
X167170139Y-120491568D01*
X167048603Y-120197428D01*
X166823755Y-119972188D01*
X166529828Y-119850139D01*
X166211568Y-119849861D01*
X165917428Y-119971397D01*
X165692188Y-120196245D01*
X165570139Y-120490172D01*
X165570104Y-120530658D01*
X161020762Y-125080000D01*
X158435180Y-125080000D01*
X161119865Y-122395315D01*
X161318294Y-122477710D01*
X161915030Y-122478231D01*
X162466543Y-122250351D01*
X162888868Y-121828762D01*
X163117710Y-121277648D01*
X163118231Y-120680912D01*
X162890351Y-120129399D01*
X162468762Y-119707074D01*
X161917648Y-119478232D01*
X161526902Y-119477891D01*
X161527241Y-119089922D01*
X161299361Y-118538409D01*
X160877772Y-118116084D01*
X160326658Y-117887242D01*
X159729922Y-117886721D01*
X159178409Y-118114601D01*
X158756084Y-118536190D01*
X158527242Y-119087304D01*
X158526721Y-119684040D01*
X158754601Y-120235553D01*
X159176190Y-120657878D01*
X159727304Y-120886720D01*
X160118050Y-120887061D01*
X160117711Y-121275030D01*
X160200736Y-121475967D01*
X157231704Y-124445000D01*
X140970000Y-124445000D01*
X140762524Y-124486269D01*
X140721255Y-124494478D01*
X140510380Y-124635381D01*
X139430762Y-125715000D01*
X138430000Y-125715000D01*
X138181256Y-125764478D01*
X138181254Y-125764479D01*
X138181255Y-125764479D01*
X137970380Y-125905381D01*
X135953081Y-127922681D01*
X135890000Y-127910133D01*
X135407054Y-128006197D01*
X134997631Y-128279764D01*
X134724064Y-128689187D01*
X134628000Y-129172133D01*
X134612000Y-129172133D01*
X134515936Y-128689187D01*
X134242369Y-128279764D01*
X133832946Y-128006197D01*
X133350000Y-127910133D01*
X132867054Y-128006197D01*
X132457631Y-128279764D01*
X132184064Y-128689187D01*
X132088000Y-129172133D01*
X132072000Y-129172133D01*
X131975936Y-128689187D01*
X131702369Y-128279764D01*
X131292946Y-128006197D01*
X130810000Y-127910133D01*
X130327054Y-128006197D01*
X129917631Y-128279764D01*
X129644064Y-128689187D01*
X129548000Y-129172133D01*
X129532000Y-129172133D01*
X129435936Y-128689187D01*
X129162369Y-128279764D01*
X128752946Y-128006197D01*
X128270000Y-127910133D01*
X127787054Y-128006197D01*
X127377631Y-128279764D01*
X127104064Y-128689187D01*
X127008000Y-129172133D01*
X126992000Y-129172133D01*
X126895936Y-128689187D01*
X126622369Y-128279764D01*
X126212946Y-128006197D01*
X125730000Y-127910133D01*
X125247054Y-128006197D01*
X124837631Y-128279764D01*
X124564064Y-128689187D01*
X124468000Y-129172133D01*
X124452000Y-129172133D01*
X124355936Y-128689187D01*
X124082369Y-128279764D01*
X123672946Y-128006197D01*
X123190000Y-127910133D01*
X122707054Y-128006197D01*
X122297631Y-128279764D01*
X122024064Y-128689187D01*
X121928000Y-129172133D01*
X121912000Y-129172133D01*
X121815936Y-128689187D01*
X121542369Y-128279764D01*
X121132946Y-128006197D01*
X120650000Y-127910133D01*
X120167054Y-128006197D01*
X119757631Y-128279764D01*
X119484064Y-128689187D01*
X119388000Y-129172133D01*
X118800500Y-129172133D01*
X118800500Y-124618432D01*
X128739861Y-124618432D01*
X128861397Y-124912572D01*
X129086245Y-125137812D01*
X129380172Y-125259861D01*
X129698432Y-125260139D01*
X129992572Y-125138603D01*
X130021225Y-125110000D01*
X139065000Y-125110000D01*
X139272476Y-125068731D01*
X139313745Y-125060522D01*
X139524619Y-124919619D01*
X141402055Y-123042184D01*
X152406122Y-123042184D01*
X152581669Y-123467041D01*
X153115681Y-124001986D01*
X153813759Y-124291853D01*
X154569625Y-124292513D01*
X155268207Y-124003865D01*
X155803152Y-123469853D01*
X156093019Y-122771775D01*
X156093679Y-122015909D01*
X155805031Y-121317327D01*
X155271019Y-120782382D01*
X154572941Y-120492515D01*
X153817075Y-120491855D01*
X153118493Y-120780503D01*
X152583548Y-121314515D01*
X152405965Y-121742184D01*
X141132816Y-121742184D01*
X140884072Y-121791662D01*
X140884070Y-121791663D01*
X140884071Y-121791663D01*
X140673196Y-121932565D01*
X139913926Y-122691836D01*
X139914557Y-121968689D01*
X139625909Y-121270107D01*
X139091897Y-120735162D01*
X138393819Y-120445295D01*
X137637953Y-120444635D01*
X136939371Y-120733283D01*
X136404426Y-121267295D01*
X136114559Y-121965373D01*
X136113899Y-122721239D01*
X136402547Y-123419821D01*
X136792045Y-123810000D01*
X130021519Y-123810000D01*
X129993755Y-123782188D01*
X129699828Y-123660139D01*
X129381568Y-123659861D01*
X129087428Y-123781397D01*
X128862188Y-124006245D01*
X128740139Y-124300172D01*
X128739861Y-124618432D01*
X118800500Y-124618432D01*
X118800500Y-121357603D01*
X129065796Y-121357603D01*
X129293676Y-121909116D01*
X129715265Y-122331441D01*
X130266379Y-122560283D01*
X130863115Y-122560804D01*
X131414628Y-122332924D01*
X131836953Y-121911335D01*
X132065795Y-121360221D01*
X132066160Y-120941975D01*
X132426096Y-120942289D01*
X132977609Y-120714409D01*
X133399934Y-120292820D01*
X133628776Y-119741706D01*
X133629218Y-119235256D01*
X139612508Y-119235256D01*
X139941597Y-119915722D01*
X140506040Y-120418454D01*
X141066263Y-120639131D01*
X141365057Y-120556346D01*
X141336231Y-118904929D01*
X139684815Y-118933755D01*
X139612508Y-119235256D01*
X133629218Y-119235256D01*
X133629297Y-119144970D01*
X133527894Y-118899554D01*
X141644184Y-118899554D01*
X141673010Y-120550970D01*
X141974511Y-120623277D01*
X142654977Y-120294188D01*
X143157709Y-119729745D01*
X143322718Y-119310843D01*
X148774590Y-119310843D01*
X149091754Y-119996949D01*
X149647337Y-120509455D01*
X150203623Y-120739876D01*
X150503816Y-120662318D01*
X150503816Y-119010650D01*
X150811816Y-119010650D01*
X150811816Y-120662318D01*
X151112009Y-120739876D01*
X151798115Y-120422712D01*
X152310621Y-119867129D01*
X152541042Y-119310843D01*
X152463484Y-119010650D01*
X150811816Y-119010650D01*
X150503816Y-119010650D01*
X148852148Y-119010650D01*
X148774590Y-119310843D01*
X143322718Y-119310843D01*
X143378386Y-119169522D01*
X143295601Y-118870728D01*
X141644184Y-118899554D01*
X133527894Y-118899554D01*
X133401417Y-118593457D01*
X133135433Y-118327008D01*
X139596654Y-118327008D01*
X139679439Y-118625802D01*
X141330856Y-118596976D01*
X141302030Y-116945560D01*
X141279614Y-116940184D01*
X141609983Y-116940184D01*
X141638809Y-118591601D01*
X143290225Y-118562775D01*
X143328673Y-118402457D01*
X148774590Y-118402457D01*
X148852148Y-118702650D01*
X150503816Y-118702650D01*
X150503816Y-117050982D01*
X150811816Y-117050982D01*
X150811816Y-118702650D01*
X152463484Y-118702650D01*
X152541042Y-118402457D01*
X152223878Y-117716351D01*
X151668295Y-117203845D01*
X151112009Y-116973424D01*
X150811816Y-117050982D01*
X150503816Y-117050982D01*
X150203623Y-116973424D01*
X149517517Y-117290588D01*
X149005011Y-117846171D01*
X148774590Y-118402457D01*
X143328673Y-118402457D01*
X143362532Y-118261274D01*
X143033443Y-117580808D01*
X142469000Y-117078076D01*
X141908777Y-116857399D01*
X141609983Y-116940184D01*
X141279614Y-116940184D01*
X141000529Y-116873253D01*
X140320063Y-117202342D01*
X139817331Y-117766785D01*
X139596654Y-118327008D01*
X133135433Y-118327008D01*
X132979828Y-118171132D01*
X132428714Y-117942290D01*
X131831978Y-117941769D01*
X131280465Y-118169649D01*
X130858140Y-118591238D01*
X130629298Y-119142352D01*
X130628933Y-119560598D01*
X130268997Y-119560284D01*
X129717484Y-119788164D01*
X129295159Y-120209753D01*
X129066317Y-120760867D01*
X129065796Y-121357603D01*
X118800500Y-121357603D01*
X118800500Y-119380000D01*
X118747939Y-119115757D01*
X118728927Y-119087304D01*
X118598257Y-118891742D01*
X116260500Y-116553986D01*
X116260500Y-114038010D01*
X127122151Y-114038010D01*
X127410799Y-114736592D01*
X127944811Y-115271537D01*
X128642889Y-115561404D01*
X129398755Y-115562064D01*
X130097337Y-115273416D01*
X130632282Y-114739404D01*
X130922149Y-114041326D01*
X130922809Y-113285460D01*
X130634161Y-112586878D01*
X130100149Y-112051933D01*
X129402071Y-111762066D01*
X128646205Y-111761406D01*
X127947623Y-112050054D01*
X127412678Y-112584066D01*
X127122811Y-113282144D01*
X127122151Y-114038010D01*
X116260500Y-114038010D01*
X116260500Y-110552027D01*
X130620760Y-110552027D01*
X130949849Y-111232493D01*
X131514292Y-111735225D01*
X132074515Y-111955902D01*
X132373309Y-111873117D01*
X132344483Y-110221700D01*
X130693067Y-110250526D01*
X130620760Y-110552027D01*
X116260500Y-110552027D01*
X116260500Y-110216325D01*
X132652436Y-110216325D01*
X132681262Y-111867741D01*
X132982763Y-111940048D01*
X133663229Y-111610959D01*
X134165961Y-111046516D01*
X134386638Y-110486293D01*
X134303853Y-110187499D01*
X132652436Y-110216325D01*
X116260500Y-110216325D01*
X116260500Y-109643779D01*
X130604906Y-109643779D01*
X130687691Y-109942573D01*
X132339108Y-109913747D01*
X132310282Y-108262331D01*
X132287866Y-108256955D01*
X132618235Y-108256955D01*
X132647061Y-109908372D01*
X134298477Y-109879546D01*
X134370784Y-109578045D01*
X134041695Y-108897579D01*
X133477252Y-108394847D01*
X132917029Y-108174170D01*
X132618235Y-108256955D01*
X132287866Y-108256955D01*
X132008781Y-108190024D01*
X131328315Y-108519113D01*
X130825583Y-109083556D01*
X130604906Y-109643779D01*
X116260500Y-109643779D01*
X116260500Y-102890942D01*
X135875000Y-102890942D01*
X135875000Y-113665000D01*
X135905144Y-113816543D01*
X135924478Y-113913745D01*
X136065381Y-114124619D01*
X138605380Y-116664619D01*
X138746283Y-116758767D01*
X138816256Y-116805522D01*
X139065000Y-116855000D01*
X166735762Y-116855000D01*
X170032656Y-120151894D01*
X169950261Y-120350323D01*
X169949740Y-120947059D01*
X170177620Y-121498572D01*
X170599209Y-121920897D01*
X171150323Y-122149739D01*
X171747059Y-122150260D01*
X172298572Y-121922380D01*
X172720897Y-121500791D01*
X172949739Y-120949677D01*
X172950260Y-120352941D01*
X172722380Y-119801428D01*
X172300791Y-119379103D01*
X171749677Y-119150261D01*
X171152941Y-119149740D01*
X170952004Y-119232765D01*
X167939238Y-116220000D01*
X170095572Y-116220000D01*
X170177620Y-116418572D01*
X170599209Y-116840897D01*
X171150323Y-117069739D01*
X171747059Y-117070260D01*
X172298572Y-116842380D01*
X172720897Y-116420791D01*
X172949739Y-115869677D01*
X172950260Y-115272941D01*
X172722380Y-114721428D01*
X172300791Y-114299103D01*
X171749677Y-114070261D01*
X171152941Y-114069740D01*
X170601428Y-114297620D01*
X170179103Y-114719209D01*
X170095727Y-114920000D01*
X164352500Y-114920000D01*
X164641986Y-114631019D01*
X164931853Y-113932941D01*
X164932513Y-113177075D01*
X164643865Y-112478493D01*
X164109853Y-111943548D01*
X163411775Y-111653681D01*
X162655909Y-111653021D01*
X161957327Y-111941669D01*
X161422382Y-112475681D01*
X161132515Y-113173759D01*
X161131855Y-113929625D01*
X161420503Y-114628207D01*
X161711787Y-114920000D01*
X144433727Y-114920000D01*
X141361288Y-111847562D01*
X141410482Y-111729088D01*
X150571769Y-111729088D01*
X150799649Y-112280601D01*
X151221238Y-112702926D01*
X151772352Y-112931768D01*
X152163098Y-112932109D01*
X152162759Y-113320078D01*
X152390639Y-113871591D01*
X152812228Y-114293916D01*
X153363342Y-114522758D01*
X153960078Y-114523279D01*
X154511591Y-114295399D01*
X154933916Y-113873810D01*
X155162758Y-113322696D01*
X155163279Y-112725960D01*
X154935399Y-112174447D01*
X154513810Y-111752122D01*
X153962696Y-111523280D01*
X153571950Y-111522939D01*
X153572289Y-111134970D01*
X153489264Y-110934033D01*
X153951288Y-110472009D01*
X157613424Y-110472009D01*
X157930588Y-111158115D01*
X158486171Y-111670621D01*
X159042457Y-111901042D01*
X159342650Y-111823484D01*
X159342650Y-110171816D01*
X159650650Y-110171816D01*
X159650650Y-111823484D01*
X159950843Y-111901042D01*
X160636949Y-111583878D01*
X161149455Y-111028295D01*
X161379876Y-110472009D01*
X161302318Y-110171816D01*
X159650650Y-110171816D01*
X159342650Y-110171816D01*
X157690982Y-110171816D01*
X157613424Y-110472009D01*
X153951288Y-110472009D01*
X155823297Y-108600000D01*
X158219599Y-108600000D01*
X157843845Y-109007337D01*
X157613424Y-109563623D01*
X157690982Y-109863816D01*
X159342650Y-109863816D01*
X159342650Y-108600000D01*
X159650650Y-108600000D01*
X159650650Y-109863816D01*
X161302318Y-109863816D01*
X161379876Y-109563623D01*
X161062712Y-108877517D01*
X160761869Y-108600000D01*
X168640762Y-108600000D01*
X170032656Y-109991894D01*
X169950261Y-110190323D01*
X169949740Y-110787059D01*
X170177620Y-111338572D01*
X170599209Y-111760897D01*
X171150323Y-111989739D01*
X171747059Y-111990260D01*
X172298572Y-111762380D01*
X172720897Y-111340791D01*
X172949739Y-110789677D01*
X172950260Y-110192941D01*
X172722380Y-109641428D01*
X172300791Y-109219103D01*
X171749677Y-108990261D01*
X171152941Y-108989740D01*
X170952004Y-109072765D01*
X169369619Y-107490381D01*
X169158745Y-107349478D01*
X169117476Y-107341269D01*
X168910000Y-107300000D01*
X155554058Y-107300000D01*
X155305314Y-107349478D01*
X155094439Y-107490380D01*
X152570135Y-110014685D01*
X152371706Y-109932290D01*
X151774970Y-109931769D01*
X151223457Y-110159649D01*
X150801132Y-110581238D01*
X150572290Y-111132352D01*
X150571769Y-111729088D01*
X141410482Y-111729088D01*
X141443683Y-111649133D01*
X141444204Y-111052397D01*
X141216324Y-110500884D01*
X140794735Y-110078559D01*
X140243621Y-109849717D01*
X139646885Y-109849196D01*
X139095372Y-110077076D01*
X138673047Y-110498665D01*
X138444205Y-111049779D01*
X138443840Y-111468025D01*
X138083904Y-111467711D01*
X137532391Y-111695591D01*
X137175000Y-112052359D01*
X137175000Y-103160180D01*
X139529865Y-100805315D01*
X139728294Y-100887710D01*
X140325030Y-100888231D01*
X140876543Y-100660351D01*
X141298868Y-100238762D01*
X141527710Y-99687648D01*
X141528231Y-99090912D01*
X141300351Y-98539399D01*
X140878762Y-98117074D01*
X140327648Y-97888232D01*
X139936902Y-97887891D01*
X139937241Y-97499922D01*
X139709361Y-96948409D01*
X139287772Y-96526084D01*
X138736658Y-96297242D01*
X138139922Y-96296721D01*
X137588409Y-96524601D01*
X137166084Y-96946190D01*
X136937242Y-97497304D01*
X136936721Y-98094040D01*
X137164601Y-98645553D01*
X137586190Y-99067878D01*
X138137304Y-99296720D01*
X138528050Y-99297061D01*
X138527711Y-99685030D01*
X138610736Y-99885968D01*
X136065381Y-102431323D01*
X135924478Y-102642197D01*
X135924478Y-102642198D01*
X135875000Y-102890942D01*
X116260500Y-102890942D01*
X116260500Y-101256377D01*
X130720124Y-101256377D01*
X131037288Y-101942483D01*
X131592871Y-102454989D01*
X132149157Y-102685410D01*
X132449350Y-102607852D01*
X132449350Y-100956184D01*
X132757350Y-100956184D01*
X132757350Y-102607852D01*
X133057543Y-102685410D01*
X133743649Y-102368246D01*
X134256155Y-101812663D01*
X134486576Y-101256377D01*
X134409018Y-100956184D01*
X132757350Y-100956184D01*
X132449350Y-100956184D01*
X130797682Y-100956184D01*
X130720124Y-101256377D01*
X116260500Y-101256377D01*
X116260500Y-100347991D01*
X130720124Y-100347991D01*
X130797682Y-100648184D01*
X132449350Y-100648184D01*
X132449350Y-98996516D01*
X132757350Y-98996516D01*
X132757350Y-100648184D01*
X134409018Y-100648184D01*
X134486576Y-100347991D01*
X134169412Y-99661885D01*
X133613829Y-99149379D01*
X133057543Y-98918958D01*
X132757350Y-98996516D01*
X132449350Y-98996516D01*
X132149157Y-98918958D01*
X131463051Y-99236122D01*
X130950545Y-99791705D01*
X130720124Y-100347991D01*
X116260500Y-100347991D01*
X116260500Y-97642925D01*
X127167487Y-97642925D01*
X127456135Y-98341507D01*
X127990147Y-98876452D01*
X128688225Y-99166319D01*
X129444091Y-99166979D01*
X130142673Y-98878331D01*
X130677618Y-98344319D01*
X130967485Y-97646241D01*
X130968145Y-96890375D01*
X130791308Y-96462396D01*
X134836161Y-92417543D01*
X139558958Y-92417543D01*
X139876122Y-93103649D01*
X140431705Y-93616155D01*
X140987991Y-93846576D01*
X141288184Y-93769018D01*
X141288184Y-92117350D01*
X141596184Y-92117350D01*
X141596184Y-93769018D01*
X141896377Y-93846576D01*
X142582483Y-93529412D01*
X143094989Y-92973829D01*
X143325410Y-92417543D01*
X148774590Y-92417543D01*
X149091754Y-93103649D01*
X149647337Y-93616155D01*
X150203623Y-93846576D01*
X150503816Y-93769018D01*
X150503816Y-92117350D01*
X150811816Y-92117350D01*
X150811816Y-93769018D01*
X151112009Y-93846576D01*
X151798115Y-93529412D01*
X152310621Y-92973829D01*
X152541042Y-92417543D01*
X152463484Y-92117350D01*
X150811816Y-92117350D01*
X150503816Y-92117350D01*
X148852148Y-92117350D01*
X148774590Y-92417543D01*
X143325410Y-92417543D01*
X143247852Y-92117350D01*
X141596184Y-92117350D01*
X141288184Y-92117350D01*
X139636516Y-92117350D01*
X139558958Y-92417543D01*
X134836161Y-92417543D01*
X135744547Y-91509157D01*
X139558958Y-91509157D01*
X139636516Y-91809350D01*
X141288184Y-91809350D01*
X141288184Y-90157682D01*
X141596184Y-90157682D01*
X141596184Y-91809350D01*
X143247852Y-91809350D01*
X143325410Y-91509157D01*
X148774590Y-91509157D01*
X148852148Y-91809350D01*
X150503816Y-91809350D01*
X150503816Y-90157682D01*
X150811816Y-90157682D01*
X150811816Y-91809350D01*
X152463484Y-91809350D01*
X152541042Y-91509157D01*
X152223878Y-90823051D01*
X151668295Y-90310545D01*
X151112009Y-90080124D01*
X150811816Y-90157682D01*
X150503816Y-90157682D01*
X150203623Y-90080124D01*
X149517517Y-90397288D01*
X149005011Y-90952871D01*
X148774590Y-91509157D01*
X143325410Y-91509157D01*
X143008246Y-90823051D01*
X142452663Y-90310545D01*
X141896377Y-90080124D01*
X141596184Y-90157682D01*
X141288184Y-90157682D01*
X140987991Y-90080124D01*
X140301885Y-90397288D01*
X139789379Y-90952871D01*
X139558958Y-91509157D01*
X135744547Y-91509157D01*
X137102508Y-90151196D01*
X137527059Y-90327485D01*
X138282925Y-90328145D01*
X138981507Y-90039497D01*
X139516452Y-89505485D01*
X139806319Y-88807407D01*
X139806979Y-88051541D01*
X139518331Y-87352959D01*
X138984319Y-86818014D01*
X138286241Y-86528147D01*
X137530375Y-86527487D01*
X136831793Y-86816135D01*
X136296848Y-87350147D01*
X136006981Y-88048225D01*
X136006321Y-88804091D01*
X136183158Y-89232070D01*
X133494809Y-91920419D01*
X133572758Y-91732696D01*
X133573279Y-91135960D01*
X133345399Y-90584447D01*
X132923810Y-90162122D01*
X132372696Y-89933280D01*
X131981950Y-89932939D01*
X131982289Y-89544970D01*
X131754409Y-88993457D01*
X131332820Y-88571132D01*
X130781706Y-88342290D01*
X130184970Y-88341769D01*
X129633457Y-88569649D01*
X129211132Y-88991238D01*
X128982290Y-89542352D01*
X128981769Y-90139088D01*
X129209649Y-90690601D01*
X129631238Y-91112926D01*
X130182352Y-91341768D01*
X130573098Y-91342109D01*
X130572759Y-91730078D01*
X130800639Y-92281591D01*
X131222228Y-92703916D01*
X131773342Y-92932758D01*
X132370078Y-92933279D01*
X132560721Y-92854507D01*
X129871958Y-95543270D01*
X129447407Y-95366981D01*
X128691541Y-95366321D01*
X127992959Y-95654969D01*
X127458014Y-96188981D01*
X127168147Y-96887059D01*
X127167487Y-97642925D01*
X116260500Y-97642925D01*
X116260500Y-84106014D01*
X118598257Y-81768258D01*
X118747939Y-81544243D01*
X118800500Y-81280000D01*
X118800500Y-80910838D01*
X119388000Y-80910838D01*
X119388000Y-81649162D01*
X119484064Y-82132108D01*
X119757631Y-82541531D01*
X120167054Y-82815098D01*
X120650000Y-82911162D01*
X121132946Y-82815098D01*
X121542369Y-82541531D01*
X121815936Y-82132108D01*
X121912000Y-81649162D01*
X121912000Y-80910838D01*
X121928000Y-80910838D01*
X121928000Y-81649162D01*
X122024064Y-82132108D01*
X122297631Y-82541531D01*
X122707054Y-82815098D01*
X123190000Y-82911162D01*
X123672946Y-82815098D01*
X124082369Y-82541531D01*
X124355936Y-82132108D01*
X124452000Y-81649162D01*
X124452000Y-80910838D01*
X124468000Y-80910838D01*
X124468000Y-81649162D01*
X124564064Y-82132108D01*
X124837631Y-82541531D01*
X125115208Y-82727001D01*
X125118657Y-82744343D01*
X125129478Y-82798745D01*
X125270381Y-83009619D01*
X126540380Y-84279619D01*
X126751255Y-84420522D01*
X126792524Y-84428731D01*
X127000000Y-84470000D01*
X143240762Y-84470000D01*
X145590380Y-86819619D01*
X145731283Y-86913767D01*
X145801256Y-86960522D01*
X146050000Y-87010000D01*
X151856296Y-87010000D01*
X152469970Y-87623674D01*
X152293681Y-88048225D01*
X152293021Y-88804091D01*
X152581669Y-89502673D01*
X153115681Y-90037618D01*
X153813759Y-90327485D01*
X154569625Y-90328145D01*
X154997604Y-90151308D01*
X161308804Y-96462508D01*
X161132515Y-96887059D01*
X161131855Y-97642925D01*
X161420503Y-98341507D01*
X161954515Y-98876452D01*
X162652593Y-99166319D01*
X163408459Y-99166979D01*
X164107041Y-98878331D01*
X164641986Y-98344319D01*
X164931853Y-97646241D01*
X164932513Y-96890375D01*
X164643865Y-96191793D01*
X164109853Y-95656848D01*
X163411775Y-95366981D01*
X162655909Y-95366321D01*
X162227930Y-95543158D01*
X159539581Y-92854809D01*
X159727304Y-92932758D01*
X160324040Y-92933279D01*
X160875553Y-92705399D01*
X161297878Y-92283810D01*
X161526720Y-91732696D01*
X161527061Y-91341950D01*
X161915030Y-91342289D01*
X162466543Y-91114409D01*
X162888868Y-90692820D01*
X163117710Y-90141706D01*
X163118231Y-89544970D01*
X162890351Y-88993457D01*
X162468762Y-88571132D01*
X161917648Y-88342290D01*
X161320912Y-88341769D01*
X160769399Y-88569649D01*
X160347074Y-88991238D01*
X160118232Y-89542352D01*
X160117891Y-89933098D01*
X159729922Y-89932759D01*
X159178409Y-90160639D01*
X158756084Y-90582228D01*
X158527242Y-91133342D01*
X158526721Y-91730078D01*
X158605493Y-91920721D01*
X155916730Y-89231958D01*
X156093019Y-88807407D01*
X156093679Y-88051541D01*
X155805031Y-87352959D01*
X155271019Y-86818014D01*
X154572941Y-86528147D01*
X153817075Y-86527487D01*
X153389096Y-86704324D01*
X152585153Y-85900381D01*
X152374279Y-85759478D01*
X152333010Y-85751269D01*
X152125534Y-85710000D01*
X146319239Y-85710000D01*
X143969619Y-83360381D01*
X143758745Y-83219478D01*
X143717476Y-83211269D01*
X143510000Y-83170000D01*
X127269239Y-83170000D01*
X126629739Y-82530501D01*
X126895936Y-82132108D01*
X126992000Y-81649162D01*
X126992000Y-80910838D01*
X127008000Y-80910838D01*
X127008000Y-81649162D01*
X127104064Y-82132108D01*
X127377631Y-82541531D01*
X127787054Y-82815098D01*
X128270000Y-82911162D01*
X128752946Y-82815098D01*
X129162369Y-82541531D01*
X129435936Y-82132108D01*
X129532000Y-81649162D01*
X129532000Y-80910838D01*
X129548000Y-80910838D01*
X129548000Y-81649162D01*
X129644064Y-82132108D01*
X129917631Y-82541531D01*
X130327054Y-82815098D01*
X130810000Y-82911162D01*
X131292946Y-82815098D01*
X131702369Y-82541531D01*
X131975936Y-82132108D01*
X132072000Y-81649162D01*
X132072000Y-80910838D01*
X132088000Y-80910838D01*
X132088000Y-81649162D01*
X132184064Y-82132108D01*
X132457631Y-82541531D01*
X132867054Y-82815098D01*
X133350000Y-82911162D01*
X133832946Y-82815098D01*
X134242369Y-82541531D01*
X134515936Y-82132108D01*
X134612000Y-81649162D01*
X134612000Y-80910838D01*
X137168000Y-80910838D01*
X137168000Y-81649162D01*
X137264064Y-82132108D01*
X137537631Y-82541531D01*
X137947054Y-82815098D01*
X138430000Y-82911162D01*
X138912946Y-82815098D01*
X139322369Y-82541531D01*
X139595936Y-82132108D01*
X139692000Y-81649162D01*
X139692000Y-81434000D01*
X139708000Y-81434000D01*
X139708000Y-81771820D01*
X139862997Y-82243044D01*
X140186525Y-82619083D01*
X140621951Y-82830877D01*
X140816000Y-82744343D01*
X140816000Y-81434000D01*
X141124000Y-81434000D01*
X141124000Y-82744343D01*
X141318049Y-82830877D01*
X141753475Y-82619083D01*
X142077003Y-82243044D01*
X142232000Y-81771820D01*
X142232000Y-81434000D01*
X142248000Y-81434000D01*
X142248000Y-81771820D01*
X142402997Y-82243044D01*
X142726525Y-82619083D01*
X143161951Y-82830877D01*
X143356000Y-82744343D01*
X143356000Y-81434000D01*
X143664000Y-81434000D01*
X143664000Y-82744343D01*
X143858049Y-82830877D01*
X144293475Y-82619083D01*
X144617003Y-82243044D01*
X144772000Y-81771820D01*
X144772000Y-81434000D01*
X143664000Y-81434000D01*
X143356000Y-81434000D01*
X142248000Y-81434000D01*
X142232000Y-81434000D01*
X141124000Y-81434000D01*
X140816000Y-81434000D01*
X139708000Y-81434000D01*
X139692000Y-81434000D01*
X139692000Y-80910838D01*
X139667602Y-80788180D01*
X139708000Y-80788180D01*
X139708000Y-81126000D01*
X140816000Y-81126000D01*
X140816000Y-79815657D01*
X141124000Y-79815657D01*
X141124000Y-81126000D01*
X142232000Y-81126000D01*
X142232000Y-80788180D01*
X142248000Y-80788180D01*
X142248000Y-81126000D01*
X143356000Y-81126000D01*
X143356000Y-79815657D01*
X143664000Y-79815657D01*
X143664000Y-81126000D01*
X144772000Y-81126000D01*
X144772000Y-80910838D01*
X144788000Y-80910838D01*
X144788000Y-81649162D01*
X144884064Y-82132108D01*
X145157631Y-82541531D01*
X145262216Y-82611412D01*
X145288657Y-82744343D01*
X145310896Y-82856147D01*
X145484315Y-83115685D01*
X146754314Y-84385685D01*
X146880500Y-84470000D01*
X147013853Y-84559104D01*
X147320000Y-84620000D01*
X174928630Y-84620000D01*
X177000000Y-86691371D01*
X177000000Y-96520000D01*
X177045698Y-96749739D01*
X177060896Y-96826147D01*
X177234315Y-97085685D01*
X180130415Y-99981786D01*
X180110261Y-100030323D01*
X180109740Y-100627059D01*
X180337620Y-101178572D01*
X180759209Y-101600897D01*
X181310323Y-101829739D01*
X181907059Y-101830260D01*
X182458572Y-101602380D01*
X182880897Y-101180791D01*
X183109739Y-100629677D01*
X183110260Y-100032941D01*
X182882380Y-99481428D01*
X182460791Y-99059103D01*
X181909677Y-98830261D01*
X181312941Y-98829740D01*
X181262113Y-98850742D01*
X178600000Y-96188630D01*
X178600000Y-95547059D01*
X180109740Y-95547059D01*
X180337620Y-96098572D01*
X180759209Y-96520897D01*
X181310323Y-96749739D01*
X181907059Y-96750260D01*
X182458572Y-96522380D01*
X182880897Y-96100791D01*
X183109739Y-95549677D01*
X183110260Y-94952941D01*
X182882380Y-94401428D01*
X182460791Y-93979103D01*
X181909677Y-93750261D01*
X181312941Y-93749740D01*
X180761428Y-93977620D01*
X180339103Y-94399209D01*
X180110261Y-94950323D01*
X180109740Y-95547059D01*
X178600000Y-95547059D01*
X178600000Y-86657059D01*
X178829740Y-86657059D01*
X179057620Y-87208572D01*
X179479209Y-87630897D01*
X180030323Y-87859739D01*
X180627059Y-87860260D01*
X181178572Y-87632380D01*
X181600897Y-87210791D01*
X181829739Y-86659677D01*
X181830260Y-86062941D01*
X181602380Y-85511428D01*
X181180791Y-85089103D01*
X180629677Y-84860261D01*
X180032941Y-84859740D01*
X179481428Y-85087620D01*
X179059103Y-85509209D01*
X178830261Y-86060323D01*
X178829740Y-86657059D01*
X178600000Y-86657059D01*
X178600000Y-86360000D01*
X178539104Y-86053853D01*
X178436556Y-85900380D01*
X178365685Y-85794314D01*
X175825685Y-83254315D01*
X175566147Y-83080896D01*
X175260000Y-83020000D01*
X147651371Y-83020000D01*
X147034707Y-82403337D01*
X147215936Y-82132108D01*
X147312000Y-81649162D01*
X147312000Y-80910838D01*
X147328000Y-80910838D01*
X147328000Y-81649162D01*
X147424064Y-82132108D01*
X147697631Y-82541531D01*
X148107054Y-82815098D01*
X148590000Y-82911162D01*
X149072946Y-82815098D01*
X149482369Y-82541531D01*
X149755936Y-82132108D01*
X149852000Y-81649162D01*
X149852000Y-80910838D01*
X149868000Y-80910838D01*
X149868000Y-81649162D01*
X149964064Y-82132108D01*
X150237631Y-82541531D01*
X150647054Y-82815098D01*
X151130000Y-82911162D01*
X151612946Y-82815098D01*
X152022369Y-82541531D01*
X152295936Y-82132108D01*
X152392000Y-81649162D01*
X152392000Y-80910838D01*
X152408000Y-80910838D01*
X152408000Y-81649162D01*
X152504064Y-82132108D01*
X152777631Y-82541531D01*
X153187054Y-82815098D01*
X153670000Y-82911162D01*
X154152946Y-82815098D01*
X154562369Y-82541531D01*
X154835936Y-82132108D01*
X154932000Y-81649162D01*
X154932000Y-80910838D01*
X154948000Y-80910838D01*
X154948000Y-81649162D01*
X155044064Y-82132108D01*
X155317631Y-82541531D01*
X155727054Y-82815098D01*
X156210000Y-82911162D01*
X156692946Y-82815098D01*
X157102369Y-82541531D01*
X157375936Y-82132108D01*
X157472000Y-81649162D01*
X157472000Y-80910838D01*
X157375936Y-80427892D01*
X157102369Y-80018469D01*
X156692946Y-79744902D01*
X156210000Y-79648838D01*
X155727054Y-79744902D01*
X155317631Y-80018469D01*
X155044064Y-80427892D01*
X154948000Y-80910838D01*
X154932000Y-80910838D01*
X154835936Y-80427892D01*
X154562369Y-80018469D01*
X154152946Y-79744902D01*
X153670000Y-79648838D01*
X153187054Y-79744902D01*
X152777631Y-80018469D01*
X152504064Y-80427892D01*
X152408000Y-80910838D01*
X152392000Y-80910838D01*
X152295936Y-80427892D01*
X152022369Y-80018469D01*
X151612946Y-79744902D01*
X151130000Y-79648838D01*
X150647054Y-79744902D01*
X150237631Y-80018469D01*
X149964064Y-80427892D01*
X149868000Y-80910838D01*
X149852000Y-80910838D01*
X149755936Y-80427892D01*
X149482369Y-80018469D01*
X149072946Y-79744902D01*
X148590000Y-79648838D01*
X148107054Y-79744902D01*
X147697631Y-80018469D01*
X147424064Y-80427892D01*
X147328000Y-80910838D01*
X147312000Y-80910838D01*
X147215936Y-80427892D01*
X146942369Y-80018469D01*
X146532946Y-79744902D01*
X146050000Y-79648838D01*
X145567054Y-79744902D01*
X145157631Y-80018469D01*
X144884064Y-80427892D01*
X144788000Y-80910838D01*
X144772000Y-80910838D01*
X144772000Y-80788180D01*
X144617003Y-80316956D01*
X144293475Y-79940917D01*
X143858049Y-79729123D01*
X143664000Y-79815657D01*
X143356000Y-79815657D01*
X143161951Y-79729123D01*
X142726525Y-79940917D01*
X142402997Y-80316956D01*
X142248000Y-80788180D01*
X142232000Y-80788180D01*
X142077003Y-80316956D01*
X141753475Y-79940917D01*
X141318049Y-79729123D01*
X141124000Y-79815657D01*
X140816000Y-79815657D01*
X140621951Y-79729123D01*
X140186525Y-79940917D01*
X139862997Y-80316956D01*
X139708000Y-80788180D01*
X139667602Y-80788180D01*
X139595936Y-80427892D01*
X139322369Y-80018469D01*
X138912946Y-79744902D01*
X138430000Y-79648838D01*
X137947054Y-79744902D01*
X137537631Y-80018469D01*
X137264064Y-80427892D01*
X137168000Y-80910838D01*
X134612000Y-80910838D01*
X134515936Y-80427892D01*
X134242369Y-80018469D01*
X133832946Y-79744902D01*
X133350000Y-79648838D01*
X132867054Y-79744902D01*
X132457631Y-80018469D01*
X132184064Y-80427892D01*
X132088000Y-80910838D01*
X132072000Y-80910838D01*
X131975936Y-80427892D01*
X131702369Y-80018469D01*
X131292946Y-79744902D01*
X130810000Y-79648838D01*
X130327054Y-79744902D01*
X129917631Y-80018469D01*
X129644064Y-80427892D01*
X129548000Y-80910838D01*
X129532000Y-80910838D01*
X129435936Y-80427892D01*
X129162369Y-80018469D01*
X128752946Y-79744902D01*
X128270000Y-79648838D01*
X127787054Y-79744902D01*
X127377631Y-80018469D01*
X127104064Y-80427892D01*
X127008000Y-80910838D01*
X126992000Y-80910838D01*
X126895936Y-80427892D01*
X126622369Y-80018469D01*
X126212946Y-79744902D01*
X125730000Y-79648838D01*
X125247054Y-79744902D01*
X124837631Y-80018469D01*
X124564064Y-80427892D01*
X124468000Y-80910838D01*
X124452000Y-80910838D01*
X124355936Y-80427892D01*
X124082369Y-80018469D01*
X123672946Y-79744902D01*
X123190000Y-79648838D01*
X122707054Y-79744902D01*
X122297631Y-80018469D01*
X122024064Y-80427892D01*
X121928000Y-80910838D01*
X121912000Y-80910838D01*
X121815936Y-80427892D01*
X121542369Y-80018469D01*
X121132946Y-79744902D01*
X120650000Y-79648838D01*
X120167054Y-79744902D01*
X119757631Y-80018469D01*
X119484064Y-80427892D01*
X119388000Y-80910838D01*
X118800500Y-80910838D01*
X118800500Y-80078007D01*
X118857110Y-79793412D01*
X118979797Y-79609797D01*
X119163411Y-79487110D01*
X119448006Y-79430500D01*
X182811993Y-79430500D01*
X183096588Y-79487110D01*
M02*
