G04 #@! TF.FileFunction,Soldermask,Top*
%FSLAX46Y46*%
G04 Gerber Fmt 4.6, Leading zero omitted, Abs format (unit mm)*
G04 Created by KiCad (PCBNEW 4.0.7) date 05/30/18 00:05:28*
%MOMM*%
%LPD*%
G01*
G04 APERTURE LIST*
%ADD10C,0.100000*%
%ADD11C,0.400000*%
%ADD12C,2.400000*%
%ADD13O,1.924000X2.599640*%
%ADD14O,1.924000X2.597100*%
%ADD15C,3.200000*%
G04 APERTURE END LIST*
D10*
D11*
X170480295Y-130569745D02*
X170927162Y-130636011D01*
X171630596Y-130511976D01*
X171887163Y-130321676D01*
X172003042Y-130156182D01*
X172094115Y-129850001D01*
X172044502Y-129568628D01*
X171854201Y-129312061D01*
X171688708Y-129196181D01*
X171382527Y-129105107D01*
X170794973Y-129063648D01*
X170488792Y-128972575D01*
X170323299Y-128856696D01*
X170132998Y-128600129D01*
X170083385Y-128318755D01*
X170174458Y-128012574D01*
X170290337Y-127847081D01*
X170546904Y-127656781D01*
X171250338Y-127532746D01*
X171697205Y-127599012D01*
X173459525Y-130189487D02*
X172938580Y-127235063D01*
X174725706Y-129966225D02*
X174452830Y-128418669D01*
X174262530Y-128162103D01*
X173956350Y-128071030D01*
X173534289Y-128145451D01*
X173277722Y-128335751D01*
X173161842Y-128501245D01*
X176132575Y-129718156D02*
X175785278Y-127748540D01*
X175611630Y-126763733D02*
X175495750Y-126929226D01*
X175661244Y-127045106D01*
X175777124Y-126879612D01*
X175611630Y-126763733D01*
X175661244Y-127045106D01*
X178640130Y-129130945D02*
X178383564Y-129321246D01*
X177820816Y-129420473D01*
X177514636Y-129329400D01*
X177324335Y-129072833D01*
X177125880Y-127947339D01*
X177216953Y-127641158D01*
X177473520Y-127450858D01*
X178036267Y-127351630D01*
X178342448Y-127442703D01*
X178532748Y-127699270D01*
X178582362Y-127980644D01*
X177225108Y-128510086D01*
X180493866Y-128949143D02*
X180187686Y-128858070D01*
X179997385Y-128601502D01*
X179550861Y-126069140D01*
X182885542Y-128527426D02*
X182364598Y-125573002D01*
X182860736Y-128386739D02*
X182604169Y-128577039D01*
X182041421Y-128676267D01*
X181735241Y-128585194D01*
X181569748Y-128469314D01*
X181379447Y-128212747D01*
X181230606Y-127368625D01*
X181321679Y-127062445D01*
X181437559Y-126896952D01*
X181694125Y-126706651D01*
X182256873Y-126607424D01*
X182563053Y-126698497D01*
X164835639Y-127382341D02*
X165282506Y-127448607D01*
X165985940Y-127324573D01*
X166242506Y-127134272D01*
X166358386Y-126968779D01*
X166449459Y-126662598D01*
X166399845Y-126381224D01*
X166209545Y-126124658D01*
X166044051Y-126008778D01*
X165737871Y-125917704D01*
X165150316Y-125876245D01*
X164844136Y-125785172D01*
X164678643Y-125669292D01*
X164488342Y-125412726D01*
X164438728Y-125131351D01*
X164529801Y-124825171D01*
X164645681Y-124659677D01*
X164902248Y-124469377D01*
X165605682Y-124345343D01*
X166052549Y-124411609D01*
X167814869Y-127002083D02*
X167467572Y-125032468D01*
X167293924Y-124047660D02*
X167178044Y-124213153D01*
X167343538Y-124329033D01*
X167459418Y-124163540D01*
X167293924Y-124047660D01*
X167343538Y-124329033D01*
X169221737Y-126754014D02*
X168874440Y-124784399D01*
X168924054Y-125065772D02*
X169039934Y-124900279D01*
X169296500Y-124709978D01*
X169718561Y-124635558D01*
X170024742Y-124726631D01*
X170215042Y-124983197D01*
X170487918Y-126530753D01*
X170215042Y-124983197D02*
X170306115Y-124677017D01*
X170562681Y-124486716D01*
X170984742Y-124412296D01*
X171290923Y-124503369D01*
X171481223Y-124759935D01*
X171754099Y-126307491D01*
X173583028Y-125985001D02*
X173276847Y-125893928D01*
X173111354Y-125778048D01*
X172921053Y-125521481D01*
X172772212Y-124677360D01*
X172863285Y-124371180D01*
X172979165Y-124205686D01*
X173235731Y-124015386D01*
X173657792Y-123940965D01*
X173963973Y-124032038D01*
X174129466Y-124147918D01*
X174319766Y-124404484D01*
X174468608Y-125248605D01*
X174377535Y-125554786D01*
X174261655Y-125720280D01*
X174005089Y-125910580D01*
X173583028Y-125985001D01*
X175486721Y-123618475D02*
X175834017Y-125588091D01*
X175536335Y-123899849D02*
X175652215Y-123734355D01*
X175908781Y-123544055D01*
X176330842Y-123469634D01*
X176637022Y-123560707D01*
X176827323Y-123817274D01*
X177100199Y-125364829D01*
D12*
X176530000Y-89535000D03*
X176530000Y-83185000D03*
X173990000Y-86360000D03*
X179070000Y-86360000D03*
D13*
X156210000Y-81280000D03*
X153670000Y-81280000D03*
X151130000Y-81280000D03*
X148590000Y-81280000D03*
X146050000Y-81280000D03*
X143510000Y-81280000D03*
X140970000Y-81280000D03*
X138430000Y-81280000D03*
X133350000Y-81280000D03*
X130810000Y-81280000D03*
X128270000Y-81280000D03*
X125730000Y-81280000D03*
X123190000Y-81280000D03*
X120650000Y-81280000D03*
D14*
X120650000Y-129540000D03*
X123190000Y-129540000D03*
X125730000Y-129540000D03*
X128270000Y-129540000D03*
X130810000Y-129540000D03*
X133350000Y-129540000D03*
X135890000Y-129540000D03*
X138430000Y-129540000D03*
X142494000Y-129540000D03*
X145034000Y-129540000D03*
X147574000Y-129540000D03*
X150114000Y-129540000D03*
X152654000Y-129540000D03*
X155194000Y-129540000D03*
X157734000Y-129540000D03*
X160271460Y-129540000D03*
X162814000Y-129540000D03*
X165354000Y-129540000D03*
D12*
X146050000Y-105410000D03*
X147846051Y-107206051D03*
X144253949Y-103613949D03*
X171450000Y-120650000D03*
X181610000Y-120650000D03*
X171450000Y-115570000D03*
X181610000Y-115570000D03*
X171450000Y-110490000D03*
X181610000Y-110490000D03*
X171450000Y-105410000D03*
X181610000Y-105410000D03*
X171450000Y-100330000D03*
X181610000Y-100330000D03*
X171450000Y-95250000D03*
X181610000Y-95250000D03*
D15*
X129067816Y-97266650D03*
X132603350Y-100802184D03*
X141442184Y-91963350D03*
X137906650Y-88427816D03*
D12*
X140027971Y-99387971D03*
X130482029Y-89842029D03*
D15*
X138014228Y-122344964D03*
X141487520Y-118748265D03*
X132495772Y-110065036D03*
X129022480Y-113661735D03*
D12*
X139943944Y-111349456D03*
X130566056Y-121060544D03*
D15*
X163032184Y-113553350D03*
X159496650Y-110017816D03*
X150657816Y-118856650D03*
X154193350Y-122392184D03*
D12*
X152072029Y-111432029D03*
X161617971Y-120977971D03*
D15*
X154193350Y-88427816D03*
X150657816Y-91963350D03*
X159496650Y-100802184D03*
X163032184Y-97266650D03*
D12*
X152072029Y-99387971D03*
X161617971Y-89842029D03*
M02*
