G04 #@! TF.FileFunction,Legend,Bot*
%FSLAX46Y46*%
G04 Gerber Fmt 4.6, Leading zero omitted, Abs format (unit mm)*
G04 Created by KiCad (PCBNEW 4.0.7) date 05/29/18 16:24:36*
%MOMM*%
%LPD*%
G01*
G04 APERTURE LIST*
%ADD10C,0.100000*%
%ADD11C,0.300000*%
%ADD12C,0.002540*%
%ADD13C,0.150000*%
G04 APERTURE END LIST*
D10*
D11*
X177208571Y-84017141D02*
X175708571Y-84017141D01*
X177208571Y-84659998D02*
X176422857Y-84659998D01*
X176280000Y-84588569D01*
X176208571Y-84445712D01*
X176208571Y-84231427D01*
X176280000Y-84088569D01*
X176351429Y-84017141D01*
X176208571Y-85159998D02*
X176208571Y-85731427D01*
X175708571Y-85374284D02*
X176994286Y-85374284D01*
X177137143Y-85445712D01*
X177208571Y-85588570D01*
X177208571Y-85731427D01*
X176208571Y-86017141D02*
X176208571Y-86588570D01*
X175708571Y-86231427D02*
X176994286Y-86231427D01*
X177137143Y-86302855D01*
X177208571Y-86445713D01*
X177208571Y-86588570D01*
X176208571Y-87088570D02*
X177708571Y-87088570D01*
X176280000Y-87088570D02*
X176208571Y-87231427D01*
X176208571Y-87517141D01*
X176280000Y-87659998D01*
X176351429Y-87731427D01*
X176494286Y-87802856D01*
X176922857Y-87802856D01*
X177065714Y-87731427D01*
X177137143Y-87659998D01*
X177208571Y-87517141D01*
X177208571Y-87231427D01*
X177137143Y-87088570D01*
X177137143Y-88374284D02*
X177208571Y-88517141D01*
X177208571Y-88802856D01*
X177137143Y-88945713D01*
X176994286Y-89017141D01*
X176922857Y-89017141D01*
X176780000Y-88945713D01*
X176708571Y-88802856D01*
X176708571Y-88588570D01*
X176637143Y-88445713D01*
X176494286Y-88374284D01*
X176422857Y-88374284D01*
X176280000Y-88445713D01*
X176208571Y-88588570D01*
X176208571Y-88802856D01*
X176280000Y-88945713D01*
X177065714Y-89659999D02*
X177137143Y-89731427D01*
X177208571Y-89659999D01*
X177137143Y-89588570D01*
X177065714Y-89659999D01*
X177208571Y-89659999D01*
X176280000Y-89659999D02*
X176351429Y-89731427D01*
X176422857Y-89659999D01*
X176351429Y-89588570D01*
X176280000Y-89659999D01*
X176422857Y-89659999D01*
X175637143Y-91445713D02*
X177565714Y-90159999D01*
X175637143Y-93017142D02*
X177565714Y-91731428D01*
X177208571Y-93517143D02*
X175708571Y-93517143D01*
X177208571Y-94160000D02*
X176422857Y-94160000D01*
X176280000Y-94088571D01*
X176208571Y-93945714D01*
X176208571Y-93731429D01*
X176280000Y-93588571D01*
X176351429Y-93517143D01*
X177208571Y-95088572D02*
X177137143Y-94945714D01*
X177065714Y-94874286D01*
X176922857Y-94802857D01*
X176494286Y-94802857D01*
X176351429Y-94874286D01*
X176280000Y-94945714D01*
X176208571Y-95088572D01*
X176208571Y-95302857D01*
X176280000Y-95445714D01*
X176351429Y-95517143D01*
X176494286Y-95588572D01*
X176922857Y-95588572D01*
X177065714Y-95517143D01*
X177137143Y-95445714D01*
X177208571Y-95302857D01*
X177208571Y-95088572D01*
X176208571Y-96017143D02*
X176208571Y-96588572D01*
X175708571Y-96231429D02*
X176994286Y-96231429D01*
X177137143Y-96302857D01*
X177208571Y-96445715D01*
X177208571Y-96588572D01*
X176208571Y-96945715D02*
X177208571Y-97231429D01*
X176494286Y-97517143D01*
X177208571Y-97802858D01*
X176208571Y-98088572D01*
X177208571Y-98874287D02*
X177137143Y-98731429D01*
X177065714Y-98660001D01*
X176922857Y-98588572D01*
X176494286Y-98588572D01*
X176351429Y-98660001D01*
X176280000Y-98731429D01*
X176208571Y-98874287D01*
X176208571Y-99088572D01*
X176280000Y-99231429D01*
X176351429Y-99302858D01*
X176494286Y-99374287D01*
X176922857Y-99374287D01*
X177065714Y-99302858D01*
X177137143Y-99231429D01*
X177208571Y-99088572D01*
X177208571Y-98874287D01*
X177208571Y-100231430D02*
X177137143Y-100088572D01*
X176994286Y-100017144D01*
X175708571Y-100017144D01*
X176208571Y-100588572D02*
X176208571Y-101160001D01*
X177208571Y-100802858D02*
X175922857Y-100802858D01*
X175780000Y-100874286D01*
X175708571Y-101017144D01*
X175708571Y-101160001D01*
X177065714Y-101660001D02*
X177137143Y-101731429D01*
X177208571Y-101660001D01*
X177137143Y-101588572D01*
X177065714Y-101660001D01*
X177208571Y-101660001D01*
X176208571Y-103017144D02*
X177422857Y-103017144D01*
X177565714Y-102945715D01*
X177637143Y-102874287D01*
X177708571Y-102731430D01*
X177708571Y-102517144D01*
X177637143Y-102374287D01*
X177137143Y-103017144D02*
X177208571Y-102874287D01*
X177208571Y-102588573D01*
X177137143Y-102445715D01*
X177065714Y-102374287D01*
X176922857Y-102302858D01*
X176494286Y-102302858D01*
X176351429Y-102374287D01*
X176280000Y-102445715D01*
X176208571Y-102588573D01*
X176208571Y-102874287D01*
X176280000Y-103017144D01*
X177208571Y-103731430D02*
X176208571Y-103731430D01*
X175708571Y-103731430D02*
X175780000Y-103660001D01*
X175851429Y-103731430D01*
X175780000Y-103802858D01*
X175708571Y-103731430D01*
X175851429Y-103731430D01*
X176208571Y-104231430D02*
X176208571Y-104802859D01*
X175708571Y-104445716D02*
X176994286Y-104445716D01*
X177137143Y-104517144D01*
X177208571Y-104660002D01*
X177208571Y-104802859D01*
X177208571Y-105302859D02*
X175708571Y-105302859D01*
X177208571Y-105945716D02*
X176422857Y-105945716D01*
X176280000Y-105874287D01*
X176208571Y-105731430D01*
X176208571Y-105517145D01*
X176280000Y-105374287D01*
X176351429Y-105302859D01*
X176208571Y-107302859D02*
X177208571Y-107302859D01*
X176208571Y-106660002D02*
X176994286Y-106660002D01*
X177137143Y-106731430D01*
X177208571Y-106874288D01*
X177208571Y-107088573D01*
X177137143Y-107231430D01*
X177065714Y-107302859D01*
X177208571Y-108017145D02*
X175708571Y-108017145D01*
X176280000Y-108017145D02*
X176208571Y-108160002D01*
X176208571Y-108445716D01*
X176280000Y-108588573D01*
X176351429Y-108660002D01*
X176494286Y-108731431D01*
X176922857Y-108731431D01*
X177065714Y-108660002D01*
X177137143Y-108588573D01*
X177208571Y-108445716D01*
X177208571Y-108160002D01*
X177137143Y-108017145D01*
X177065714Y-109374288D02*
X177137143Y-109445716D01*
X177208571Y-109374288D01*
X177137143Y-109302859D01*
X177065714Y-109374288D01*
X177208571Y-109374288D01*
X177208571Y-110088574D02*
X176208571Y-110088574D01*
X175708571Y-110088574D02*
X175780000Y-110017145D01*
X175851429Y-110088574D01*
X175780000Y-110160002D01*
X175708571Y-110088574D01*
X175851429Y-110088574D01*
X177208571Y-111017146D02*
X177137143Y-110874288D01*
X177065714Y-110802860D01*
X176922857Y-110731431D01*
X176494286Y-110731431D01*
X176351429Y-110802860D01*
X176280000Y-110874288D01*
X176208571Y-111017146D01*
X176208571Y-111231431D01*
X176280000Y-111374288D01*
X176351429Y-111445717D01*
X176494286Y-111517146D01*
X176922857Y-111517146D01*
X177065714Y-111445717D01*
X177137143Y-111374288D01*
X177208571Y-111231431D01*
X177208571Y-111017146D01*
X175637143Y-113231431D02*
X177565714Y-111945717D01*
X177137143Y-113660003D02*
X177208571Y-113874289D01*
X177208571Y-114231432D01*
X177137143Y-114374289D01*
X177065714Y-114445718D01*
X176922857Y-114517146D01*
X176780000Y-114517146D01*
X176637143Y-114445718D01*
X176565714Y-114374289D01*
X176494286Y-114231432D01*
X176422857Y-113945718D01*
X176351429Y-113802860D01*
X176280000Y-113731432D01*
X176137143Y-113660003D01*
X175994286Y-113660003D01*
X175851429Y-113731432D01*
X175780000Y-113802860D01*
X175708571Y-113945718D01*
X175708571Y-114302860D01*
X175780000Y-114517146D01*
X177208571Y-115160003D02*
X176208571Y-115160003D01*
X175708571Y-115160003D02*
X175780000Y-115088574D01*
X175851429Y-115160003D01*
X175780000Y-115231431D01*
X175708571Y-115160003D01*
X175851429Y-115160003D01*
X177208571Y-115874289D02*
X176208571Y-115874289D01*
X176351429Y-115874289D02*
X176280000Y-115945717D01*
X176208571Y-116088575D01*
X176208571Y-116302860D01*
X176280000Y-116445717D01*
X176422857Y-116517146D01*
X177208571Y-116517146D01*
X176422857Y-116517146D02*
X176280000Y-116588575D01*
X176208571Y-116731432D01*
X176208571Y-116945717D01*
X176280000Y-117088575D01*
X176422857Y-117160003D01*
X177208571Y-117160003D01*
X177208571Y-118088575D02*
X177137143Y-117945717D01*
X177065714Y-117874289D01*
X176922857Y-117802860D01*
X176494286Y-117802860D01*
X176351429Y-117874289D01*
X176280000Y-117945717D01*
X176208571Y-118088575D01*
X176208571Y-118302860D01*
X176280000Y-118445717D01*
X176351429Y-118517146D01*
X176494286Y-118588575D01*
X176922857Y-118588575D01*
X177065714Y-118517146D01*
X177137143Y-118445717D01*
X177208571Y-118302860D01*
X177208571Y-118088575D01*
X176208571Y-119231432D02*
X177208571Y-119231432D01*
X176351429Y-119231432D02*
X176280000Y-119302860D01*
X176208571Y-119445718D01*
X176208571Y-119660003D01*
X176280000Y-119802860D01*
X176422857Y-119874289D01*
X177208571Y-119874289D01*
X177137143Y-120517146D02*
X177208571Y-120731432D01*
X177208571Y-121088575D01*
X177137143Y-121231432D01*
X177065714Y-121302861D01*
X176922857Y-121374289D01*
X176780000Y-121374289D01*
X176637143Y-121302861D01*
X176565714Y-121231432D01*
X176494286Y-121088575D01*
X176422857Y-120802861D01*
X176351429Y-120660003D01*
X176280000Y-120588575D01*
X176137143Y-120517146D01*
X175994286Y-120517146D01*
X175851429Y-120588575D01*
X175780000Y-120660003D01*
X175708571Y-120802861D01*
X175708571Y-121160003D01*
X175780000Y-121374289D01*
X177208571Y-122017146D02*
X175708571Y-122017146D01*
X177208571Y-122660003D02*
X176422857Y-122660003D01*
X176280000Y-122588574D01*
X176208571Y-122445717D01*
X176208571Y-122231432D01*
X176280000Y-122088574D01*
X176351429Y-122017146D01*
X177208571Y-123374289D02*
X176208571Y-123374289D01*
X175708571Y-123374289D02*
X175780000Y-123302860D01*
X175851429Y-123374289D01*
X175780000Y-123445717D01*
X175708571Y-123374289D01*
X175851429Y-123374289D01*
X177137143Y-124660003D02*
X177208571Y-124517146D01*
X177208571Y-124231432D01*
X177137143Y-124088575D01*
X176994286Y-124017146D01*
X176422857Y-124017146D01*
X176280000Y-124088575D01*
X176208571Y-124231432D01*
X176208571Y-124517146D01*
X176280000Y-124660003D01*
X176422857Y-124731432D01*
X176565714Y-124731432D01*
X176708571Y-124017146D01*
X177208571Y-125588575D02*
X177137143Y-125445717D01*
X176994286Y-125374289D01*
X175708571Y-125374289D01*
X177208571Y-126802860D02*
X175708571Y-126802860D01*
X177137143Y-126802860D02*
X177208571Y-126660003D01*
X177208571Y-126374289D01*
X177137143Y-126231431D01*
X177065714Y-126160003D01*
X176922857Y-126088574D01*
X176494286Y-126088574D01*
X176351429Y-126160003D01*
X176280000Y-126231431D01*
X176208571Y-126374289D01*
X176208571Y-126660003D01*
X176280000Y-126802860D01*
X119418571Y-98147143D02*
X117918571Y-98147143D01*
X117918571Y-98504286D01*
X117990000Y-98718571D01*
X118132857Y-98861429D01*
X118275714Y-98932857D01*
X118561429Y-99004286D01*
X118775714Y-99004286D01*
X119061429Y-98932857D01*
X119204286Y-98861429D01*
X119347143Y-98718571D01*
X119418571Y-98504286D01*
X119418571Y-98147143D01*
X119418571Y-99647143D02*
X118418571Y-99647143D01*
X117918571Y-99647143D02*
X117990000Y-99575714D01*
X118061429Y-99647143D01*
X117990000Y-99718571D01*
X117918571Y-99647143D01*
X118061429Y-99647143D01*
X119418571Y-100361429D02*
X118418571Y-100361429D01*
X118704286Y-100361429D02*
X118561429Y-100432857D01*
X118490000Y-100504286D01*
X118418571Y-100647143D01*
X118418571Y-100790000D01*
X119418571Y-101290000D02*
X117918571Y-101290000D01*
X118847143Y-101432857D02*
X119418571Y-101861428D01*
X118418571Y-101861428D02*
X118990000Y-101290000D01*
X119418571Y-103647143D02*
X117918571Y-103647143D01*
X118632857Y-103647143D02*
X118632857Y-104504286D01*
X119418571Y-104504286D02*
X117918571Y-104504286D01*
X119347143Y-105790000D02*
X119418571Y-105647143D01*
X119418571Y-105361429D01*
X119347143Y-105218572D01*
X119204286Y-105147143D01*
X118632857Y-105147143D01*
X118490000Y-105218572D01*
X118418571Y-105361429D01*
X118418571Y-105647143D01*
X118490000Y-105790000D01*
X118632857Y-105861429D01*
X118775714Y-105861429D01*
X118918571Y-105147143D01*
X119418571Y-106504286D02*
X118418571Y-106504286D01*
X117918571Y-106504286D02*
X117990000Y-106432857D01*
X118061429Y-106504286D01*
X117990000Y-106575714D01*
X117918571Y-106504286D01*
X118061429Y-106504286D01*
X119347143Y-107147143D02*
X119418571Y-107290000D01*
X119418571Y-107575715D01*
X119347143Y-107718572D01*
X119204286Y-107790000D01*
X119132857Y-107790000D01*
X118990000Y-107718572D01*
X118918571Y-107575715D01*
X118918571Y-107361429D01*
X118847143Y-107218572D01*
X118704286Y-107147143D01*
X118632857Y-107147143D01*
X118490000Y-107218572D01*
X118418571Y-107361429D01*
X118418571Y-107575715D01*
X118490000Y-107718572D01*
X119347143Y-108361429D02*
X119418571Y-108504286D01*
X119418571Y-108790001D01*
X119347143Y-108932858D01*
X119204286Y-109004286D01*
X119132857Y-109004286D01*
X118990000Y-108932858D01*
X118918571Y-108790001D01*
X118918571Y-108575715D01*
X118847143Y-108432858D01*
X118704286Y-108361429D01*
X118632857Y-108361429D01*
X118490000Y-108432858D01*
X118418571Y-108575715D01*
X118418571Y-108790001D01*
X118490000Y-108932858D01*
X118418571Y-109504287D02*
X119418571Y-109790001D01*
X118704286Y-110075715D01*
X119418571Y-110361430D01*
X118418571Y-110647144D01*
X119418571Y-111432859D02*
X119347143Y-111290001D01*
X119275714Y-111218573D01*
X119132857Y-111147144D01*
X118704286Y-111147144D01*
X118561429Y-111218573D01*
X118490000Y-111290001D01*
X118418571Y-111432859D01*
X118418571Y-111647144D01*
X118490000Y-111790001D01*
X118561429Y-111861430D01*
X118704286Y-111932859D01*
X119132857Y-111932859D01*
X119275714Y-111861430D01*
X119347143Y-111790001D01*
X119418571Y-111647144D01*
X119418571Y-111432859D01*
X119418571Y-112790002D02*
X119347143Y-112647144D01*
X119204286Y-112575716D01*
X117918571Y-112575716D01*
X118418571Y-113147144D02*
X118418571Y-113718573D01*
X119418571Y-113361430D02*
X118132857Y-113361430D01*
X117990000Y-113432858D01*
X117918571Y-113575716D01*
X117918571Y-113718573D01*
X120611429Y-98075714D02*
X120540000Y-98147143D01*
X120468571Y-98290000D01*
X120468571Y-98647143D01*
X120540000Y-98790000D01*
X120611429Y-98861429D01*
X120754286Y-98932857D01*
X120897143Y-98932857D01*
X121111429Y-98861429D01*
X121968571Y-98004286D01*
X121968571Y-98932857D01*
X120468571Y-99861428D02*
X120468571Y-100004285D01*
X120540000Y-100147142D01*
X120611429Y-100218571D01*
X120754286Y-100290000D01*
X121040000Y-100361428D01*
X121397143Y-100361428D01*
X121682857Y-100290000D01*
X121825714Y-100218571D01*
X121897143Y-100147142D01*
X121968571Y-100004285D01*
X121968571Y-99861428D01*
X121897143Y-99718571D01*
X121825714Y-99647142D01*
X121682857Y-99575714D01*
X121397143Y-99504285D01*
X121040000Y-99504285D01*
X120754286Y-99575714D01*
X120611429Y-99647142D01*
X120540000Y-99718571D01*
X120468571Y-99861428D01*
X121968571Y-101789999D02*
X121968571Y-100932856D01*
X121968571Y-101361428D02*
X120468571Y-101361428D01*
X120682857Y-101218571D01*
X120825714Y-101075713D01*
X120897143Y-100932856D01*
X121111429Y-102647142D02*
X121040000Y-102504284D01*
X120968571Y-102432856D01*
X120825714Y-102361427D01*
X120754286Y-102361427D01*
X120611429Y-102432856D01*
X120540000Y-102504284D01*
X120468571Y-102647142D01*
X120468571Y-102932856D01*
X120540000Y-103075713D01*
X120611429Y-103147142D01*
X120754286Y-103218570D01*
X120825714Y-103218570D01*
X120968571Y-103147142D01*
X121040000Y-103075713D01*
X121111429Y-102932856D01*
X121111429Y-102647142D01*
X121182857Y-102504284D01*
X121254286Y-102432856D01*
X121397143Y-102361427D01*
X121682857Y-102361427D01*
X121825714Y-102432856D01*
X121897143Y-102504284D01*
X121968571Y-102647142D01*
X121968571Y-102932856D01*
X121897143Y-103075713D01*
X121825714Y-103147142D01*
X121682857Y-103218570D01*
X121397143Y-103218570D01*
X121254286Y-103147142D01*
X121182857Y-103075713D01*
X121111429Y-102932856D01*
X120820571Y-122051144D02*
X120106286Y-121551144D01*
X120820571Y-121194001D02*
X119320571Y-121194001D01*
X119320571Y-121765429D01*
X119392000Y-121908287D01*
X119463429Y-121979715D01*
X119606286Y-122051144D01*
X119820571Y-122051144D01*
X119963429Y-121979715D01*
X120034857Y-121908287D01*
X120106286Y-121765429D01*
X120106286Y-121194001D01*
X120749143Y-123265429D02*
X120820571Y-123122572D01*
X120820571Y-122836858D01*
X120749143Y-122694001D01*
X120606286Y-122622572D01*
X120034857Y-122622572D01*
X119892000Y-122694001D01*
X119820571Y-122836858D01*
X119820571Y-123122572D01*
X119892000Y-123265429D01*
X120034857Y-123336858D01*
X120177714Y-123336858D01*
X120320571Y-122622572D01*
X119820571Y-123836858D02*
X120820571Y-124194001D01*
X119820571Y-124551143D01*
X120392000Y-125051143D02*
X120392000Y-125765429D01*
X120820571Y-124908286D02*
X119320571Y-125408286D01*
X120820571Y-125908286D01*
D12*
G36*
X122120660Y-97208340D02*
X122120660Y-97094040D01*
X120779540Y-97094040D01*
X119313960Y-97094040D01*
X117843300Y-97094040D01*
X117805200Y-97055940D01*
X117769640Y-97017840D01*
X117769640Y-92207080D01*
X117769640Y-87398860D01*
X117805200Y-87360760D01*
X117843300Y-87322660D01*
X119313960Y-87322660D01*
X120779540Y-87325200D01*
X120782080Y-87551260D01*
X120782080Y-87777320D01*
X120911620Y-87861140D01*
X121079260Y-87983060D01*
X121231660Y-88125300D01*
X121368820Y-88285320D01*
X121488200Y-88460580D01*
X121587260Y-88648540D01*
X121666000Y-88846660D01*
X121721880Y-89052400D01*
X121749820Y-89217500D01*
X121757440Y-89303860D01*
X121759980Y-89405460D01*
X121757440Y-89517220D01*
X121749820Y-89626440D01*
X121737120Y-89725500D01*
X121726960Y-89786460D01*
X121671080Y-90002360D01*
X121592340Y-90205560D01*
X121495820Y-90393520D01*
X121373900Y-90571320D01*
X121229120Y-90736420D01*
X121160540Y-90805000D01*
X121099580Y-90860880D01*
X121028460Y-90916760D01*
X120957340Y-90970100D01*
X120911620Y-91003120D01*
X120782080Y-91084400D01*
X120782080Y-94086680D01*
X120779540Y-97094040D01*
X122120660Y-97094040D01*
X122120660Y-97078800D01*
X122019060Y-97078800D01*
X121457720Y-97078800D01*
X120896380Y-97078800D01*
X120896380Y-94122240D01*
X120896380Y-91168220D01*
X121013220Y-91089480D01*
X121150380Y-90992960D01*
X121269760Y-90896440D01*
X121368820Y-90797380D01*
X121457720Y-90693240D01*
X121536460Y-90576400D01*
X121587260Y-90490040D01*
X121658380Y-90350340D01*
X121716800Y-90225880D01*
X121765060Y-90109040D01*
X121803160Y-89989660D01*
X121833640Y-89865200D01*
X121833640Y-89860120D01*
X121869200Y-89677240D01*
X121884440Y-89504520D01*
X121884440Y-89339420D01*
X121866660Y-89171780D01*
X121833640Y-89001600D01*
X121775220Y-88806020D01*
X121693940Y-88610440D01*
X121584720Y-88409780D01*
X121452640Y-88209120D01*
X121404380Y-88140540D01*
X121361200Y-88089740D01*
X121302780Y-88028780D01*
X121236740Y-87965280D01*
X121168160Y-87899240D01*
X121094500Y-87835740D01*
X121028460Y-87782400D01*
X120970040Y-87739220D01*
X120934480Y-87716360D01*
X120896380Y-87696040D01*
X120896380Y-87503000D01*
X120896380Y-87309960D01*
X121457720Y-87309960D01*
X122019060Y-87309960D01*
X122019060Y-92196920D01*
X122019060Y-97078800D01*
X122120660Y-97078800D01*
X122120660Y-92214700D01*
X122120660Y-87223600D01*
X121940320Y-87215980D01*
X121902220Y-87213440D01*
X121843800Y-87213440D01*
X121762520Y-87213440D01*
X121663460Y-87213440D01*
X121546620Y-87210900D01*
X121414540Y-87210900D01*
X121267220Y-87210900D01*
X121107200Y-87210900D01*
X120937020Y-87210900D01*
X120756680Y-87210900D01*
X120568720Y-87210900D01*
X120375680Y-87210900D01*
X120177560Y-87210900D01*
X119976900Y-87210900D01*
X119776240Y-87210900D01*
X119573040Y-87210900D01*
X119372380Y-87213440D01*
X119176800Y-87213440D01*
X118983760Y-87213440D01*
X118798340Y-87213440D01*
X118623080Y-87215980D01*
X118455440Y-87215980D01*
X118300500Y-87218520D01*
X118158260Y-87218520D01*
X118031260Y-87218520D01*
X117922040Y-87221060D01*
X117828060Y-87221060D01*
X117756940Y-87223600D01*
X117703600Y-87223600D01*
X117675660Y-87226140D01*
X117670580Y-87226140D01*
X117670580Y-87238840D01*
X117670580Y-87276940D01*
X117668040Y-87337900D01*
X117668040Y-87421720D01*
X117668040Y-87525860D01*
X117668040Y-87652860D01*
X117665500Y-87795100D01*
X117665500Y-87957660D01*
X117665500Y-88138000D01*
X117665500Y-88333580D01*
X117662960Y-88544400D01*
X117662960Y-88767920D01*
X117662960Y-89006680D01*
X117662960Y-89255600D01*
X117662960Y-89514680D01*
X117660420Y-89783920D01*
X117660420Y-90060780D01*
X117660420Y-90347800D01*
X117660420Y-90637360D01*
X117660420Y-90934540D01*
X117660420Y-91236800D01*
X117657880Y-91541600D01*
X117657880Y-91848940D01*
X117657880Y-92158820D01*
X117657880Y-92463620D01*
X117657880Y-92770960D01*
X117657880Y-93075760D01*
X117657880Y-93378020D01*
X117657880Y-93677740D01*
X117657880Y-93969840D01*
X117657880Y-94256860D01*
X117657880Y-94536260D01*
X117657880Y-94808040D01*
X117657880Y-95069660D01*
X117657880Y-95321120D01*
X117657880Y-95559880D01*
X117657880Y-95785940D01*
X117657880Y-95999300D01*
X117657880Y-96197420D01*
X117657880Y-96380300D01*
X117657880Y-96547940D01*
X117660420Y-96695260D01*
X117660420Y-96824800D01*
X117660420Y-96931480D01*
X117660420Y-97020380D01*
X117662960Y-97086420D01*
X117662960Y-97129600D01*
X117662960Y-97147380D01*
X117670580Y-97208340D01*
X119895620Y-97208340D01*
X122120660Y-97208340D01*
X122120660Y-97208340D01*
X122120660Y-97208340D01*
G37*
X122120660Y-97208340D02*
X122120660Y-97094040D01*
X120779540Y-97094040D01*
X119313960Y-97094040D01*
X117843300Y-97094040D01*
X117805200Y-97055940D01*
X117769640Y-97017840D01*
X117769640Y-92207080D01*
X117769640Y-87398860D01*
X117805200Y-87360760D01*
X117843300Y-87322660D01*
X119313960Y-87322660D01*
X120779540Y-87325200D01*
X120782080Y-87551260D01*
X120782080Y-87777320D01*
X120911620Y-87861140D01*
X121079260Y-87983060D01*
X121231660Y-88125300D01*
X121368820Y-88285320D01*
X121488200Y-88460580D01*
X121587260Y-88648540D01*
X121666000Y-88846660D01*
X121721880Y-89052400D01*
X121749820Y-89217500D01*
X121757440Y-89303860D01*
X121759980Y-89405460D01*
X121757440Y-89517220D01*
X121749820Y-89626440D01*
X121737120Y-89725500D01*
X121726960Y-89786460D01*
X121671080Y-90002360D01*
X121592340Y-90205560D01*
X121495820Y-90393520D01*
X121373900Y-90571320D01*
X121229120Y-90736420D01*
X121160540Y-90805000D01*
X121099580Y-90860880D01*
X121028460Y-90916760D01*
X120957340Y-90970100D01*
X120911620Y-91003120D01*
X120782080Y-91084400D01*
X120782080Y-94086680D01*
X120779540Y-97094040D01*
X122120660Y-97094040D01*
X122120660Y-97078800D01*
X122019060Y-97078800D01*
X121457720Y-97078800D01*
X120896380Y-97078800D01*
X120896380Y-94122240D01*
X120896380Y-91168220D01*
X121013220Y-91089480D01*
X121150380Y-90992960D01*
X121269760Y-90896440D01*
X121368820Y-90797380D01*
X121457720Y-90693240D01*
X121536460Y-90576400D01*
X121587260Y-90490040D01*
X121658380Y-90350340D01*
X121716800Y-90225880D01*
X121765060Y-90109040D01*
X121803160Y-89989660D01*
X121833640Y-89865200D01*
X121833640Y-89860120D01*
X121869200Y-89677240D01*
X121884440Y-89504520D01*
X121884440Y-89339420D01*
X121866660Y-89171780D01*
X121833640Y-89001600D01*
X121775220Y-88806020D01*
X121693940Y-88610440D01*
X121584720Y-88409780D01*
X121452640Y-88209120D01*
X121404380Y-88140540D01*
X121361200Y-88089740D01*
X121302780Y-88028780D01*
X121236740Y-87965280D01*
X121168160Y-87899240D01*
X121094500Y-87835740D01*
X121028460Y-87782400D01*
X120970040Y-87739220D01*
X120934480Y-87716360D01*
X120896380Y-87696040D01*
X120896380Y-87503000D01*
X120896380Y-87309960D01*
X121457720Y-87309960D01*
X122019060Y-87309960D01*
X122019060Y-92196920D01*
X122019060Y-97078800D01*
X122120660Y-97078800D01*
X122120660Y-92214700D01*
X122120660Y-87223600D01*
X121940320Y-87215980D01*
X121902220Y-87213440D01*
X121843800Y-87213440D01*
X121762520Y-87213440D01*
X121663460Y-87213440D01*
X121546620Y-87210900D01*
X121414540Y-87210900D01*
X121267220Y-87210900D01*
X121107200Y-87210900D01*
X120937020Y-87210900D01*
X120756680Y-87210900D01*
X120568720Y-87210900D01*
X120375680Y-87210900D01*
X120177560Y-87210900D01*
X119976900Y-87210900D01*
X119776240Y-87210900D01*
X119573040Y-87210900D01*
X119372380Y-87213440D01*
X119176800Y-87213440D01*
X118983760Y-87213440D01*
X118798340Y-87213440D01*
X118623080Y-87215980D01*
X118455440Y-87215980D01*
X118300500Y-87218520D01*
X118158260Y-87218520D01*
X118031260Y-87218520D01*
X117922040Y-87221060D01*
X117828060Y-87221060D01*
X117756940Y-87223600D01*
X117703600Y-87223600D01*
X117675660Y-87226140D01*
X117670580Y-87226140D01*
X117670580Y-87238840D01*
X117670580Y-87276940D01*
X117668040Y-87337900D01*
X117668040Y-87421720D01*
X117668040Y-87525860D01*
X117668040Y-87652860D01*
X117665500Y-87795100D01*
X117665500Y-87957660D01*
X117665500Y-88138000D01*
X117665500Y-88333580D01*
X117662960Y-88544400D01*
X117662960Y-88767920D01*
X117662960Y-89006680D01*
X117662960Y-89255600D01*
X117662960Y-89514680D01*
X117660420Y-89783920D01*
X117660420Y-90060780D01*
X117660420Y-90347800D01*
X117660420Y-90637360D01*
X117660420Y-90934540D01*
X117660420Y-91236800D01*
X117657880Y-91541600D01*
X117657880Y-91848940D01*
X117657880Y-92158820D01*
X117657880Y-92463620D01*
X117657880Y-92770960D01*
X117657880Y-93075760D01*
X117657880Y-93378020D01*
X117657880Y-93677740D01*
X117657880Y-93969840D01*
X117657880Y-94256860D01*
X117657880Y-94536260D01*
X117657880Y-94808040D01*
X117657880Y-95069660D01*
X117657880Y-95321120D01*
X117657880Y-95559880D01*
X117657880Y-95785940D01*
X117657880Y-95999300D01*
X117657880Y-96197420D01*
X117657880Y-96380300D01*
X117657880Y-96547940D01*
X117660420Y-96695260D01*
X117660420Y-96824800D01*
X117660420Y-96931480D01*
X117660420Y-97020380D01*
X117662960Y-97086420D01*
X117662960Y-97129600D01*
X117662960Y-97147380D01*
X117670580Y-97208340D01*
X119895620Y-97208340D01*
X122120660Y-97208340D01*
X122120660Y-97208340D01*
G36*
X121663460Y-95341440D02*
X121711720Y-95328740D01*
X121757440Y-95300800D01*
X121770140Y-95290640D01*
X121810780Y-95239840D01*
X121841260Y-95171260D01*
X121856500Y-95092520D01*
X121859040Y-95013780D01*
X121856500Y-95003620D01*
X121836180Y-94914720D01*
X121798080Y-94843600D01*
X121747280Y-94790260D01*
X121681240Y-94757240D01*
X121673620Y-94754700D01*
X121635520Y-94747080D01*
X121612660Y-94754700D01*
X121599960Y-94777560D01*
X121599960Y-94820740D01*
X121599960Y-94830900D01*
X121605040Y-94871540D01*
X121612660Y-94894400D01*
X121627900Y-94904560D01*
X121648220Y-94912180D01*
X121693940Y-94940120D01*
X121721880Y-94983300D01*
X121737120Y-95036640D01*
X121732040Y-95097600D01*
X121719340Y-95133160D01*
X121696480Y-95171260D01*
X121668540Y-95186500D01*
X121632980Y-95183960D01*
X121615200Y-95176340D01*
X121597420Y-95158560D01*
X121582180Y-95125540D01*
X121561860Y-95077280D01*
X121541540Y-95008700D01*
X121528840Y-94970600D01*
X121508520Y-94912180D01*
X121490740Y-94869000D01*
X121470420Y-94838520D01*
X121452640Y-94820740D01*
X121394220Y-94785180D01*
X121338340Y-94772480D01*
X121279920Y-94777560D01*
X121229120Y-94802960D01*
X121183400Y-94846140D01*
X121147840Y-94899480D01*
X121124980Y-94965520D01*
X121117360Y-95039180D01*
X121124980Y-95110300D01*
X121147840Y-95194120D01*
X121185940Y-95255080D01*
X121236740Y-95293180D01*
X121300240Y-95313500D01*
X121302780Y-95313500D01*
X121356120Y-95321120D01*
X121356120Y-95247460D01*
X121353580Y-95206820D01*
X121348500Y-95183960D01*
X121338340Y-95171260D01*
X121315480Y-95161100D01*
X121277380Y-95135700D01*
X121251980Y-95095060D01*
X121241820Y-95046800D01*
X121246900Y-94998540D01*
X121269760Y-94955360D01*
X121272300Y-94952820D01*
X121300240Y-94927420D01*
X121320560Y-94924880D01*
X121345960Y-94937580D01*
X121353580Y-94942660D01*
X121371360Y-94970600D01*
X121394220Y-95023940D01*
X121417080Y-95100140D01*
X121417080Y-95105220D01*
X121445020Y-95191580D01*
X121472960Y-95252540D01*
X121503440Y-95295720D01*
X121544080Y-95323660D01*
X121592340Y-95338900D01*
X121602500Y-95338900D01*
X121663460Y-95341440D01*
X121663460Y-95341440D01*
X121663460Y-95341440D01*
G37*
X121663460Y-95341440D02*
X121711720Y-95328740D01*
X121757440Y-95300800D01*
X121770140Y-95290640D01*
X121810780Y-95239840D01*
X121841260Y-95171260D01*
X121856500Y-95092520D01*
X121859040Y-95013780D01*
X121856500Y-95003620D01*
X121836180Y-94914720D01*
X121798080Y-94843600D01*
X121747280Y-94790260D01*
X121681240Y-94757240D01*
X121673620Y-94754700D01*
X121635520Y-94747080D01*
X121612660Y-94754700D01*
X121599960Y-94777560D01*
X121599960Y-94820740D01*
X121599960Y-94830900D01*
X121605040Y-94871540D01*
X121612660Y-94894400D01*
X121627900Y-94904560D01*
X121648220Y-94912180D01*
X121693940Y-94940120D01*
X121721880Y-94983300D01*
X121737120Y-95036640D01*
X121732040Y-95097600D01*
X121719340Y-95133160D01*
X121696480Y-95171260D01*
X121668540Y-95186500D01*
X121632980Y-95183960D01*
X121615200Y-95176340D01*
X121597420Y-95158560D01*
X121582180Y-95125540D01*
X121561860Y-95077280D01*
X121541540Y-95008700D01*
X121528840Y-94970600D01*
X121508520Y-94912180D01*
X121490740Y-94869000D01*
X121470420Y-94838520D01*
X121452640Y-94820740D01*
X121394220Y-94785180D01*
X121338340Y-94772480D01*
X121279920Y-94777560D01*
X121229120Y-94802960D01*
X121183400Y-94846140D01*
X121147840Y-94899480D01*
X121124980Y-94965520D01*
X121117360Y-95039180D01*
X121124980Y-95110300D01*
X121147840Y-95194120D01*
X121185940Y-95255080D01*
X121236740Y-95293180D01*
X121300240Y-95313500D01*
X121302780Y-95313500D01*
X121356120Y-95321120D01*
X121356120Y-95247460D01*
X121353580Y-95206820D01*
X121348500Y-95183960D01*
X121338340Y-95171260D01*
X121315480Y-95161100D01*
X121277380Y-95135700D01*
X121251980Y-95095060D01*
X121241820Y-95046800D01*
X121246900Y-94998540D01*
X121269760Y-94955360D01*
X121272300Y-94952820D01*
X121300240Y-94927420D01*
X121320560Y-94924880D01*
X121345960Y-94937580D01*
X121353580Y-94942660D01*
X121371360Y-94970600D01*
X121394220Y-95023940D01*
X121417080Y-95100140D01*
X121417080Y-95105220D01*
X121445020Y-95191580D01*
X121472960Y-95252540D01*
X121503440Y-95295720D01*
X121544080Y-95323660D01*
X121592340Y-95338900D01*
X121602500Y-95338900D01*
X121663460Y-95341440D01*
X121663460Y-95341440D01*
G36*
X121663460Y-92618560D02*
X121729500Y-92598240D01*
X121782840Y-92557600D01*
X121815860Y-92501720D01*
X121826020Y-92478860D01*
X121831100Y-92456000D01*
X121622820Y-92456000D01*
X121584720Y-92450920D01*
X121559320Y-92435680D01*
X121556780Y-92430600D01*
X121330720Y-92430600D01*
X121295160Y-92417900D01*
X121285000Y-92410280D01*
X121274840Y-92389960D01*
X121269760Y-92356940D01*
X121267220Y-92301060D01*
X121267220Y-92290900D01*
X121267220Y-92194380D01*
X121307860Y-92189300D01*
X121348500Y-92186760D01*
X121384060Y-92186760D01*
X121401840Y-92191840D01*
X121412000Y-92199460D01*
X121417080Y-92214700D01*
X121419620Y-92250260D01*
X121419620Y-92280740D01*
X121417080Y-92346780D01*
X121406920Y-92389960D01*
X121399300Y-92402660D01*
X121368820Y-92425520D01*
X121330720Y-92430600D01*
X121556780Y-92430600D01*
X121544080Y-92405200D01*
X121536460Y-92354400D01*
X121533920Y-92293440D01*
X121533920Y-92191840D01*
X121622820Y-92191840D01*
X121714260Y-92191840D01*
X121714260Y-92298520D01*
X121711720Y-92359480D01*
X121706640Y-92397580D01*
X121699020Y-92422980D01*
X121691400Y-92433140D01*
X121658380Y-92450920D01*
X121622820Y-92456000D01*
X121831100Y-92456000D01*
X121831100Y-92450920D01*
X121836180Y-92415360D01*
X121838720Y-92364560D01*
X121841260Y-92298520D01*
X121841260Y-92235020D01*
X121841260Y-92024200D01*
X121490740Y-92024200D01*
X121137680Y-92024200D01*
X121137680Y-92232480D01*
X121140220Y-92326460D01*
X121142760Y-92395040D01*
X121147840Y-92448380D01*
X121158000Y-92486480D01*
X121170700Y-92516960D01*
X121191020Y-92539820D01*
X121198640Y-92549980D01*
X121234200Y-92567760D01*
X121285000Y-92580460D01*
X121335800Y-92583000D01*
X121361200Y-92577920D01*
X121394220Y-92562680D01*
X121427240Y-92537280D01*
X121429780Y-92534740D01*
X121450100Y-92514420D01*
X121462800Y-92511880D01*
X121467880Y-92519500D01*
X121490740Y-92555060D01*
X121528840Y-92588080D01*
X121572020Y-92610940D01*
X121589800Y-92616020D01*
X121663460Y-92618560D01*
X121663460Y-92618560D01*
X121663460Y-92618560D01*
G37*
X121663460Y-92618560D02*
X121729500Y-92598240D01*
X121782840Y-92557600D01*
X121815860Y-92501720D01*
X121826020Y-92478860D01*
X121831100Y-92456000D01*
X121622820Y-92456000D01*
X121584720Y-92450920D01*
X121559320Y-92435680D01*
X121556780Y-92430600D01*
X121330720Y-92430600D01*
X121295160Y-92417900D01*
X121285000Y-92410280D01*
X121274840Y-92389960D01*
X121269760Y-92356940D01*
X121267220Y-92301060D01*
X121267220Y-92290900D01*
X121267220Y-92194380D01*
X121307860Y-92189300D01*
X121348500Y-92186760D01*
X121384060Y-92186760D01*
X121401840Y-92191840D01*
X121412000Y-92199460D01*
X121417080Y-92214700D01*
X121419620Y-92250260D01*
X121419620Y-92280740D01*
X121417080Y-92346780D01*
X121406920Y-92389960D01*
X121399300Y-92402660D01*
X121368820Y-92425520D01*
X121330720Y-92430600D01*
X121556780Y-92430600D01*
X121544080Y-92405200D01*
X121536460Y-92354400D01*
X121533920Y-92293440D01*
X121533920Y-92191840D01*
X121622820Y-92191840D01*
X121714260Y-92191840D01*
X121714260Y-92298520D01*
X121711720Y-92359480D01*
X121706640Y-92397580D01*
X121699020Y-92422980D01*
X121691400Y-92433140D01*
X121658380Y-92450920D01*
X121622820Y-92456000D01*
X121831100Y-92456000D01*
X121831100Y-92450920D01*
X121836180Y-92415360D01*
X121838720Y-92364560D01*
X121841260Y-92298520D01*
X121841260Y-92235020D01*
X121841260Y-92024200D01*
X121490740Y-92024200D01*
X121137680Y-92024200D01*
X121137680Y-92232480D01*
X121140220Y-92326460D01*
X121142760Y-92395040D01*
X121147840Y-92448380D01*
X121158000Y-92486480D01*
X121170700Y-92516960D01*
X121191020Y-92539820D01*
X121198640Y-92549980D01*
X121234200Y-92567760D01*
X121285000Y-92580460D01*
X121335800Y-92583000D01*
X121361200Y-92577920D01*
X121394220Y-92562680D01*
X121427240Y-92537280D01*
X121429780Y-92534740D01*
X121450100Y-92514420D01*
X121462800Y-92511880D01*
X121467880Y-92519500D01*
X121490740Y-92555060D01*
X121528840Y-92588080D01*
X121572020Y-92610940D01*
X121589800Y-92616020D01*
X121663460Y-92618560D01*
X121663460Y-92618560D01*
G36*
X121137680Y-93324680D02*
X121361200Y-93190060D01*
X121584720Y-93055440D01*
X121711720Y-93055440D01*
X121841260Y-93055440D01*
X121841260Y-92979240D01*
X121841260Y-92903040D01*
X121706640Y-92903040D01*
X121569480Y-92903040D01*
X121363740Y-92778580D01*
X121297700Y-92740480D01*
X121239280Y-92707460D01*
X121193560Y-92679520D01*
X121163080Y-92659200D01*
X121147840Y-92651580D01*
X121142760Y-92661740D01*
X121140220Y-92689680D01*
X121137680Y-92730320D01*
X121137680Y-92735400D01*
X121137680Y-92824300D01*
X121274840Y-92903040D01*
X121335800Y-92941140D01*
X121373900Y-92966540D01*
X121394220Y-92984320D01*
X121391680Y-92994480D01*
X121373900Y-93004640D01*
X121340880Y-93024960D01*
X121295160Y-93050360D01*
X121259600Y-93073220D01*
X121145300Y-93139260D01*
X121140220Y-93230700D01*
X121137680Y-93324680D01*
X121137680Y-93324680D01*
X121137680Y-93324680D01*
G37*
X121137680Y-93324680D02*
X121361200Y-93190060D01*
X121584720Y-93055440D01*
X121711720Y-93055440D01*
X121841260Y-93055440D01*
X121841260Y-92979240D01*
X121841260Y-92903040D01*
X121706640Y-92903040D01*
X121569480Y-92903040D01*
X121363740Y-92778580D01*
X121297700Y-92740480D01*
X121239280Y-92707460D01*
X121193560Y-92679520D01*
X121163080Y-92659200D01*
X121147840Y-92651580D01*
X121142760Y-92661740D01*
X121140220Y-92689680D01*
X121137680Y-92730320D01*
X121137680Y-92735400D01*
X121137680Y-92824300D01*
X121274840Y-92903040D01*
X121335800Y-92941140D01*
X121373900Y-92966540D01*
X121394220Y-92984320D01*
X121391680Y-92994480D01*
X121373900Y-93004640D01*
X121340880Y-93024960D01*
X121295160Y-93050360D01*
X121259600Y-93073220D01*
X121145300Y-93139260D01*
X121140220Y-93230700D01*
X121137680Y-93324680D01*
X121137680Y-93324680D01*
G36*
X121831100Y-96045020D02*
X121836180Y-96034860D01*
X121838720Y-96001840D01*
X121841260Y-95963740D01*
X121841260Y-95882460D01*
X121765060Y-95859600D01*
X121688860Y-95836740D01*
X121688860Y-95788480D01*
X121559320Y-95788480D01*
X121445020Y-95747840D01*
X121396760Y-95732600D01*
X121358660Y-95714820D01*
X121340880Y-95704660D01*
X121338340Y-95702120D01*
X121353580Y-95691960D01*
X121386600Y-95679260D01*
X121429780Y-95664020D01*
X121475500Y-95648780D01*
X121516140Y-95633540D01*
X121544080Y-95625920D01*
X121551700Y-95623380D01*
X121556780Y-95636080D01*
X121559320Y-95666560D01*
X121559320Y-95704660D01*
X121559320Y-95788480D01*
X121688860Y-95788480D01*
X121688860Y-95704660D01*
X121688860Y-95575120D01*
X121765060Y-95547180D01*
X121841260Y-95519240D01*
X121841260Y-95437960D01*
X121841260Y-95359220D01*
X121493280Y-95491300D01*
X121145300Y-95620840D01*
X121145300Y-95707200D01*
X121145300Y-95791020D01*
X121483120Y-95918020D01*
X121572020Y-95951040D01*
X121650760Y-95981520D01*
X121719340Y-96006920D01*
X121775220Y-96024700D01*
X121813320Y-96039940D01*
X121831100Y-96045020D01*
X121831100Y-96045020D01*
X121831100Y-96045020D01*
X121831100Y-96045020D01*
G37*
X121831100Y-96045020D02*
X121836180Y-96034860D01*
X121838720Y-96001840D01*
X121841260Y-95963740D01*
X121841260Y-95882460D01*
X121765060Y-95859600D01*
X121688860Y-95836740D01*
X121688860Y-95788480D01*
X121559320Y-95788480D01*
X121445020Y-95747840D01*
X121396760Y-95732600D01*
X121358660Y-95714820D01*
X121340880Y-95704660D01*
X121338340Y-95702120D01*
X121353580Y-95691960D01*
X121386600Y-95679260D01*
X121429780Y-95664020D01*
X121475500Y-95648780D01*
X121516140Y-95633540D01*
X121544080Y-95625920D01*
X121551700Y-95623380D01*
X121556780Y-95636080D01*
X121559320Y-95666560D01*
X121559320Y-95704660D01*
X121559320Y-95788480D01*
X121688860Y-95788480D01*
X121688860Y-95704660D01*
X121688860Y-95575120D01*
X121765060Y-95547180D01*
X121841260Y-95519240D01*
X121841260Y-95437960D01*
X121841260Y-95359220D01*
X121493280Y-95491300D01*
X121145300Y-95620840D01*
X121145300Y-95707200D01*
X121145300Y-95791020D01*
X121483120Y-95918020D01*
X121572020Y-95951040D01*
X121650760Y-95981520D01*
X121719340Y-96006920D01*
X121775220Y-96024700D01*
X121813320Y-96039940D01*
X121831100Y-96045020D01*
X121831100Y-96045020D01*
X121831100Y-96045020D01*
G36*
X119712740Y-91089480D02*
X119804180Y-91089480D01*
X119926100Y-91084400D01*
X120032780Y-91074240D01*
X120126760Y-91056460D01*
X120218200Y-91033600D01*
X120312180Y-91003120D01*
X120378220Y-90977720D01*
X120543320Y-90898980D01*
X120700800Y-90797380D01*
X120703340Y-90794840D01*
X119712740Y-90794840D01*
X119534940Y-90782140D01*
X119362220Y-90744040D01*
X119194580Y-90685620D01*
X119037100Y-90606880D01*
X118892320Y-90505280D01*
X118757700Y-90385900D01*
X118638320Y-90246200D01*
X118536720Y-90088720D01*
X118531640Y-90081100D01*
X118460520Y-89928700D01*
X118409720Y-89763600D01*
X118381780Y-89593420D01*
X118371620Y-89418160D01*
X118384320Y-89245440D01*
X118417340Y-89075260D01*
X118473220Y-88912700D01*
X118521480Y-88808560D01*
X118612920Y-88663780D01*
X118724680Y-88529160D01*
X118851680Y-88404700D01*
X118991380Y-88298020D01*
X119141240Y-88211660D01*
X119296180Y-88143080D01*
X119385080Y-88117680D01*
X119570500Y-88079580D01*
X119750840Y-88069420D01*
X119928640Y-88082120D01*
X120101360Y-88122760D01*
X120269000Y-88183720D01*
X120429020Y-88270080D01*
X120578880Y-88376760D01*
X120716040Y-88506300D01*
X120837960Y-88651080D01*
X120937020Y-88806020D01*
X121010680Y-88966040D01*
X121061480Y-89136220D01*
X121086880Y-89314020D01*
X121089420Y-89499440D01*
X121071640Y-89667080D01*
X121036080Y-89824560D01*
X120977660Y-89976960D01*
X120898920Y-90126820D01*
X120802400Y-90266520D01*
X120693180Y-90393520D01*
X120568720Y-90507820D01*
X120436640Y-90604340D01*
X120296940Y-90678000D01*
X120253760Y-90695780D01*
X120073420Y-90754200D01*
X119890540Y-90787220D01*
X119712740Y-90794840D01*
X120703340Y-90794840D01*
X120845580Y-90678000D01*
X120977660Y-90543380D01*
X121094500Y-90393520D01*
X121196100Y-90233500D01*
X121277380Y-90065860D01*
X121338340Y-89890600D01*
X121376440Y-89715340D01*
X121386600Y-89628980D01*
X121394220Y-89547700D01*
X121396760Y-89484200D01*
X121399300Y-89430860D01*
X121399300Y-89380060D01*
X121396760Y-89329260D01*
X121394220Y-89283540D01*
X121366280Y-89087960D01*
X121318020Y-88902540D01*
X121244360Y-88727280D01*
X121150380Y-88557100D01*
X121031000Y-88397080D01*
X120886220Y-88239600D01*
X120881140Y-88237060D01*
X120726200Y-88099900D01*
X120566180Y-87988140D01*
X120398540Y-87901780D01*
X120223280Y-87835740D01*
X120035320Y-87795100D01*
X119839740Y-87774780D01*
X119735600Y-87769700D01*
X119552720Y-87779860D01*
X119382540Y-87802720D01*
X119222520Y-87843360D01*
X119065040Y-87904320D01*
X118968520Y-87952580D01*
X118793260Y-88056720D01*
X118635780Y-88178640D01*
X118493540Y-88318340D01*
X118369080Y-88473280D01*
X118264940Y-88638380D01*
X118178580Y-88816180D01*
X118117620Y-89001600D01*
X118092220Y-89118440D01*
X118079520Y-89202260D01*
X118074440Y-89303860D01*
X118071900Y-89415620D01*
X118071900Y-89527380D01*
X118079520Y-89631520D01*
X118089680Y-89722960D01*
X118092220Y-89743280D01*
X118140480Y-89936320D01*
X118209060Y-90121740D01*
X118300500Y-90297000D01*
X118412260Y-90457020D01*
X118541800Y-90604340D01*
X118686580Y-90736420D01*
X118846600Y-90850720D01*
X119019320Y-90944700D01*
X119204740Y-91018360D01*
X119250460Y-91033600D01*
X119339360Y-91056460D01*
X119423180Y-91071700D01*
X119509540Y-91084400D01*
X119603520Y-91089480D01*
X119712740Y-91089480D01*
X119712740Y-91089480D01*
X119712740Y-91089480D01*
G37*
X119712740Y-91089480D02*
X119804180Y-91089480D01*
X119926100Y-91084400D01*
X120032780Y-91074240D01*
X120126760Y-91056460D01*
X120218200Y-91033600D01*
X120312180Y-91003120D01*
X120378220Y-90977720D01*
X120543320Y-90898980D01*
X120700800Y-90797380D01*
X120703340Y-90794840D01*
X119712740Y-90794840D01*
X119534940Y-90782140D01*
X119362220Y-90744040D01*
X119194580Y-90685620D01*
X119037100Y-90606880D01*
X118892320Y-90505280D01*
X118757700Y-90385900D01*
X118638320Y-90246200D01*
X118536720Y-90088720D01*
X118531640Y-90081100D01*
X118460520Y-89928700D01*
X118409720Y-89763600D01*
X118381780Y-89593420D01*
X118371620Y-89418160D01*
X118384320Y-89245440D01*
X118417340Y-89075260D01*
X118473220Y-88912700D01*
X118521480Y-88808560D01*
X118612920Y-88663780D01*
X118724680Y-88529160D01*
X118851680Y-88404700D01*
X118991380Y-88298020D01*
X119141240Y-88211660D01*
X119296180Y-88143080D01*
X119385080Y-88117680D01*
X119570500Y-88079580D01*
X119750840Y-88069420D01*
X119928640Y-88082120D01*
X120101360Y-88122760D01*
X120269000Y-88183720D01*
X120429020Y-88270080D01*
X120578880Y-88376760D01*
X120716040Y-88506300D01*
X120837960Y-88651080D01*
X120937020Y-88806020D01*
X121010680Y-88966040D01*
X121061480Y-89136220D01*
X121086880Y-89314020D01*
X121089420Y-89499440D01*
X121071640Y-89667080D01*
X121036080Y-89824560D01*
X120977660Y-89976960D01*
X120898920Y-90126820D01*
X120802400Y-90266520D01*
X120693180Y-90393520D01*
X120568720Y-90507820D01*
X120436640Y-90604340D01*
X120296940Y-90678000D01*
X120253760Y-90695780D01*
X120073420Y-90754200D01*
X119890540Y-90787220D01*
X119712740Y-90794840D01*
X120703340Y-90794840D01*
X120845580Y-90678000D01*
X120977660Y-90543380D01*
X121094500Y-90393520D01*
X121196100Y-90233500D01*
X121277380Y-90065860D01*
X121338340Y-89890600D01*
X121376440Y-89715340D01*
X121386600Y-89628980D01*
X121394220Y-89547700D01*
X121396760Y-89484200D01*
X121399300Y-89430860D01*
X121399300Y-89380060D01*
X121396760Y-89329260D01*
X121394220Y-89283540D01*
X121366280Y-89087960D01*
X121318020Y-88902540D01*
X121244360Y-88727280D01*
X121150380Y-88557100D01*
X121031000Y-88397080D01*
X120886220Y-88239600D01*
X120881140Y-88237060D01*
X120726200Y-88099900D01*
X120566180Y-87988140D01*
X120398540Y-87901780D01*
X120223280Y-87835740D01*
X120035320Y-87795100D01*
X119839740Y-87774780D01*
X119735600Y-87769700D01*
X119552720Y-87779860D01*
X119382540Y-87802720D01*
X119222520Y-87843360D01*
X119065040Y-87904320D01*
X118968520Y-87952580D01*
X118793260Y-88056720D01*
X118635780Y-88178640D01*
X118493540Y-88318340D01*
X118369080Y-88473280D01*
X118264940Y-88638380D01*
X118178580Y-88816180D01*
X118117620Y-89001600D01*
X118092220Y-89118440D01*
X118079520Y-89202260D01*
X118074440Y-89303860D01*
X118071900Y-89415620D01*
X118071900Y-89527380D01*
X118079520Y-89631520D01*
X118089680Y-89722960D01*
X118092220Y-89743280D01*
X118140480Y-89936320D01*
X118209060Y-90121740D01*
X118300500Y-90297000D01*
X118412260Y-90457020D01*
X118541800Y-90604340D01*
X118686580Y-90736420D01*
X118846600Y-90850720D01*
X119019320Y-90944700D01*
X119204740Y-91018360D01*
X119250460Y-91033600D01*
X119339360Y-91056460D01*
X119423180Y-91071700D01*
X119509540Y-91084400D01*
X119603520Y-91089480D01*
X119712740Y-91089480D01*
X119712740Y-91089480D01*
G36*
X119250460Y-93954600D02*
X119423180Y-93944440D01*
X119580660Y-93916500D01*
X119725440Y-93868240D01*
X119862600Y-93799660D01*
X119971820Y-93720920D01*
X119250460Y-93720920D01*
X119113300Y-93713300D01*
X118991380Y-93692980D01*
X118874540Y-93654880D01*
X118811040Y-93626940D01*
X118684040Y-93553280D01*
X118567200Y-93456760D01*
X118463060Y-93345000D01*
X118374160Y-93220540D01*
X118308120Y-93085920D01*
X118277640Y-93004640D01*
X118264940Y-92964000D01*
X118257320Y-92923360D01*
X118252240Y-92877640D01*
X118249700Y-92824300D01*
X118247160Y-92753180D01*
X118247160Y-92717620D01*
X118249700Y-92638880D01*
X118249700Y-92577920D01*
X118254780Y-92529660D01*
X118262400Y-92489020D01*
X118272560Y-92448380D01*
X118277640Y-92430600D01*
X118336060Y-92283280D01*
X118417340Y-92151200D01*
X118516400Y-92029280D01*
X118633240Y-91922600D01*
X118765320Y-91833700D01*
X118910100Y-91767660D01*
X118991380Y-91739720D01*
X119072660Y-91724480D01*
X119169180Y-91714320D01*
X119270780Y-91711780D01*
X119369840Y-91716860D01*
X119458740Y-91727020D01*
X119491760Y-91734640D01*
X119641620Y-91790520D01*
X119781320Y-91866720D01*
X119908320Y-91963240D01*
X120020080Y-92077540D01*
X120070880Y-92146120D01*
X120152160Y-92278200D01*
X120210580Y-92422980D01*
X120246140Y-92575380D01*
X120253760Y-92732860D01*
X120243600Y-92862400D01*
X120218200Y-92979240D01*
X120177560Y-93098620D01*
X120124220Y-93210380D01*
X120108980Y-93238320D01*
X120081040Y-93278960D01*
X120040400Y-93329760D01*
X119989600Y-93385640D01*
X119938800Y-93438980D01*
X119938800Y-93438980D01*
X119882920Y-93497400D01*
X119832120Y-93540580D01*
X119786400Y-93573600D01*
X119738140Y-93601540D01*
X119710200Y-93616780D01*
X119598440Y-93665040D01*
X119486680Y-93698060D01*
X119372380Y-93715840D01*
X119250460Y-93720920D01*
X119971820Y-93720920D01*
X119989600Y-93710760D01*
X120098820Y-93611700D01*
X120220740Y-93474540D01*
X120319800Y-93332300D01*
X120396000Y-93179900D01*
X120446800Y-93019880D01*
X120449340Y-93017340D01*
X120462040Y-92941140D01*
X120472200Y-92852240D01*
X120479820Y-92755720D01*
X120482360Y-92661740D01*
X120479820Y-92580460D01*
X120474740Y-92527120D01*
X120434100Y-92359480D01*
X120370600Y-92199460D01*
X120284240Y-92049600D01*
X120177560Y-91907360D01*
X120119140Y-91846400D01*
X119981980Y-91727020D01*
X119839740Y-91630500D01*
X119682260Y-91556840D01*
X119557800Y-91516200D01*
X119501920Y-91503500D01*
X119448580Y-91493340D01*
X119395240Y-91488260D01*
X119331740Y-91485720D01*
X119258080Y-91483180D01*
X119138700Y-91488260D01*
X119042180Y-91495880D01*
X118986300Y-91506040D01*
X118821200Y-91554300D01*
X118666260Y-91625420D01*
X118524020Y-91716860D01*
X118391940Y-91826080D01*
X118277640Y-91950540D01*
X118181120Y-92087700D01*
X118104920Y-92235020D01*
X118049040Y-92395040D01*
X118041420Y-92425520D01*
X118028720Y-92504260D01*
X118021100Y-92600780D01*
X118018560Y-92702380D01*
X118018560Y-92809060D01*
X118026180Y-92908120D01*
X118038880Y-92994480D01*
X118049040Y-93037660D01*
X118104920Y-93202760D01*
X118186200Y-93357700D01*
X118290340Y-93502480D01*
X118414800Y-93632020D01*
X118557040Y-93746320D01*
X118572280Y-93759020D01*
X118694200Y-93832680D01*
X118813580Y-93886020D01*
X118940580Y-93924120D01*
X119080280Y-93946980D01*
X119235220Y-93954600D01*
X119250460Y-93954600D01*
X119250460Y-93954600D01*
X119250460Y-93954600D01*
G37*
X119250460Y-93954600D02*
X119423180Y-93944440D01*
X119580660Y-93916500D01*
X119725440Y-93868240D01*
X119862600Y-93799660D01*
X119971820Y-93720920D01*
X119250460Y-93720920D01*
X119113300Y-93713300D01*
X118991380Y-93692980D01*
X118874540Y-93654880D01*
X118811040Y-93626940D01*
X118684040Y-93553280D01*
X118567200Y-93456760D01*
X118463060Y-93345000D01*
X118374160Y-93220540D01*
X118308120Y-93085920D01*
X118277640Y-93004640D01*
X118264940Y-92964000D01*
X118257320Y-92923360D01*
X118252240Y-92877640D01*
X118249700Y-92824300D01*
X118247160Y-92753180D01*
X118247160Y-92717620D01*
X118249700Y-92638880D01*
X118249700Y-92577920D01*
X118254780Y-92529660D01*
X118262400Y-92489020D01*
X118272560Y-92448380D01*
X118277640Y-92430600D01*
X118336060Y-92283280D01*
X118417340Y-92151200D01*
X118516400Y-92029280D01*
X118633240Y-91922600D01*
X118765320Y-91833700D01*
X118910100Y-91767660D01*
X118991380Y-91739720D01*
X119072660Y-91724480D01*
X119169180Y-91714320D01*
X119270780Y-91711780D01*
X119369840Y-91716860D01*
X119458740Y-91727020D01*
X119491760Y-91734640D01*
X119641620Y-91790520D01*
X119781320Y-91866720D01*
X119908320Y-91963240D01*
X120020080Y-92077540D01*
X120070880Y-92146120D01*
X120152160Y-92278200D01*
X120210580Y-92422980D01*
X120246140Y-92575380D01*
X120253760Y-92732860D01*
X120243600Y-92862400D01*
X120218200Y-92979240D01*
X120177560Y-93098620D01*
X120124220Y-93210380D01*
X120108980Y-93238320D01*
X120081040Y-93278960D01*
X120040400Y-93329760D01*
X119989600Y-93385640D01*
X119938800Y-93438980D01*
X119938800Y-93438980D01*
X119882920Y-93497400D01*
X119832120Y-93540580D01*
X119786400Y-93573600D01*
X119738140Y-93601540D01*
X119710200Y-93616780D01*
X119598440Y-93665040D01*
X119486680Y-93698060D01*
X119372380Y-93715840D01*
X119250460Y-93720920D01*
X119971820Y-93720920D01*
X119989600Y-93710760D01*
X120098820Y-93611700D01*
X120220740Y-93474540D01*
X120319800Y-93332300D01*
X120396000Y-93179900D01*
X120446800Y-93019880D01*
X120449340Y-93017340D01*
X120462040Y-92941140D01*
X120472200Y-92852240D01*
X120479820Y-92755720D01*
X120482360Y-92661740D01*
X120479820Y-92580460D01*
X120474740Y-92527120D01*
X120434100Y-92359480D01*
X120370600Y-92199460D01*
X120284240Y-92049600D01*
X120177560Y-91907360D01*
X120119140Y-91846400D01*
X119981980Y-91727020D01*
X119839740Y-91630500D01*
X119682260Y-91556840D01*
X119557800Y-91516200D01*
X119501920Y-91503500D01*
X119448580Y-91493340D01*
X119395240Y-91488260D01*
X119331740Y-91485720D01*
X119258080Y-91483180D01*
X119138700Y-91488260D01*
X119042180Y-91495880D01*
X118986300Y-91506040D01*
X118821200Y-91554300D01*
X118666260Y-91625420D01*
X118524020Y-91716860D01*
X118391940Y-91826080D01*
X118277640Y-91950540D01*
X118181120Y-92087700D01*
X118104920Y-92235020D01*
X118049040Y-92395040D01*
X118041420Y-92425520D01*
X118028720Y-92504260D01*
X118021100Y-92600780D01*
X118018560Y-92702380D01*
X118018560Y-92809060D01*
X118026180Y-92908120D01*
X118038880Y-92994480D01*
X118049040Y-93037660D01*
X118104920Y-93202760D01*
X118186200Y-93357700D01*
X118290340Y-93502480D01*
X118414800Y-93632020D01*
X118557040Y-93746320D01*
X118572280Y-93759020D01*
X118694200Y-93832680D01*
X118813580Y-93886020D01*
X118940580Y-93924120D01*
X119080280Y-93946980D01*
X119235220Y-93954600D01*
X119250460Y-93954600D01*
X119250460Y-93954600D01*
G36*
X119278400Y-96728280D02*
X119377460Y-96725740D01*
X119466360Y-96718120D01*
X119537480Y-96707960D01*
X119547640Y-96705420D01*
X119715280Y-96652080D01*
X119870220Y-96573340D01*
X119971820Y-96502220D01*
X119288560Y-96502220D01*
X119212360Y-96502220D01*
X119108220Y-96494600D01*
X119021860Y-96481900D01*
X118943120Y-96464120D01*
X118864380Y-96433640D01*
X118798340Y-96403160D01*
X118668800Y-96324420D01*
X118551960Y-96227900D01*
X118447820Y-96111060D01*
X118361460Y-95984060D01*
X118297960Y-95846900D01*
X118282720Y-95803720D01*
X118259860Y-95714820D01*
X118247160Y-95610680D01*
X118242080Y-95498920D01*
X118244620Y-95389700D01*
X118257320Y-95293180D01*
X118259860Y-95283020D01*
X118305580Y-95135700D01*
X118374160Y-94998540D01*
X118460520Y-94871540D01*
X118567200Y-94759780D01*
X118691660Y-94663260D01*
X118828820Y-94584520D01*
X118943120Y-94536260D01*
X118993920Y-94518480D01*
X119037100Y-94508320D01*
X119075200Y-94500700D01*
X119118380Y-94495620D01*
X119174260Y-94493080D01*
X119245380Y-94493080D01*
X119354600Y-94495620D01*
X119448580Y-94505780D01*
X119532400Y-94526100D01*
X119613680Y-94554040D01*
X119677180Y-94584520D01*
X119778780Y-94645480D01*
X119880380Y-94721680D01*
X119971820Y-94810580D01*
X120055640Y-94904560D01*
X120114060Y-94990920D01*
X120180100Y-95123000D01*
X120223280Y-95265240D01*
X120248680Y-95415100D01*
X120251220Y-95567500D01*
X120230900Y-95714820D01*
X120218200Y-95763080D01*
X120169940Y-95897700D01*
X120098820Y-96029780D01*
X120012460Y-96149160D01*
X119908320Y-96258380D01*
X119799100Y-96347280D01*
X119679720Y-96415860D01*
X119664480Y-96423480D01*
X119545100Y-96466660D01*
X119423180Y-96492060D01*
X119288560Y-96502220D01*
X119971820Y-96502220D01*
X120012460Y-96474280D01*
X120142000Y-96354900D01*
X120233440Y-96245680D01*
X120329960Y-96095820D01*
X120403620Y-95938340D01*
X120454420Y-95770700D01*
X120479820Y-95597980D01*
X120482360Y-95420180D01*
X120467120Y-95290640D01*
X120429020Y-95128080D01*
X120368060Y-94973140D01*
X120281700Y-94825820D01*
X120175020Y-94686120D01*
X120048020Y-94561660D01*
X120027700Y-94543880D01*
X119888000Y-94439740D01*
X119738140Y-94361000D01*
X119578120Y-94302580D01*
X119413020Y-94269560D01*
X119245380Y-94259400D01*
X119075200Y-94272100D01*
X118907560Y-94307660D01*
X118742460Y-94368620D01*
X118706900Y-94386400D01*
X118559580Y-94470220D01*
X118422420Y-94576900D01*
X118303040Y-94698820D01*
X118201440Y-94835980D01*
X118117620Y-94983300D01*
X118059200Y-95140780D01*
X118046500Y-95176340D01*
X118036340Y-95222060D01*
X118028720Y-95265240D01*
X118023640Y-95310960D01*
X118021100Y-95366840D01*
X118018560Y-95437960D01*
X118018560Y-95501460D01*
X118021100Y-95590360D01*
X118023640Y-95656400D01*
X118026180Y-95709740D01*
X118033800Y-95755460D01*
X118041420Y-95798640D01*
X118049040Y-95821500D01*
X118082060Y-95925640D01*
X118130320Y-96034860D01*
X118183660Y-96139000D01*
X118234460Y-96217740D01*
X118277640Y-96271080D01*
X118336060Y-96334580D01*
X118399560Y-96400620D01*
X118465600Y-96461580D01*
X118524020Y-96509840D01*
X118551960Y-96527620D01*
X118628160Y-96575880D01*
X118719600Y-96621600D01*
X118813580Y-96662240D01*
X118905020Y-96692720D01*
X118925340Y-96697800D01*
X118993920Y-96713040D01*
X119080280Y-96720660D01*
X119176800Y-96728280D01*
X119278400Y-96728280D01*
X119278400Y-96728280D01*
X119278400Y-96728280D01*
G37*
X119278400Y-96728280D02*
X119377460Y-96725740D01*
X119466360Y-96718120D01*
X119537480Y-96707960D01*
X119547640Y-96705420D01*
X119715280Y-96652080D01*
X119870220Y-96573340D01*
X119971820Y-96502220D01*
X119288560Y-96502220D01*
X119212360Y-96502220D01*
X119108220Y-96494600D01*
X119021860Y-96481900D01*
X118943120Y-96464120D01*
X118864380Y-96433640D01*
X118798340Y-96403160D01*
X118668800Y-96324420D01*
X118551960Y-96227900D01*
X118447820Y-96111060D01*
X118361460Y-95984060D01*
X118297960Y-95846900D01*
X118282720Y-95803720D01*
X118259860Y-95714820D01*
X118247160Y-95610680D01*
X118242080Y-95498920D01*
X118244620Y-95389700D01*
X118257320Y-95293180D01*
X118259860Y-95283020D01*
X118305580Y-95135700D01*
X118374160Y-94998540D01*
X118460520Y-94871540D01*
X118567200Y-94759780D01*
X118691660Y-94663260D01*
X118828820Y-94584520D01*
X118943120Y-94536260D01*
X118993920Y-94518480D01*
X119037100Y-94508320D01*
X119075200Y-94500700D01*
X119118380Y-94495620D01*
X119174260Y-94493080D01*
X119245380Y-94493080D01*
X119354600Y-94495620D01*
X119448580Y-94505780D01*
X119532400Y-94526100D01*
X119613680Y-94554040D01*
X119677180Y-94584520D01*
X119778780Y-94645480D01*
X119880380Y-94721680D01*
X119971820Y-94810580D01*
X120055640Y-94904560D01*
X120114060Y-94990920D01*
X120180100Y-95123000D01*
X120223280Y-95265240D01*
X120248680Y-95415100D01*
X120251220Y-95567500D01*
X120230900Y-95714820D01*
X120218200Y-95763080D01*
X120169940Y-95897700D01*
X120098820Y-96029780D01*
X120012460Y-96149160D01*
X119908320Y-96258380D01*
X119799100Y-96347280D01*
X119679720Y-96415860D01*
X119664480Y-96423480D01*
X119545100Y-96466660D01*
X119423180Y-96492060D01*
X119288560Y-96502220D01*
X119971820Y-96502220D01*
X120012460Y-96474280D01*
X120142000Y-96354900D01*
X120233440Y-96245680D01*
X120329960Y-96095820D01*
X120403620Y-95938340D01*
X120454420Y-95770700D01*
X120479820Y-95597980D01*
X120482360Y-95420180D01*
X120467120Y-95290640D01*
X120429020Y-95128080D01*
X120368060Y-94973140D01*
X120281700Y-94825820D01*
X120175020Y-94686120D01*
X120048020Y-94561660D01*
X120027700Y-94543880D01*
X119888000Y-94439740D01*
X119738140Y-94361000D01*
X119578120Y-94302580D01*
X119413020Y-94269560D01*
X119245380Y-94259400D01*
X119075200Y-94272100D01*
X118907560Y-94307660D01*
X118742460Y-94368620D01*
X118706900Y-94386400D01*
X118559580Y-94470220D01*
X118422420Y-94576900D01*
X118303040Y-94698820D01*
X118201440Y-94835980D01*
X118117620Y-94983300D01*
X118059200Y-95140780D01*
X118046500Y-95176340D01*
X118036340Y-95222060D01*
X118028720Y-95265240D01*
X118023640Y-95310960D01*
X118021100Y-95366840D01*
X118018560Y-95437960D01*
X118018560Y-95501460D01*
X118021100Y-95590360D01*
X118023640Y-95656400D01*
X118026180Y-95709740D01*
X118033800Y-95755460D01*
X118041420Y-95798640D01*
X118049040Y-95821500D01*
X118082060Y-95925640D01*
X118130320Y-96034860D01*
X118183660Y-96139000D01*
X118234460Y-96217740D01*
X118277640Y-96271080D01*
X118336060Y-96334580D01*
X118399560Y-96400620D01*
X118465600Y-96461580D01*
X118524020Y-96509840D01*
X118551960Y-96527620D01*
X118628160Y-96575880D01*
X118719600Y-96621600D01*
X118813580Y-96662240D01*
X118905020Y-96692720D01*
X118925340Y-96697800D01*
X118993920Y-96713040D01*
X119080280Y-96720660D01*
X119176800Y-96728280D01*
X119278400Y-96728280D01*
X119278400Y-96728280D01*
G36*
X119992140Y-89418160D02*
X120030240Y-89395300D01*
X120075960Y-89362280D01*
X120124220Y-89311480D01*
X120169940Y-89258140D01*
X120202960Y-89204800D01*
X120208040Y-89192100D01*
X120235980Y-89100660D01*
X120246140Y-88993980D01*
X120243600Y-88912700D01*
X120220740Y-88803480D01*
X120180100Y-88709500D01*
X120119140Y-88630760D01*
X120040400Y-88567260D01*
X119946420Y-88521540D01*
X119842280Y-88493600D01*
X119720360Y-88488520D01*
X119687340Y-88491060D01*
X119575580Y-88506300D01*
X119481600Y-88541860D01*
X119397780Y-88595200D01*
X119372380Y-88615520D01*
X119301260Y-88696800D01*
X119250460Y-88793320D01*
X119222520Y-88897460D01*
X119219980Y-89011760D01*
X119225060Y-89062560D01*
X119237760Y-89120980D01*
X119253000Y-89181940D01*
X119270780Y-89222580D01*
X119293640Y-89260680D01*
X119326660Y-89303860D01*
X119364760Y-89344500D01*
X119400320Y-89377520D01*
X119433340Y-89400380D01*
X119448580Y-89405460D01*
X119463820Y-89395300D01*
X119484140Y-89367360D01*
X119507000Y-89324180D01*
X119519700Y-89303860D01*
X119570500Y-89202260D01*
X119507000Y-89141300D01*
X119471440Y-89105740D01*
X119453660Y-89080340D01*
X119443500Y-89057480D01*
X119440960Y-89024460D01*
X119440960Y-89006680D01*
X119453660Y-88935560D01*
X119484140Y-88877140D01*
X119537480Y-88828880D01*
X119545100Y-88826340D01*
X119588280Y-88808560D01*
X119651780Y-88798400D01*
X119720360Y-88793320D01*
X119794020Y-88795860D01*
X119857520Y-88803480D01*
X119888000Y-88811100D01*
X119948960Y-88841580D01*
X119992140Y-88884760D01*
X120015000Y-88943180D01*
X120020080Y-89004140D01*
X120015000Y-89072720D01*
X119994680Y-89120980D01*
X119954040Y-89164160D01*
X119928640Y-89181940D01*
X119900700Y-89202260D01*
X119888000Y-89217500D01*
X119888000Y-89217500D01*
X119893080Y-89232740D01*
X119908320Y-89265760D01*
X119931180Y-89306400D01*
X119938800Y-89324180D01*
X119992140Y-89418160D01*
X119992140Y-89418160D01*
X119992140Y-89418160D01*
G37*
X119992140Y-89418160D02*
X120030240Y-89395300D01*
X120075960Y-89362280D01*
X120124220Y-89311480D01*
X120169940Y-89258140D01*
X120202960Y-89204800D01*
X120208040Y-89192100D01*
X120235980Y-89100660D01*
X120246140Y-88993980D01*
X120243600Y-88912700D01*
X120220740Y-88803480D01*
X120180100Y-88709500D01*
X120119140Y-88630760D01*
X120040400Y-88567260D01*
X119946420Y-88521540D01*
X119842280Y-88493600D01*
X119720360Y-88488520D01*
X119687340Y-88491060D01*
X119575580Y-88506300D01*
X119481600Y-88541860D01*
X119397780Y-88595200D01*
X119372380Y-88615520D01*
X119301260Y-88696800D01*
X119250460Y-88793320D01*
X119222520Y-88897460D01*
X119219980Y-89011760D01*
X119225060Y-89062560D01*
X119237760Y-89120980D01*
X119253000Y-89181940D01*
X119270780Y-89222580D01*
X119293640Y-89260680D01*
X119326660Y-89303860D01*
X119364760Y-89344500D01*
X119400320Y-89377520D01*
X119433340Y-89400380D01*
X119448580Y-89405460D01*
X119463820Y-89395300D01*
X119484140Y-89367360D01*
X119507000Y-89324180D01*
X119519700Y-89303860D01*
X119570500Y-89202260D01*
X119507000Y-89141300D01*
X119471440Y-89105740D01*
X119453660Y-89080340D01*
X119443500Y-89057480D01*
X119440960Y-89024460D01*
X119440960Y-89006680D01*
X119453660Y-88935560D01*
X119484140Y-88877140D01*
X119537480Y-88828880D01*
X119545100Y-88826340D01*
X119588280Y-88808560D01*
X119651780Y-88798400D01*
X119720360Y-88793320D01*
X119794020Y-88795860D01*
X119857520Y-88803480D01*
X119888000Y-88811100D01*
X119948960Y-88841580D01*
X119992140Y-88884760D01*
X120015000Y-88943180D01*
X120020080Y-89004140D01*
X120015000Y-89072720D01*
X119994680Y-89120980D01*
X119954040Y-89164160D01*
X119928640Y-89181940D01*
X119900700Y-89202260D01*
X119888000Y-89217500D01*
X119888000Y-89217500D01*
X119893080Y-89232740D01*
X119908320Y-89265760D01*
X119931180Y-89306400D01*
X119938800Y-89324180D01*
X119992140Y-89418160D01*
X119992140Y-89418160D01*
G36*
X119989600Y-90368120D02*
X120004840Y-90368120D01*
X120032780Y-90352880D01*
X120055640Y-90337640D01*
X120136920Y-90263980D01*
X120192800Y-90182700D01*
X120230900Y-90091260D01*
X120246140Y-89987120D01*
X120243600Y-89870280D01*
X120225820Y-89773760D01*
X120190260Y-89689940D01*
X120136920Y-89613740D01*
X120124220Y-89601040D01*
X120045480Y-89535000D01*
X119954040Y-89486740D01*
X119847360Y-89458800D01*
X119827040Y-89456260D01*
X119707660Y-89451180D01*
X119598440Y-89463880D01*
X119494300Y-89496900D01*
X119405400Y-89547700D01*
X119331740Y-89613740D01*
X119273320Y-89695020D01*
X119250460Y-89743280D01*
X119227600Y-89842340D01*
X119219980Y-89949020D01*
X119230140Y-90055700D01*
X119258080Y-90154760D01*
X119263160Y-90167460D01*
X119288560Y-90213180D01*
X119326660Y-90263980D01*
X119369840Y-90309700D01*
X119410480Y-90345260D01*
X119428260Y-90357960D01*
X119446040Y-90365580D01*
X119458740Y-90365580D01*
X119468900Y-90352880D01*
X119484140Y-90327480D01*
X119507000Y-90284300D01*
X119517160Y-90266520D01*
X119570500Y-90159840D01*
X119507000Y-90098880D01*
X119471440Y-90063320D01*
X119453660Y-90040460D01*
X119443500Y-90015060D01*
X119440960Y-89982040D01*
X119440960Y-89966800D01*
X119451120Y-89895680D01*
X119479060Y-89839800D01*
X119529860Y-89796620D01*
X119562880Y-89776300D01*
X119628920Y-89755980D01*
X119707660Y-89745820D01*
X119791480Y-89745820D01*
X119867680Y-89761060D01*
X119903240Y-89773760D01*
X119961660Y-89811860D01*
X120002300Y-89862660D01*
X120022620Y-89923620D01*
X120025160Y-89989660D01*
X120004840Y-90053160D01*
X119964200Y-90109040D01*
X119933720Y-90136980D01*
X119908320Y-90157300D01*
X119898160Y-90162380D01*
X119893080Y-90170000D01*
X119893080Y-90187780D01*
X119905780Y-90218260D01*
X119931180Y-90263980D01*
X119954040Y-90307160D01*
X119974360Y-90345260D01*
X119987060Y-90365580D01*
X119989600Y-90368120D01*
X119989600Y-90368120D01*
X119989600Y-90368120D01*
G37*
X119989600Y-90368120D02*
X120004840Y-90368120D01*
X120032780Y-90352880D01*
X120055640Y-90337640D01*
X120136920Y-90263980D01*
X120192800Y-90182700D01*
X120230900Y-90091260D01*
X120246140Y-89987120D01*
X120243600Y-89870280D01*
X120225820Y-89773760D01*
X120190260Y-89689940D01*
X120136920Y-89613740D01*
X120124220Y-89601040D01*
X120045480Y-89535000D01*
X119954040Y-89486740D01*
X119847360Y-89458800D01*
X119827040Y-89456260D01*
X119707660Y-89451180D01*
X119598440Y-89463880D01*
X119494300Y-89496900D01*
X119405400Y-89547700D01*
X119331740Y-89613740D01*
X119273320Y-89695020D01*
X119250460Y-89743280D01*
X119227600Y-89842340D01*
X119219980Y-89949020D01*
X119230140Y-90055700D01*
X119258080Y-90154760D01*
X119263160Y-90167460D01*
X119288560Y-90213180D01*
X119326660Y-90263980D01*
X119369840Y-90309700D01*
X119410480Y-90345260D01*
X119428260Y-90357960D01*
X119446040Y-90365580D01*
X119458740Y-90365580D01*
X119468900Y-90352880D01*
X119484140Y-90327480D01*
X119507000Y-90284300D01*
X119517160Y-90266520D01*
X119570500Y-90159840D01*
X119507000Y-90098880D01*
X119471440Y-90063320D01*
X119453660Y-90040460D01*
X119443500Y-90015060D01*
X119440960Y-89982040D01*
X119440960Y-89966800D01*
X119451120Y-89895680D01*
X119479060Y-89839800D01*
X119529860Y-89796620D01*
X119562880Y-89776300D01*
X119628920Y-89755980D01*
X119707660Y-89745820D01*
X119791480Y-89745820D01*
X119867680Y-89761060D01*
X119903240Y-89773760D01*
X119961660Y-89811860D01*
X120002300Y-89862660D01*
X120022620Y-89923620D01*
X120025160Y-89989660D01*
X120004840Y-90053160D01*
X119964200Y-90109040D01*
X119933720Y-90136980D01*
X119908320Y-90157300D01*
X119898160Y-90162380D01*
X119893080Y-90170000D01*
X119893080Y-90187780D01*
X119905780Y-90218260D01*
X119931180Y-90263980D01*
X119954040Y-90307160D01*
X119974360Y-90345260D01*
X119987060Y-90365580D01*
X119989600Y-90368120D01*
X119989600Y-90368120D01*
G36*
X118981220Y-93047820D02*
X119021860Y-93045280D01*
X119077740Y-93045280D01*
X119146320Y-93045280D01*
X119212360Y-93045280D01*
X119440960Y-93042740D01*
X119446040Y-92976700D01*
X119448580Y-92910660D01*
X119745760Y-92905580D01*
X120040400Y-92903040D01*
X120040400Y-92712540D01*
X120040400Y-92519500D01*
X119740680Y-92519500D01*
X119440960Y-92519500D01*
X119443500Y-92466160D01*
X119443500Y-92428060D01*
X119443500Y-92400120D01*
X119443500Y-92395040D01*
X119435880Y-92389960D01*
X119415560Y-92384880D01*
X119380000Y-92382340D01*
X119324120Y-92379800D01*
X119247920Y-92379800D01*
X119181880Y-92379800D01*
X119092980Y-92379800D01*
X119021860Y-92379800D01*
X118971060Y-92382340D01*
X118938040Y-92387420D01*
X118912640Y-92389960D01*
X118897400Y-92397580D01*
X118894860Y-92400120D01*
X118887240Y-92407740D01*
X118879620Y-92415360D01*
X118874540Y-92430600D01*
X118872000Y-92453460D01*
X118869460Y-92486480D01*
X118866920Y-92537280D01*
X118866920Y-92605860D01*
X118866920Y-92697300D01*
X118866920Y-92712540D01*
X118866920Y-92811600D01*
X118869460Y-92890340D01*
X118872000Y-92948760D01*
X118877080Y-92991940D01*
X118884700Y-93019880D01*
X118897400Y-93035120D01*
X118915180Y-93042740D01*
X118938040Y-93045280D01*
X118963440Y-93047820D01*
X118981220Y-93047820D01*
X118981220Y-93047820D01*
X118981220Y-93047820D01*
G37*
X118981220Y-93047820D02*
X119021860Y-93045280D01*
X119077740Y-93045280D01*
X119146320Y-93045280D01*
X119212360Y-93045280D01*
X119440960Y-93042740D01*
X119446040Y-92976700D01*
X119448580Y-92910660D01*
X119745760Y-92905580D01*
X120040400Y-92903040D01*
X120040400Y-92712540D01*
X120040400Y-92519500D01*
X119740680Y-92519500D01*
X119440960Y-92519500D01*
X119443500Y-92466160D01*
X119443500Y-92428060D01*
X119443500Y-92400120D01*
X119443500Y-92395040D01*
X119435880Y-92389960D01*
X119415560Y-92384880D01*
X119380000Y-92382340D01*
X119324120Y-92379800D01*
X119247920Y-92379800D01*
X119181880Y-92379800D01*
X119092980Y-92379800D01*
X119021860Y-92379800D01*
X118971060Y-92382340D01*
X118938040Y-92387420D01*
X118912640Y-92389960D01*
X118897400Y-92397580D01*
X118894860Y-92400120D01*
X118887240Y-92407740D01*
X118879620Y-92415360D01*
X118874540Y-92430600D01*
X118872000Y-92453460D01*
X118869460Y-92486480D01*
X118866920Y-92537280D01*
X118866920Y-92605860D01*
X118866920Y-92697300D01*
X118866920Y-92712540D01*
X118866920Y-92811600D01*
X118869460Y-92890340D01*
X118872000Y-92948760D01*
X118877080Y-92991940D01*
X118884700Y-93019880D01*
X118897400Y-93035120D01*
X118915180Y-93042740D01*
X118938040Y-93045280D01*
X118963440Y-93047820D01*
X118981220Y-93047820D01*
X118981220Y-93047820D01*
G36*
X118638320Y-92885260D02*
X118689120Y-92875100D01*
X118734840Y-92847160D01*
X118772940Y-92806520D01*
X118795800Y-92748100D01*
X118795800Y-92743020D01*
X118795800Y-92707460D01*
X118788180Y-92664280D01*
X118783100Y-92654120D01*
X118772940Y-92621100D01*
X118765320Y-92603320D01*
X118765320Y-92600780D01*
X118755160Y-92593160D01*
X118732300Y-92577920D01*
X118722140Y-92572840D01*
X118661180Y-92547440D01*
X118600220Y-92544900D01*
X118546880Y-92562680D01*
X118501160Y-92598240D01*
X118468140Y-92649040D01*
X118455440Y-92710000D01*
X118455440Y-92720160D01*
X118465600Y-92781120D01*
X118496080Y-92829380D01*
X118536720Y-92862400D01*
X118584980Y-92880180D01*
X118638320Y-92885260D01*
X118638320Y-92885260D01*
X118638320Y-92885260D01*
G37*
X118638320Y-92885260D02*
X118689120Y-92875100D01*
X118734840Y-92847160D01*
X118772940Y-92806520D01*
X118795800Y-92748100D01*
X118795800Y-92743020D01*
X118795800Y-92707460D01*
X118788180Y-92664280D01*
X118783100Y-92654120D01*
X118772940Y-92621100D01*
X118765320Y-92603320D01*
X118765320Y-92600780D01*
X118755160Y-92593160D01*
X118732300Y-92577920D01*
X118722140Y-92572840D01*
X118661180Y-92547440D01*
X118600220Y-92544900D01*
X118546880Y-92562680D01*
X118501160Y-92598240D01*
X118468140Y-92649040D01*
X118455440Y-92710000D01*
X118455440Y-92720160D01*
X118465600Y-92781120D01*
X118496080Y-92829380D01*
X118536720Y-92862400D01*
X118584980Y-92880180D01*
X118638320Y-92885260D01*
X118638320Y-92885260D01*
G36*
X119242840Y-96123760D02*
X119364760Y-96116140D01*
X119484140Y-96090740D01*
X119595900Y-96050100D01*
X119639080Y-96022160D01*
X119689880Y-95984060D01*
X119738140Y-95943420D01*
X119743220Y-95938340D01*
X119821960Y-95841820D01*
X119880380Y-95732600D01*
X119910860Y-95615760D01*
X119923560Y-95491300D01*
X119913400Y-95364300D01*
X119910860Y-95356680D01*
X119880380Y-95250000D01*
X119824500Y-95153480D01*
X119750840Y-95074740D01*
X119656860Y-95008700D01*
X119545100Y-94960440D01*
X119476520Y-94942660D01*
X119440960Y-94932500D01*
X119440960Y-95092520D01*
X119440960Y-95252540D01*
X119494300Y-95260160D01*
X119547640Y-95277940D01*
X119595900Y-95310960D01*
X119631460Y-95351600D01*
X119634000Y-95356680D01*
X119644160Y-95384620D01*
X119654320Y-95425260D01*
X119659400Y-95455740D01*
X119664480Y-95542100D01*
X119644160Y-95618300D01*
X119603520Y-95684340D01*
X119540020Y-95737680D01*
X119456200Y-95775780D01*
X119352060Y-95801180D01*
X119352060Y-95801180D01*
X119260620Y-95808800D01*
X119166640Y-95803720D01*
X119077740Y-95788480D01*
X119001540Y-95760540D01*
X118993920Y-95758000D01*
X118935500Y-95714820D01*
X118889780Y-95656400D01*
X118866920Y-95595440D01*
X118856760Y-95516700D01*
X118866920Y-95437960D01*
X118894860Y-95369380D01*
X118938040Y-95313500D01*
X118986300Y-95280480D01*
X119029480Y-95260160D01*
X119054880Y-95255080D01*
X119067580Y-95265240D01*
X119072660Y-95290640D01*
X119072660Y-95300800D01*
X119072660Y-95349060D01*
X119197120Y-95224600D01*
X119321580Y-95100140D01*
X119197120Y-94975680D01*
X119072660Y-94851220D01*
X119072660Y-94896940D01*
X119065040Y-94935040D01*
X119044720Y-94955360D01*
X119009160Y-94960440D01*
X118978680Y-94965520D01*
X118932960Y-94985840D01*
X118879620Y-95013780D01*
X118826280Y-95044260D01*
X118780560Y-95077280D01*
X118747540Y-95105220D01*
X118681500Y-95189040D01*
X118633240Y-95285560D01*
X118605300Y-95392240D01*
X118597680Y-95506540D01*
X118607840Y-95623380D01*
X118640860Y-95737680D01*
X118671340Y-95803720D01*
X118729760Y-95895160D01*
X118808500Y-95971360D01*
X118902480Y-96034860D01*
X119009160Y-96080580D01*
X119123460Y-96111060D01*
X119242840Y-96123760D01*
X119242840Y-96123760D01*
X119242840Y-96123760D01*
G37*
X119242840Y-96123760D02*
X119364760Y-96116140D01*
X119484140Y-96090740D01*
X119595900Y-96050100D01*
X119639080Y-96022160D01*
X119689880Y-95984060D01*
X119738140Y-95943420D01*
X119743220Y-95938340D01*
X119821960Y-95841820D01*
X119880380Y-95732600D01*
X119910860Y-95615760D01*
X119923560Y-95491300D01*
X119913400Y-95364300D01*
X119910860Y-95356680D01*
X119880380Y-95250000D01*
X119824500Y-95153480D01*
X119750840Y-95074740D01*
X119656860Y-95008700D01*
X119545100Y-94960440D01*
X119476520Y-94942660D01*
X119440960Y-94932500D01*
X119440960Y-95092520D01*
X119440960Y-95252540D01*
X119494300Y-95260160D01*
X119547640Y-95277940D01*
X119595900Y-95310960D01*
X119631460Y-95351600D01*
X119634000Y-95356680D01*
X119644160Y-95384620D01*
X119654320Y-95425260D01*
X119659400Y-95455740D01*
X119664480Y-95542100D01*
X119644160Y-95618300D01*
X119603520Y-95684340D01*
X119540020Y-95737680D01*
X119456200Y-95775780D01*
X119352060Y-95801180D01*
X119352060Y-95801180D01*
X119260620Y-95808800D01*
X119166640Y-95803720D01*
X119077740Y-95788480D01*
X119001540Y-95760540D01*
X118993920Y-95758000D01*
X118935500Y-95714820D01*
X118889780Y-95656400D01*
X118866920Y-95595440D01*
X118856760Y-95516700D01*
X118866920Y-95437960D01*
X118894860Y-95369380D01*
X118938040Y-95313500D01*
X118986300Y-95280480D01*
X119029480Y-95260160D01*
X119054880Y-95255080D01*
X119067580Y-95265240D01*
X119072660Y-95290640D01*
X119072660Y-95300800D01*
X119072660Y-95349060D01*
X119197120Y-95224600D01*
X119321580Y-95100140D01*
X119197120Y-94975680D01*
X119072660Y-94851220D01*
X119072660Y-94896940D01*
X119065040Y-94935040D01*
X119044720Y-94955360D01*
X119009160Y-94960440D01*
X118978680Y-94965520D01*
X118932960Y-94985840D01*
X118879620Y-95013780D01*
X118826280Y-95044260D01*
X118780560Y-95077280D01*
X118747540Y-95105220D01*
X118681500Y-95189040D01*
X118633240Y-95285560D01*
X118605300Y-95392240D01*
X118597680Y-95506540D01*
X118607840Y-95623380D01*
X118640860Y-95737680D01*
X118671340Y-95803720D01*
X118729760Y-95895160D01*
X118808500Y-95971360D01*
X118902480Y-96034860D01*
X119009160Y-96080580D01*
X119123460Y-96111060D01*
X119242840Y-96123760D01*
X119242840Y-96123760D01*
D13*
X146218359Y-103075201D02*
X146319374Y-103108873D01*
X146420389Y-103209888D01*
X146487733Y-103344575D01*
X146487733Y-103479262D01*
X146454061Y-103580277D01*
X146353046Y-103748636D01*
X146252030Y-103849652D01*
X146083672Y-103950667D01*
X145982657Y-103984339D01*
X145847970Y-103984339D01*
X145713282Y-103916994D01*
X145645939Y-103849651D01*
X145578595Y-103714964D01*
X145578595Y-103647621D01*
X145814297Y-103411919D01*
X145948984Y-103546606D01*
X147307303Y-105511015D02*
X147879723Y-105410000D01*
X147711364Y-105915076D02*
X148418471Y-105207970D01*
X148149096Y-104938595D01*
X148048081Y-104904924D01*
X147980738Y-104904924D01*
X147879723Y-104938595D01*
X147778708Y-105039610D01*
X147745036Y-105140626D01*
X147745036Y-105207969D01*
X147778708Y-105308984D01*
X148048082Y-105578359D01*
M02*
