G04 #@! TF.FileFunction,Soldermask,Bot*
%FSLAX46Y46*%
G04 Gerber Fmt 4.6, Leading zero omitted, Abs format (unit mm)*
G04 Created by KiCad (PCBNEW 4.0.7) date 05/30/18 00:05:28*
%MOMM*%
%LPD*%
G01*
G04 APERTURE LIST*
%ADD10C,0.100000*%
%ADD11C,2.400000*%
%ADD12O,1.924000X2.599640*%
%ADD13O,1.924000X2.597100*%
%ADD14C,3.200000*%
G04 APERTURE END LIST*
D10*
D11*
X176530000Y-89535000D03*
X176530000Y-83185000D03*
X173990000Y-86360000D03*
X179070000Y-86360000D03*
D12*
X156210000Y-81280000D03*
X153670000Y-81280000D03*
X151130000Y-81280000D03*
X148590000Y-81280000D03*
X146050000Y-81280000D03*
X143510000Y-81280000D03*
X140970000Y-81280000D03*
X138430000Y-81280000D03*
X133350000Y-81280000D03*
X130810000Y-81280000D03*
X128270000Y-81280000D03*
X125730000Y-81280000D03*
X123190000Y-81280000D03*
X120650000Y-81280000D03*
D13*
X120650000Y-129540000D03*
X123190000Y-129540000D03*
X125730000Y-129540000D03*
X128270000Y-129540000D03*
X130810000Y-129540000D03*
X133350000Y-129540000D03*
X135890000Y-129540000D03*
X138430000Y-129540000D03*
X142494000Y-129540000D03*
X145034000Y-129540000D03*
X147574000Y-129540000D03*
X150114000Y-129540000D03*
X152654000Y-129540000D03*
X155194000Y-129540000D03*
X157734000Y-129540000D03*
X160271460Y-129540000D03*
X162814000Y-129540000D03*
X165354000Y-129540000D03*
D11*
X146050000Y-105410000D03*
X147846051Y-107206051D03*
X144253949Y-103613949D03*
X171450000Y-120650000D03*
X181610000Y-120650000D03*
X171450000Y-115570000D03*
X181610000Y-115570000D03*
X171450000Y-110490000D03*
X181610000Y-110490000D03*
X171450000Y-105410000D03*
X181610000Y-105410000D03*
X171450000Y-100330000D03*
X181610000Y-100330000D03*
X171450000Y-95250000D03*
X181610000Y-95250000D03*
D14*
X129067816Y-97266650D03*
X132603350Y-100802184D03*
X141442184Y-91963350D03*
X137906650Y-88427816D03*
D11*
X140027971Y-99387971D03*
X130482029Y-89842029D03*
D14*
X138014228Y-122344964D03*
X141487520Y-118748265D03*
X132495772Y-110065036D03*
X129022480Y-113661735D03*
D11*
X139943944Y-111349456D03*
X130566056Y-121060544D03*
D14*
X163032184Y-113553350D03*
X159496650Y-110017816D03*
X150657816Y-118856650D03*
X154193350Y-122392184D03*
D11*
X152072029Y-111432029D03*
X161617971Y-120977971D03*
D14*
X154193350Y-88427816D03*
X150657816Y-91963350D03*
X159496650Y-100802184D03*
X163032184Y-97266650D03*
D11*
X152072029Y-99387971D03*
X161617971Y-89842029D03*
M02*
