G04 #@! TF.FileFunction,Profile,NP*
%FSLAX46Y46*%
G04 Gerber Fmt 4.6, Leading zero omitted, Abs format (unit mm)*
G04 Created by KiCad (PCBNEW 4.0.7) date 05/29/18 16:24:36*
%MOMM*%
%LPD*%
G01*
G04 APERTURE LIST*
%ADD10C,0.100000*%
%ADD11C,0.381000*%
G04 APERTURE END LIST*
D10*
D11*
X119380000Y-132080000D02*
X182880000Y-132080000D01*
X182880000Y-78740000D02*
X119380000Y-78740000D01*
X115570000Y-83820000D02*
X115570000Y-116840000D01*
X115570000Y-83820000D02*
X118110000Y-81280000D01*
X118110000Y-81280000D02*
X118110000Y-80010000D01*
X118110000Y-130810000D02*
X118110000Y-119380000D01*
X118110000Y-119380000D02*
X115570000Y-116840000D01*
X119380000Y-132080000D02*
X118110000Y-130810000D01*
X182880000Y-132080000D02*
G75*
G03X184150000Y-130810000I0J1270000D01*
G01*
X184150000Y-80010000D02*
X184150000Y-130810000D01*
X184150000Y-80010000D02*
G75*
G03X182880000Y-78740000I-1270000J0D01*
G01*
X119380000Y-78740000D02*
G75*
G03X118110000Y-80010000I0J-1270000D01*
G01*
D10*
X156922000Y-81617820D02*
X156922000Y-80942180D01*
X155498000Y-81617820D02*
X155498000Y-80942180D01*
X156922000Y-80942180D02*
G75*
G03X155498000Y-80942180I-712000J0D01*
G01*
X155498000Y-81617820D02*
G75*
G03X156922000Y-81617820I712000J0D01*
G01*
X154382000Y-81617820D02*
X154382000Y-80942180D01*
X152958000Y-81617820D02*
X152958000Y-80942180D01*
X154382000Y-80942180D02*
G75*
G03X152958000Y-80942180I-712000J0D01*
G01*
X152958000Y-81617820D02*
G75*
G03X154382000Y-81617820I712000J0D01*
G01*
X151842000Y-81617820D02*
X151842000Y-80942180D01*
X150418000Y-81617820D02*
X150418000Y-80942180D01*
X151842000Y-80942180D02*
G75*
G03X150418000Y-80942180I-712000J0D01*
G01*
X150418000Y-81617820D02*
G75*
G03X151842000Y-81617820I712000J0D01*
G01*
X149302000Y-81617820D02*
X149302000Y-80942180D01*
X147878000Y-81617820D02*
X147878000Y-80942180D01*
X149302000Y-80942180D02*
G75*
G03X147878000Y-80942180I-712000J0D01*
G01*
X147878000Y-81617820D02*
G75*
G03X149302000Y-81617820I712000J0D01*
G01*
X146762000Y-81617820D02*
X146762000Y-80942180D01*
X145338000Y-81617820D02*
X145338000Y-80942180D01*
X146762000Y-80942180D02*
G75*
G03X145338000Y-80942180I-712000J0D01*
G01*
X145338000Y-81617820D02*
G75*
G03X146762000Y-81617820I712000J0D01*
G01*
X144222000Y-81617820D02*
X144222000Y-80942180D01*
X142798000Y-81617820D02*
X142798000Y-80942180D01*
X144222000Y-80942180D02*
G75*
G03X142798000Y-80942180I-712000J0D01*
G01*
X142798000Y-81617820D02*
G75*
G03X144222000Y-81617820I712000J0D01*
G01*
X141682000Y-81617820D02*
X141682000Y-80942180D01*
X140258000Y-81617820D02*
X140258000Y-80942180D01*
X141682000Y-80942180D02*
G75*
G03X140258000Y-80942180I-712000J0D01*
G01*
X140258000Y-81617820D02*
G75*
G03X141682000Y-81617820I712000J0D01*
G01*
X139142000Y-81617820D02*
X139142000Y-80942180D01*
X137718000Y-81617820D02*
X137718000Y-80942180D01*
X139142000Y-80942180D02*
G75*
G03X137718000Y-80942180I-712000J0D01*
G01*
X137718000Y-81617820D02*
G75*
G03X139142000Y-81617820I712000J0D01*
G01*
X134062000Y-81617820D02*
X134062000Y-80942180D01*
X132638000Y-81617820D02*
X132638000Y-80942180D01*
X134062000Y-80942180D02*
G75*
G03X132638000Y-80942180I-712000J0D01*
G01*
X132638000Y-81617820D02*
G75*
G03X134062000Y-81617820I712000J0D01*
G01*
X131522000Y-81617820D02*
X131522000Y-80942180D01*
X130098000Y-81617820D02*
X130098000Y-80942180D01*
X131522000Y-80942180D02*
G75*
G03X130098000Y-80942180I-712000J0D01*
G01*
X130098000Y-81617820D02*
G75*
G03X131522000Y-81617820I712000J0D01*
G01*
X128982000Y-81617820D02*
X128982000Y-80942180D01*
X127558000Y-81617820D02*
X127558000Y-80942180D01*
X128982000Y-80942180D02*
G75*
G03X127558000Y-80942180I-712000J0D01*
G01*
X127558000Y-81617820D02*
G75*
G03X128982000Y-81617820I712000J0D01*
G01*
X126442000Y-81617820D02*
X126442000Y-80942180D01*
X125018000Y-81617820D02*
X125018000Y-80942180D01*
X126442000Y-80942180D02*
G75*
G03X125018000Y-80942180I-712000J0D01*
G01*
X125018000Y-81617820D02*
G75*
G03X126442000Y-81617820I712000J0D01*
G01*
X123902000Y-81617820D02*
X123902000Y-80942180D01*
X122478000Y-81617820D02*
X122478000Y-80942180D01*
X123902000Y-80942180D02*
G75*
G03X122478000Y-80942180I-712000J0D01*
G01*
X122478000Y-81617820D02*
G75*
G03X123902000Y-81617820I712000J0D01*
G01*
X121362000Y-81617820D02*
X121362000Y-80942180D01*
X119938000Y-81617820D02*
X119938000Y-80942180D01*
X121362000Y-80942180D02*
G75*
G03X119938000Y-80942180I-712000J0D01*
G01*
X119938000Y-81617820D02*
G75*
G03X121362000Y-81617820I712000J0D01*
G01*
X121362000Y-129876550D02*
X121362000Y-129203450D01*
X119938000Y-129876550D02*
X119938000Y-129203450D01*
X121362000Y-129203450D02*
G75*
G03X119938000Y-129203450I-712000J0D01*
G01*
X119938000Y-129876550D02*
G75*
G03X121362000Y-129876550I712000J0D01*
G01*
X123902000Y-129876550D02*
X123902000Y-129203450D01*
X122478000Y-129876550D02*
X122478000Y-129203450D01*
X123902000Y-129203450D02*
G75*
G03X122478000Y-129203450I-712000J0D01*
G01*
X122478000Y-129876550D02*
G75*
G03X123902000Y-129876550I712000J0D01*
G01*
X126442000Y-129876550D02*
X126442000Y-129203450D01*
X125018000Y-129876550D02*
X125018000Y-129203450D01*
X126442000Y-129203450D02*
G75*
G03X125018000Y-129203450I-712000J0D01*
G01*
X125018000Y-129876550D02*
G75*
G03X126442000Y-129876550I712000J0D01*
G01*
X128982000Y-129876550D02*
X128982000Y-129203450D01*
X127558000Y-129876550D02*
X127558000Y-129203450D01*
X128982000Y-129203450D02*
G75*
G03X127558000Y-129203450I-712000J0D01*
G01*
X127558000Y-129876550D02*
G75*
G03X128982000Y-129876550I712000J0D01*
G01*
X131522000Y-129876550D02*
X131522000Y-129203450D01*
X130098000Y-129876550D02*
X130098000Y-129203450D01*
X131522000Y-129203450D02*
G75*
G03X130098000Y-129203450I-712000J0D01*
G01*
X130098000Y-129876550D02*
G75*
G03X131522000Y-129876550I712000J0D01*
G01*
X134062000Y-129876550D02*
X134062000Y-129203450D01*
X132638000Y-129876550D02*
X132638000Y-129203450D01*
X134062000Y-129203450D02*
G75*
G03X132638000Y-129203450I-712000J0D01*
G01*
X132638000Y-129876550D02*
G75*
G03X134062000Y-129876550I712000J0D01*
G01*
X136602000Y-129876550D02*
X136602000Y-129203450D01*
X135178000Y-129876550D02*
X135178000Y-129203450D01*
X136602000Y-129203450D02*
G75*
G03X135178000Y-129203450I-712000J0D01*
G01*
X135178000Y-129876550D02*
G75*
G03X136602000Y-129876550I712000J0D01*
G01*
X139142000Y-129876550D02*
X139142000Y-129203450D01*
X137718000Y-129876550D02*
X137718000Y-129203450D01*
X139142000Y-129203450D02*
G75*
G03X137718000Y-129203450I-712000J0D01*
G01*
X137718000Y-129876550D02*
G75*
G03X139142000Y-129876550I712000J0D01*
G01*
X143206000Y-129876550D02*
X143206000Y-129203450D01*
X141782000Y-129876550D02*
X141782000Y-129203450D01*
X143206000Y-129203450D02*
G75*
G03X141782000Y-129203450I-712000J0D01*
G01*
X141782000Y-129876550D02*
G75*
G03X143206000Y-129876550I712000J0D01*
G01*
X145746000Y-129876550D02*
X145746000Y-129203450D01*
X144322000Y-129876550D02*
X144322000Y-129203450D01*
X145746000Y-129203450D02*
G75*
G03X144322000Y-129203450I-712000J0D01*
G01*
X144322000Y-129876550D02*
G75*
G03X145746000Y-129876550I712000J0D01*
G01*
X148286000Y-129876550D02*
X148286000Y-129203450D01*
X146862000Y-129876550D02*
X146862000Y-129203450D01*
X148286000Y-129203450D02*
G75*
G03X146862000Y-129203450I-712000J0D01*
G01*
X146862000Y-129876550D02*
G75*
G03X148286000Y-129876550I712000J0D01*
G01*
X150826000Y-129876550D02*
X150826000Y-129203450D01*
X149402000Y-129876550D02*
X149402000Y-129203450D01*
X150826000Y-129203450D02*
G75*
G03X149402000Y-129203450I-712000J0D01*
G01*
X149402000Y-129876550D02*
G75*
G03X150826000Y-129876550I712000J0D01*
G01*
X153366000Y-129876550D02*
X153366000Y-129203450D01*
X151942000Y-129876550D02*
X151942000Y-129203450D01*
X153366000Y-129203450D02*
G75*
G03X151942000Y-129203450I-712000J0D01*
G01*
X151942000Y-129876550D02*
G75*
G03X153366000Y-129876550I712000J0D01*
G01*
X155906000Y-129876550D02*
X155906000Y-129203450D01*
X154482000Y-129876550D02*
X154482000Y-129203450D01*
X155906000Y-129203450D02*
G75*
G03X154482000Y-129203450I-712000J0D01*
G01*
X154482000Y-129876550D02*
G75*
G03X155906000Y-129876550I712000J0D01*
G01*
X158446000Y-129876550D02*
X158446000Y-129203450D01*
X157022000Y-129876550D02*
X157022000Y-129203450D01*
X158446000Y-129203450D02*
G75*
G03X157022000Y-129203450I-712000J0D01*
G01*
X157022000Y-129876550D02*
G75*
G03X158446000Y-129876550I712000J0D01*
G01*
X160983460Y-129876550D02*
X160983460Y-129203450D01*
X159559460Y-129876550D02*
X159559460Y-129203450D01*
X160983460Y-129203450D02*
G75*
G03X159559460Y-129203450I-712000J0D01*
G01*
X159559460Y-129876550D02*
G75*
G03X160983460Y-129876550I712000J0D01*
G01*
X163526000Y-129876550D02*
X163526000Y-129203450D01*
X162102000Y-129876550D02*
X162102000Y-129203450D01*
X163526000Y-129203450D02*
G75*
G03X162102000Y-129203450I-712000J0D01*
G01*
X162102000Y-129876550D02*
G75*
G03X163526000Y-129876550I712000J0D01*
G01*
X166066000Y-129876550D02*
X166066000Y-129203450D01*
X164642000Y-129876550D02*
X164642000Y-129203450D01*
X166066000Y-129203450D02*
G75*
G03X164642000Y-129203450I-712000J0D01*
G01*
X164642000Y-129876550D02*
G75*
G03X166066000Y-129876550I712000J0D01*
G01*
M02*
