G04 #@! TF.FileFunction,Legend,Top*
%FSLAX46Y46*%
G04 Gerber Fmt 4.6, Leading zero omitted, Abs format (unit mm)*
G04 Created by KiCad (PCBNEW 4.0.7) date 05/30/18 00:05:28*
%MOMM*%
%LPD*%
G01*
G04 APERTURE LIST*
%ADD10C,0.100000*%
%ADD11C,0.300000*%
%ADD12C,0.200000*%
%ADD13C,0.750000*%
%ADD14C,1.000000*%
%ADD15C,0.150000*%
%ADD16C,0.198120*%
G04 APERTURE END LIST*
D10*
D11*
X126123426Y-122537056D02*
X126224442Y-122739086D01*
X126476980Y-122991624D01*
X126628503Y-123042132D01*
X126729518Y-123042132D01*
X126881041Y-122991624D01*
X126982056Y-122890609D01*
X127032564Y-122739087D01*
X127032564Y-122638071D01*
X126982056Y-122486549D01*
X126830534Y-122234010D01*
X126780025Y-122082487D01*
X126780026Y-121981472D01*
X126830533Y-121829949D01*
X126931548Y-121728934D01*
X127083071Y-121678427D01*
X127184086Y-121678426D01*
X127335610Y-121728934D01*
X127588148Y-121981472D01*
X127689163Y-122183503D01*
X127689163Y-122789593D02*
X128093224Y-123193655D01*
X128194239Y-122587563D02*
X127285101Y-123496701D01*
X127234593Y-123648223D01*
X127285102Y-123799746D01*
X127386117Y-123900762D01*
X128194239Y-124708883D02*
X128749823Y-124153300D01*
X128800330Y-124001777D01*
X128749823Y-123850254D01*
X128547793Y-123648223D01*
X128396269Y-123597716D01*
X128244746Y-124658376D02*
X128093224Y-124607868D01*
X127840686Y-124355330D01*
X127790178Y-124203808D01*
X127840685Y-124052285D01*
X127941700Y-123951269D01*
X128093224Y-123900762D01*
X128244746Y-123951269D01*
X128497285Y-124203808D01*
X128648808Y-124254315D01*
X128699316Y-125213960D02*
X129406422Y-124506853D01*
X129204391Y-124708884D02*
X129355914Y-124658376D01*
X129456930Y-124658376D01*
X129608453Y-124708883D01*
X129709468Y-124809899D01*
X129911498Y-125011929D02*
X130315560Y-125415990D01*
X130416575Y-124809899D02*
X129507437Y-125719036D01*
X129456929Y-125870559D01*
X129507438Y-126022082D01*
X129608453Y-126123097D01*
D12*
X161925000Y-85725000D02*
X163195000Y-84455000D01*
X161290000Y-85725000D02*
X161925000Y-85725000D01*
X161290000Y-86995000D02*
X161290000Y-85725000D01*
X161925000Y-86995000D02*
X161290000Y-86995000D01*
X163195000Y-88265000D02*
X161925000Y-86995000D01*
X163195000Y-84455000D02*
X163195000Y-88265000D01*
X127000000Y-85725000D02*
X128270000Y-84455000D01*
X126365000Y-85725000D02*
X127000000Y-85725000D01*
X126365000Y-86995000D02*
X126365000Y-85725000D01*
X127000000Y-86995000D02*
X126365000Y-86995000D01*
X128270000Y-88265000D02*
X127000000Y-86995000D01*
X128270000Y-84455000D02*
X128270000Y-88265000D01*
X128905000Y-87630000D02*
G75*
G03X128905000Y-85090000I-1270000J1270000D01*
G01*
X165735000Y-89535000D02*
G75*
G03X165735000Y-83185000I-3175000J3175000D01*
G01*
X165100000Y-88900000D02*
G75*
G03X165100000Y-83820000I-2540000J2540000D01*
G01*
X164465000Y-88265000D02*
G75*
G03X164465000Y-84455000I-1905000J1905000D01*
G01*
X163830000Y-87630000D02*
G75*
G03X163830000Y-85090000I-1270000J1270000D01*
G01*
D13*
X170480295Y-130569745D02*
X170927162Y-130636011D01*
X171630596Y-130511976D01*
X171887163Y-130321676D01*
X172003042Y-130156182D01*
X172094115Y-129850001D01*
X172044502Y-129568628D01*
X171854201Y-129312061D01*
X171688708Y-129196181D01*
X171382527Y-129105107D01*
X170794973Y-129063648D01*
X170488792Y-128972575D01*
X170323299Y-128856696D01*
X170132998Y-128600129D01*
X170083385Y-128318755D01*
X170174458Y-128012574D01*
X170290337Y-127847081D01*
X170546904Y-127656781D01*
X171250338Y-127532746D01*
X171697205Y-127599012D01*
X173459525Y-130189487D02*
X172938580Y-127235063D01*
X174725706Y-129966225D02*
X174452830Y-128418669D01*
X174262530Y-128162103D01*
X173956350Y-128071030D01*
X173534289Y-128145451D01*
X173277722Y-128335751D01*
X173161842Y-128501245D01*
X176132575Y-129718156D02*
X175785278Y-127748540D01*
X175611630Y-126763733D02*
X175495750Y-126929226D01*
X175661244Y-127045106D01*
X175777124Y-126879612D01*
X175611630Y-126763733D01*
X175661244Y-127045106D01*
X178640130Y-129130945D02*
X178383564Y-129321246D01*
X177820816Y-129420473D01*
X177514636Y-129329400D01*
X177324335Y-129072833D01*
X177125880Y-127947339D01*
X177216953Y-127641158D01*
X177473520Y-127450858D01*
X178036267Y-127351630D01*
X178342448Y-127442703D01*
X178532748Y-127699270D01*
X178582362Y-127980644D01*
X177225108Y-128510086D01*
X180493866Y-128949143D02*
X180187686Y-128858070D01*
X179997385Y-128601502D01*
X179550861Y-126069140D01*
X182885542Y-128527426D02*
X182364598Y-125573002D01*
X182860736Y-128386739D02*
X182604169Y-128577039D01*
X182041421Y-128676267D01*
X181735241Y-128585194D01*
X181569748Y-128469314D01*
X181379447Y-128212747D01*
X181230606Y-127368625D01*
X181321679Y-127062445D01*
X181437559Y-126896952D01*
X181694125Y-126706651D01*
X182256873Y-126607424D01*
X182563053Y-126698497D01*
X164835639Y-127382341D02*
X165282506Y-127448607D01*
X165985940Y-127324573D01*
X166242506Y-127134272D01*
X166358386Y-126968779D01*
X166449459Y-126662598D01*
X166399845Y-126381224D01*
X166209545Y-126124658D01*
X166044051Y-126008778D01*
X165737871Y-125917704D01*
X165150316Y-125876245D01*
X164844136Y-125785172D01*
X164678643Y-125669292D01*
X164488342Y-125412726D01*
X164438728Y-125131351D01*
X164529801Y-124825171D01*
X164645681Y-124659677D01*
X164902248Y-124469377D01*
X165605682Y-124345343D01*
X166052549Y-124411609D01*
X167814869Y-127002083D02*
X167467572Y-125032468D01*
X167293924Y-124047660D02*
X167178044Y-124213153D01*
X167343538Y-124329033D01*
X167459418Y-124163540D01*
X167293924Y-124047660D01*
X167343538Y-124329033D01*
X169221737Y-126754014D02*
X168874440Y-124784399D01*
X168924054Y-125065772D02*
X169039934Y-124900279D01*
X169296500Y-124709978D01*
X169718561Y-124635558D01*
X170024742Y-124726631D01*
X170215042Y-124983197D01*
X170487918Y-126530753D01*
X170215042Y-124983197D02*
X170306115Y-124677017D01*
X170562681Y-124486716D01*
X170984742Y-124412296D01*
X171290923Y-124503369D01*
X171481223Y-124759935D01*
X171754099Y-126307491D01*
X173583028Y-125985001D02*
X173276847Y-125893928D01*
X173111354Y-125778048D01*
X172921053Y-125521481D01*
X172772212Y-124677360D01*
X172863285Y-124371180D01*
X172979165Y-124205686D01*
X173235731Y-124015386D01*
X173657792Y-123940965D01*
X173963973Y-124032038D01*
X174129466Y-124147918D01*
X174319766Y-124404484D01*
X174468608Y-125248605D01*
X174377535Y-125554786D01*
X174261655Y-125720280D01*
X174005089Y-125910580D01*
X173583028Y-125985001D01*
X175486721Y-123618475D02*
X175834017Y-125588091D01*
X175536335Y-123899849D02*
X175652215Y-123734355D01*
X175908781Y-123544055D01*
X176330842Y-123469634D01*
X176637022Y-123560707D01*
X176827323Y-123817274D01*
X177100199Y-125364829D01*
D14*
X146050000Y-96520000D02*
X146050000Y-83185000D01*
X146050000Y-114300000D02*
X146050000Y-127635000D01*
X137160000Y-105410000D02*
X123825000Y-105410000D01*
X154940000Y-105410000D02*
X168275000Y-105410000D01*
X154940000Y-105410000D02*
G75*
G03X154940000Y-105410000I-8890000J0D01*
G01*
X168275000Y-105410000D02*
G75*
G03X168275000Y-105410000I-22225000J0D01*
G01*
D15*
X181766344Y-86360000D02*
G75*
G03X181766344Y-86360000I-5236344J0D01*
G01*
X149860000Y-105410000D02*
G75*
G03X149860000Y-105410000I-3810000J0D01*
G01*
X173355000Y-120650000D02*
X173355000Y-121920000D01*
X173355000Y-121920000D02*
X179705000Y-121920000D01*
X179705000Y-121920000D02*
X179705000Y-120650000D01*
X171450000Y-120650000D02*
X173355000Y-120650000D01*
X173355000Y-120650000D02*
X173355000Y-119380000D01*
X173355000Y-119380000D02*
X179705000Y-119380000D01*
X179705000Y-119380000D02*
X179705000Y-120650000D01*
X179705000Y-120650000D02*
X181610000Y-120650000D01*
X173355000Y-115570000D02*
X173355000Y-116840000D01*
X173355000Y-116840000D02*
X179705000Y-116840000D01*
X179705000Y-116840000D02*
X179705000Y-115570000D01*
X171450000Y-115570000D02*
X173355000Y-115570000D01*
X173355000Y-115570000D02*
X173355000Y-114300000D01*
X173355000Y-114300000D02*
X179705000Y-114300000D01*
X179705000Y-114300000D02*
X179705000Y-115570000D01*
X179705000Y-115570000D02*
X181610000Y-115570000D01*
X173355000Y-110490000D02*
X173355000Y-111760000D01*
X173355000Y-111760000D02*
X179705000Y-111760000D01*
X179705000Y-111760000D02*
X179705000Y-110490000D01*
X171450000Y-110490000D02*
X173355000Y-110490000D01*
X173355000Y-110490000D02*
X173355000Y-109220000D01*
X173355000Y-109220000D02*
X179705000Y-109220000D01*
X179705000Y-109220000D02*
X179705000Y-110490000D01*
X179705000Y-110490000D02*
X181610000Y-110490000D01*
X173355000Y-105410000D02*
X173355000Y-106680000D01*
X173355000Y-106680000D02*
X179705000Y-106680000D01*
X179705000Y-106680000D02*
X179705000Y-105410000D01*
X171450000Y-105410000D02*
X173355000Y-105410000D01*
X173355000Y-105410000D02*
X173355000Y-104140000D01*
X173355000Y-104140000D02*
X179705000Y-104140000D01*
X179705000Y-104140000D02*
X179705000Y-105410000D01*
X179705000Y-105410000D02*
X181610000Y-105410000D01*
X173355000Y-100330000D02*
X173355000Y-101600000D01*
X173355000Y-101600000D02*
X179705000Y-101600000D01*
X179705000Y-101600000D02*
X179705000Y-100330000D01*
X171450000Y-100330000D02*
X173355000Y-100330000D01*
X173355000Y-100330000D02*
X173355000Y-99060000D01*
X173355000Y-99060000D02*
X179705000Y-99060000D01*
X179705000Y-99060000D02*
X179705000Y-100330000D01*
X179705000Y-100330000D02*
X181610000Y-100330000D01*
X173355000Y-95250000D02*
X173355000Y-96520000D01*
X173355000Y-96520000D02*
X179705000Y-96520000D01*
X179705000Y-96520000D02*
X179705000Y-95250000D01*
X171450000Y-95250000D02*
X173355000Y-95250000D01*
X173355000Y-95250000D02*
X173355000Y-93980000D01*
X173355000Y-93980000D02*
X179705000Y-93980000D01*
X179705000Y-93980000D02*
X179705000Y-95250000D01*
X179705000Y-95250000D02*
X181610000Y-95250000D01*
X128007155Y-95145330D02*
X128007155Y-94084670D01*
X128007155Y-94084670D02*
X134724670Y-87367155D01*
X134724670Y-87367155D02*
X135785330Y-87367155D01*
X135785330Y-87367155D02*
X142502845Y-94084670D01*
X142502845Y-94084670D02*
X142502845Y-95145330D01*
X142502845Y-95145330D02*
X135785330Y-101862845D01*
X135785330Y-101862845D02*
X134724670Y-101862845D01*
X134724670Y-101862845D02*
X128007155Y-95145330D01*
X135911742Y-123442485D02*
X134851243Y-123460996D01*
X134851243Y-123460996D02*
X128017515Y-116861742D01*
X128017515Y-116861742D02*
X127999004Y-115801243D01*
X127999004Y-115801243D02*
X134598258Y-108967515D01*
X134598258Y-108967515D02*
X135658757Y-108949004D01*
X135658757Y-108949004D02*
X142492485Y-115548258D01*
X142492485Y-115548258D02*
X142510996Y-116608757D01*
X142510996Y-116608757D02*
X135911742Y-123442485D01*
X164092845Y-115674670D02*
X164092845Y-116735330D01*
X164092845Y-116735330D02*
X157375330Y-123452845D01*
X157375330Y-123452845D02*
X156314670Y-123452845D01*
X156314670Y-123452845D02*
X149597155Y-116735330D01*
X149597155Y-116735330D02*
X149597155Y-115674670D01*
X149597155Y-115674670D02*
X156314670Y-108957155D01*
X156314670Y-108957155D02*
X157375330Y-108957155D01*
X157375330Y-108957155D02*
X164092845Y-115674670D01*
X156314670Y-87367155D02*
X157375330Y-87367155D01*
X157375330Y-87367155D02*
X164092845Y-94084670D01*
X164092845Y-94084670D02*
X164092845Y-95145330D01*
X164092845Y-95145330D02*
X157375330Y-101862845D01*
X157375330Y-101862845D02*
X156314670Y-101862845D01*
X156314670Y-101862845D02*
X149597155Y-95145330D01*
X149597155Y-95145330D02*
X149597155Y-94084670D01*
X149597155Y-94084670D02*
X156314670Y-87367155D01*
D16*
X175650615Y-86288699D02*
X175793218Y-86336233D01*
X175840753Y-86383767D01*
X175888287Y-86478836D01*
X175888287Y-86621439D01*
X175840753Y-86716507D01*
X175793218Y-86764041D01*
X175698150Y-86811576D01*
X175317875Y-86811576D01*
X175317875Y-85813356D01*
X175650615Y-85813356D01*
X175745684Y-85860890D01*
X175793218Y-85908424D01*
X175840753Y-86003493D01*
X175840753Y-86098561D01*
X175793218Y-86193630D01*
X175745684Y-86241164D01*
X175650615Y-86288699D01*
X175317875Y-86288699D01*
X176221027Y-85813356D02*
X176886507Y-85813356D01*
X176221027Y-86811576D01*
X176886507Y-86811576D01*
X177456919Y-85813356D02*
X177551987Y-85813356D01*
X177647056Y-85860890D01*
X177694590Y-85908424D01*
X177742124Y-86003493D01*
X177789659Y-86193630D01*
X177789659Y-86431301D01*
X177742124Y-86621439D01*
X177694590Y-86716507D01*
X177647056Y-86764041D01*
X177551987Y-86811576D01*
X177456919Y-86811576D01*
X177361850Y-86764041D01*
X177314316Y-86716507D01*
X177266781Y-86621439D01*
X177219247Y-86431301D01*
X177219247Y-86193630D01*
X177266781Y-86003493D01*
X177314316Y-85908424D01*
X177361850Y-85860890D01*
X177456919Y-85813356D01*
D15*
X143668833Y-106208596D02*
X143332115Y-105871878D01*
X144039222Y-105164771D01*
X144274924Y-106073908D02*
X144510627Y-106309611D01*
X144241253Y-106781016D02*
X143904535Y-106444298D01*
X144611641Y-105737191D01*
X144948359Y-106073909D01*
X144544298Y-107084061D02*
X145251405Y-106376955D01*
X145419763Y-106545313D01*
X145487107Y-106680001D01*
X145487107Y-106814688D01*
X145453436Y-106915703D01*
X145352421Y-107084061D01*
X145251405Y-107185077D01*
X145083046Y-107286092D01*
X144982031Y-107319764D01*
X144847344Y-107319764D01*
X144712657Y-107252420D01*
X144544298Y-107084061D01*
X146025856Y-107622810D02*
X145554451Y-108094214D01*
X146126870Y-107185076D02*
X145453435Y-107521794D01*
X145891168Y-107959527D01*
X146588748Y-103445590D02*
X146555076Y-103344575D01*
X146454061Y-103243560D01*
X146319374Y-103176216D01*
X146184687Y-103176216D01*
X146083672Y-103209888D01*
X145915313Y-103310903D01*
X145814297Y-103411919D01*
X145713282Y-103580277D01*
X145679610Y-103681292D01*
X145679610Y-103815979D01*
X145746955Y-103950667D01*
X145814298Y-104018010D01*
X145948985Y-104085354D01*
X146016328Y-104085354D01*
X146252030Y-103849652D01*
X146117343Y-103714965D01*
X147745036Y-105948748D02*
X147846051Y-105376328D01*
X147340975Y-105544687D02*
X148048081Y-104837580D01*
X148317456Y-105106955D01*
X148351127Y-105207970D01*
X148351127Y-105275313D01*
X148317456Y-105376328D01*
X148216441Y-105477343D01*
X148115425Y-105511015D01*
X148048082Y-105511015D01*
X147947067Y-105477343D01*
X147677692Y-105207969D01*
X176363334Y-121102381D02*
X176030000Y-120626190D01*
X175791905Y-121102381D02*
X175791905Y-120102381D01*
X176172858Y-120102381D01*
X176268096Y-120150000D01*
X176315715Y-120197619D01*
X176363334Y-120292857D01*
X176363334Y-120435714D01*
X176315715Y-120530952D01*
X176268096Y-120578571D01*
X176172858Y-120626190D01*
X175791905Y-120626190D01*
X176982381Y-120102381D02*
X177077620Y-120102381D01*
X177172858Y-120150000D01*
X177220477Y-120197619D01*
X177268096Y-120292857D01*
X177315715Y-120483333D01*
X177315715Y-120721429D01*
X177268096Y-120911905D01*
X177220477Y-121007143D01*
X177172858Y-121054762D01*
X177077620Y-121102381D01*
X176982381Y-121102381D01*
X176887143Y-121054762D01*
X176839524Y-121007143D01*
X176791905Y-120911905D01*
X176744286Y-120721429D01*
X176744286Y-120483333D01*
X176791905Y-120292857D01*
X176839524Y-120197619D01*
X176887143Y-120150000D01*
X176982381Y-120102381D01*
X176363334Y-116022381D02*
X176030000Y-115546190D01*
X175791905Y-116022381D02*
X175791905Y-115022381D01*
X176172858Y-115022381D01*
X176268096Y-115070000D01*
X176315715Y-115117619D01*
X176363334Y-115212857D01*
X176363334Y-115355714D01*
X176315715Y-115450952D01*
X176268096Y-115498571D01*
X176172858Y-115546190D01*
X175791905Y-115546190D01*
X177315715Y-116022381D02*
X176744286Y-116022381D01*
X177030000Y-116022381D02*
X177030000Y-115022381D01*
X176934762Y-115165238D01*
X176839524Y-115260476D01*
X176744286Y-115308095D01*
X176363334Y-110942381D02*
X176030000Y-110466190D01*
X175791905Y-110942381D02*
X175791905Y-109942381D01*
X176172858Y-109942381D01*
X176268096Y-109990000D01*
X176315715Y-110037619D01*
X176363334Y-110132857D01*
X176363334Y-110275714D01*
X176315715Y-110370952D01*
X176268096Y-110418571D01*
X176172858Y-110466190D01*
X175791905Y-110466190D01*
X176744286Y-110037619D02*
X176791905Y-109990000D01*
X176887143Y-109942381D01*
X177125239Y-109942381D01*
X177220477Y-109990000D01*
X177268096Y-110037619D01*
X177315715Y-110132857D01*
X177315715Y-110228095D01*
X177268096Y-110370952D01*
X176696667Y-110942381D01*
X177315715Y-110942381D01*
X176363334Y-105862381D02*
X176030000Y-105386190D01*
X175791905Y-105862381D02*
X175791905Y-104862381D01*
X176172858Y-104862381D01*
X176268096Y-104910000D01*
X176315715Y-104957619D01*
X176363334Y-105052857D01*
X176363334Y-105195714D01*
X176315715Y-105290952D01*
X176268096Y-105338571D01*
X176172858Y-105386190D01*
X175791905Y-105386190D01*
X176696667Y-104862381D02*
X177315715Y-104862381D01*
X176982381Y-105243333D01*
X177125239Y-105243333D01*
X177220477Y-105290952D01*
X177268096Y-105338571D01*
X177315715Y-105433810D01*
X177315715Y-105671905D01*
X177268096Y-105767143D01*
X177220477Y-105814762D01*
X177125239Y-105862381D01*
X176839524Y-105862381D01*
X176744286Y-105814762D01*
X176696667Y-105767143D01*
X176363334Y-100782381D02*
X176030000Y-100306190D01*
X175791905Y-100782381D02*
X175791905Y-99782381D01*
X176172858Y-99782381D01*
X176268096Y-99830000D01*
X176315715Y-99877619D01*
X176363334Y-99972857D01*
X176363334Y-100115714D01*
X176315715Y-100210952D01*
X176268096Y-100258571D01*
X176172858Y-100306190D01*
X175791905Y-100306190D01*
X177220477Y-100115714D02*
X177220477Y-100782381D01*
X176982381Y-99734762D02*
X176744286Y-100449048D01*
X177363334Y-100449048D01*
X176363334Y-95702381D02*
X176030000Y-95226190D01*
X175791905Y-95702381D02*
X175791905Y-94702381D01*
X176172858Y-94702381D01*
X176268096Y-94750000D01*
X176315715Y-94797619D01*
X176363334Y-94892857D01*
X176363334Y-95035714D01*
X176315715Y-95130952D01*
X176268096Y-95178571D01*
X176172858Y-95226190D01*
X175791905Y-95226190D01*
X177268096Y-94702381D02*
X176791905Y-94702381D01*
X176744286Y-95178571D01*
X176791905Y-95130952D01*
X176887143Y-95083333D01*
X177125239Y-95083333D01*
X177220477Y-95130952D01*
X177268096Y-95178571D01*
X177315715Y-95273810D01*
X177315715Y-95511905D01*
X177268096Y-95607143D01*
X177220477Y-95654762D01*
X177125239Y-95702381D01*
X176887143Y-95702381D01*
X176791905Y-95654762D01*
X176744286Y-95607143D01*
X134951954Y-95490466D02*
X135086641Y-95423122D01*
X135255000Y-95254763D01*
X135288672Y-95153748D01*
X135288672Y-95086404D01*
X135255000Y-94985389D01*
X135187657Y-94918046D01*
X135086642Y-94884374D01*
X135019298Y-94884374D01*
X134918282Y-94918045D01*
X134749923Y-95019061D01*
X134648908Y-95052733D01*
X134581565Y-95052733D01*
X134480549Y-95019061D01*
X134413206Y-94951718D01*
X134379534Y-94850702D01*
X134379534Y-94783359D01*
X134413206Y-94682344D01*
X134581565Y-94513985D01*
X134716252Y-94446641D01*
X134918282Y-94177267D02*
X135793748Y-94716016D01*
X135423359Y-94076251D01*
X136063122Y-94446641D01*
X135524374Y-93571176D01*
X135928435Y-93167115D02*
X135995779Y-93099771D01*
X136096794Y-93066099D01*
X136164137Y-93066099D01*
X136265153Y-93099771D01*
X136433511Y-93200786D01*
X136601870Y-93369145D01*
X136702886Y-93537504D01*
X136736557Y-93638519D01*
X136736557Y-93705863D01*
X136702886Y-93806878D01*
X136635541Y-93874222D01*
X136534526Y-93907894D01*
X136467183Y-93907894D01*
X136366168Y-93874222D01*
X136197809Y-93773207D01*
X136029450Y-93604847D01*
X135928435Y-93436489D01*
X135894763Y-93335474D01*
X135894763Y-93268130D01*
X135928435Y-93167115D01*
X136972260Y-99497404D02*
X137308978Y-99160686D01*
X137106947Y-99766778D02*
X136635542Y-98823969D01*
X137578351Y-99295373D01*
X131130211Y-92880905D02*
X131130211Y-92948248D01*
X131062867Y-93082935D01*
X130995524Y-93150278D01*
X130860836Y-93217623D01*
X130726149Y-93217623D01*
X130625134Y-93183951D01*
X130456776Y-93082936D01*
X130355760Y-92981920D01*
X130254745Y-92813561D01*
X130221073Y-92712546D01*
X130221073Y-92577859D01*
X130288417Y-92443172D01*
X130355761Y-92375828D01*
X130490447Y-92308485D01*
X130557791Y-92308485D01*
X133655039Y-115222621D02*
X133724723Y-115356113D01*
X133895995Y-115521508D01*
X133997582Y-115553412D01*
X134064916Y-115552236D01*
X134165328Y-115516807D01*
X134231486Y-115448298D01*
X134263389Y-115346711D01*
X134262214Y-115279378D01*
X134226785Y-115178965D01*
X134122846Y-115012394D01*
X134087417Y-114911982D01*
X134086241Y-114844649D01*
X134118145Y-114743061D01*
X134184303Y-114674553D01*
X134284715Y-114639123D01*
X134352048Y-114637948D01*
X134453636Y-114669852D01*
X134624908Y-114835247D01*
X134694591Y-114968738D01*
X134967450Y-115166036D02*
X134444063Y-116050771D01*
X135077265Y-115669273D01*
X134718097Y-116315403D01*
X135584027Y-115761458D01*
X135540200Y-117109298D02*
X135129148Y-116712350D01*
X135334674Y-116910824D02*
X136029332Y-116191484D01*
X135861587Y-116228089D01*
X135726921Y-116230440D01*
X135625333Y-116198536D01*
X139532594Y-114311784D02*
X139875137Y-114642574D01*
X139265612Y-114451151D02*
X140200050Y-113963364D01*
X139745172Y-114914257D01*
X133542278Y-121303267D02*
X133474944Y-121304442D01*
X133339103Y-121239459D01*
X133270594Y-121173301D01*
X133200910Y-121039810D01*
X133198559Y-120905143D01*
X133230463Y-120803556D01*
X133328524Y-120633460D01*
X133427762Y-120530697D01*
X133594332Y-120426759D01*
X133694744Y-120391329D01*
X133829410Y-120388978D01*
X133965253Y-120453962D01*
X134033761Y-120520120D01*
X134103445Y-120653611D01*
X134104620Y-120720944D01*
X155834848Y-117787572D02*
X155969535Y-117720228D01*
X156137894Y-117551869D01*
X156171566Y-117450854D01*
X156171566Y-117383510D01*
X156137894Y-117282495D01*
X156070551Y-117215152D01*
X155969536Y-117181480D01*
X155902192Y-117181480D01*
X155801176Y-117215151D01*
X155632817Y-117316167D01*
X155531802Y-117349839D01*
X155464459Y-117349839D01*
X155363443Y-117316167D01*
X155296100Y-117248824D01*
X155262428Y-117147808D01*
X155262428Y-117080465D01*
X155296100Y-116979450D01*
X155464459Y-116811091D01*
X155599146Y-116743747D01*
X155801176Y-116474373D02*
X156676642Y-117013122D01*
X156306253Y-116373357D01*
X156946016Y-116743747D01*
X156407268Y-115868282D01*
X156710314Y-115699923D02*
X156710314Y-115632580D01*
X156743985Y-115531565D01*
X156912345Y-115363205D01*
X157013360Y-115329534D01*
X157080703Y-115329534D01*
X157181718Y-115363205D01*
X157249062Y-115430549D01*
X157316405Y-115565236D01*
X157316405Y-116373358D01*
X157754138Y-115935625D01*
X155026726Y-111895016D02*
X155363444Y-111558298D01*
X155161413Y-112164390D02*
X154690008Y-111221581D01*
X155632817Y-111692985D01*
X161912599Y-118006439D02*
X161912599Y-118073782D01*
X161845255Y-118208469D01*
X161777912Y-118275812D01*
X161643224Y-118343157D01*
X161508537Y-118343157D01*
X161407522Y-118309485D01*
X161239164Y-118208470D01*
X161138148Y-118107454D01*
X161037133Y-117939095D01*
X161003461Y-117838080D01*
X161003461Y-117703393D01*
X161070805Y-117568706D01*
X161138149Y-117501362D01*
X161272835Y-117434019D01*
X161340179Y-117434019D01*
X155969534Y-94311954D02*
X156036878Y-94446641D01*
X156205237Y-94615000D01*
X156306252Y-94648672D01*
X156373596Y-94648672D01*
X156474611Y-94615000D01*
X156541954Y-94547657D01*
X156575626Y-94446642D01*
X156575626Y-94379298D01*
X156541955Y-94278282D01*
X156440939Y-94109923D01*
X156407267Y-94008908D01*
X156407267Y-93941565D01*
X156440939Y-93840549D01*
X156508282Y-93773206D01*
X156609298Y-93739534D01*
X156676641Y-93739534D01*
X156777656Y-93773206D01*
X156946015Y-93941565D01*
X157013359Y-94076252D01*
X157282733Y-94278282D02*
X156743984Y-95153748D01*
X157383749Y-94783359D01*
X157013359Y-95423122D01*
X157888824Y-94884374D01*
X158090855Y-95086404D02*
X158528588Y-95524137D01*
X158023511Y-95557808D01*
X158124527Y-95658824D01*
X158158199Y-95759839D01*
X158158199Y-95827183D01*
X158124526Y-95928199D01*
X157956168Y-96096557D01*
X157855153Y-96130229D01*
X157787809Y-96130229D01*
X157686794Y-96096557D01*
X157484763Y-95894526D01*
X157451091Y-95793511D01*
X157451091Y-95726168D01*
X151962596Y-96332260D02*
X152299314Y-96668978D01*
X151693222Y-96466947D02*
X152636031Y-95995542D01*
X152164627Y-96938351D01*
X158579095Y-90490211D02*
X158511752Y-90490211D01*
X158377065Y-90422867D01*
X158309722Y-90355524D01*
X158242377Y-90220836D01*
X158242377Y-90086149D01*
X158276049Y-89985134D01*
X158377064Y-89816776D01*
X158478080Y-89715760D01*
X158646439Y-89614745D01*
X158747454Y-89581073D01*
X158882141Y-89581073D01*
X159016828Y-89648417D01*
X159084172Y-89715761D01*
X159151515Y-89850447D01*
X159151515Y-89917791D01*
M02*
