M48
;DRILL file {KiCad 4.0.7} date 05/29/18 01:17:24
;FORMAT={-:-/ absolute / inch / decimal}
FMAT,2
INCH,TZ
T1C0.016
T2C0.039
T3C0.039
T4C0.039
T5C0.055
%
G90
G05
M72
T1
X4.595Y-4.58
X4.695Y-3.145
X4.7Y-5.15
X4.99Y-3.625
X5.075Y-4.755
X5.1Y-4.9
X5.16Y-4.835
X5.31Y-4.45
X5.415Y-4.38
X5.72Y-4.215
X5.855Y-4.16
X5.94Y-4.785
X6.065Y-4.73
X6.08Y-4.905
X6.125Y-4.095
X6.25Y-4.935
X6.4Y-4.96
X6.55Y-4.75
X6.645Y-4.59
X6.695Y-3.85
X6.785Y-4.015
X6.865Y-3.975
X7.11Y-4.095
X7.2Y-5.15
X7.205Y-3.145
T2
X4.75Y-5.1
X4.85Y-5.1
X4.95Y-5.1
X5.05Y-5.1
X5.15Y-5.1
X5.25Y-5.1
X5.35Y-5.1
X5.45Y-5.1
X5.61Y-5.1
X5.71Y-5.1
X5.81Y-5.1
X5.91Y-5.1
X6.01Y-5.1
X6.11Y-5.1
X6.21Y-5.1
X6.3099Y-5.1
X6.41Y-5.1
X6.51Y-5.1
T3
X5.1371Y-3.5371
X5.1404Y-4.7662
X5.5096Y-4.3838
X5.5129Y-3.9129
X5.6793Y-4.0793
X5.75Y-4.15
X5.8207Y-4.2207
X5.9871Y-3.9129
X5.9871Y-4.3871
X6.3629Y-3.5371
X6.3629Y-4.7629
X6.75Y-3.75
X6.75Y-3.95
X6.75Y-4.15
X6.75Y-4.35
X6.75Y-4.55
X6.75Y-4.75
X6.8004Y-3.4
X7.0996Y-3.4
X7.15Y-3.75
X7.15Y-3.95
X7.15Y-4.15
X7.15Y-4.35
X7.15Y-4.55
X7.15Y-4.75
T4
X4.75Y-3.2
X4.85Y-3.2
X4.95Y-3.2
X5.05Y-3.2
X5.15Y-3.2
X5.25Y-3.2
X5.45Y-3.2
X5.55Y-3.2
X5.65Y-3.2
X5.75Y-3.2
X5.85Y-3.2
X5.95Y-3.2
X6.05Y-3.2
X6.15Y-3.2
T5
X5.0796Y-4.4749
X5.0814Y-3.8294
X5.2164Y-4.3333
X5.2206Y-3.9686
X5.4294Y-3.4814
X5.4336Y-4.8167
X5.5686Y-3.6206
X5.5704Y-4.6751
X5.9314Y-3.6206
X5.9314Y-4.6794
X6.0706Y-3.4814
X6.0706Y-4.8186
X6.2794Y-3.9686
X6.2794Y-4.3314
X6.4186Y-3.8294
X6.4186Y-4.4706
T0
M30
