<?xml version="1.0" encoding="UTF-8" standalone="no"?>
<svg
   xmlns:dc="http://purl.org/dc/elements/1.1/"
   xmlns:cc="http://creativecommons.org/ns#"
   xmlns:rdf="http://www.w3.org/1999/02/22-rdf-syntax-ns#"
   xmlns:svg="http://www.w3.org/2000/svg"
   xmlns="http://www.w3.org/2000/svg"
   xmlns:sodipodi="http://sodipodi.sourceforge.net/DTD/sodipodi-0.dtd"
   xmlns:inkscape="http://www.inkscape.org/namespaces/inkscape"
   version="1.1"
   id="svg2"
   height="100mm"
   width="100mm"
   inkscape:version="0.92.3 (2405546, 2018-03-11)"
   sodipodi:docname="Plate_with_Logo.svg"
   viewBox="0 0 354.33071 354.33071">
  <sodipodi:namedview
     pagecolor="#ffffff"
     bordercolor="#666666"
     borderopacity="1"
     objecttolerance="10"
     gridtolerance="10"
     guidetolerance="10"
     inkscape:pageopacity="0"
     inkscape:pageshadow="2"
     inkscape:window-width="1462"
     inkscape:window-height="811"
     id="namedview30"
     showgrid="false"
     inkscape:zoom="1.6949601"
     inkscape:cx="129.74648"
     inkscape:cy="187.93964"
     inkscape:window-x="3786"
     inkscape:window-y="456"
     inkscape:window-maximized="0"
     inkscape:current-layer="svg2"
     units="mm"
     inkscape:document-units="mm"
     inkscape:snap-global="false" />
  <defs
     id="defs4">
    <marker
       style="overflow:visible"
       id="Arrow1Lend"
       refX="0"
       refY="0"
       orient="auto">
      <path
         transform="matrix(-0.8,0,0,-0.8,-10,0)"
         style="fill-rule:evenodd;stroke:#000000;stroke-width:1.00000003pt;marker-start:none"
         d="M 0,0 5,-5 -12.5,0 5,5 Z"
         id="path4521"
         inkscape:connector-curvature="0" />
    </marker>
  </defs>
  <metadata
     id="metadata7">
    <rdf:RDF>
      <cc:Work
         rdf:about="">
        <dc:format>image/svg+xml</dc:format>
        <dc:type
           rdf:resource="http://purl.org/dc/dcmitype/StillImage" />
        <dc:title></dc:title>
      </cc:Work>
    </rdf:RDF>
  </metadata>
  <path
     style="color:#000000;clip-rule:nonzero;display:inline;overflow:visible;visibility:visible;opacity:1;isolation:auto;mix-blend-mode:normal;color-interpolation:sRGB;color-interpolation-filters:linearRGB;solid-color:#000000;solid-opacity:1;fill:#e9afaf;fill-opacity:1;fill-rule:nonzero;stroke:#000000;stroke-width:0.37795275;stroke-linecap:round;stroke-linejoin:miter;stroke-miterlimit:4;stroke-dasharray:none;stroke-dashoffset:0;stroke-opacity:1;color-rendering:auto;image-rendering:auto;shape-rendering:auto;text-rendering:auto;enable-background:accumulate"
     d="m 10.416016,70.751953 c -4.2547204,0 -7.6796879,3.426921 -7.6796879,7.681641 V 370.27344 c 0,4.25466 3.4249675,7.67968 7.6796879,7.67968 H 367.53711 c 4.25472,0 7.67969,-3.42502 7.67969,-7.67968 V 78.433594 c 0,-4.25472 -3.42497,-7.681641 -7.67969,-7.681641 z M 160.17578,140.92383 c 3.13145,3e-4 5.67078,2.53847 5.66992,5.66992 -3.3e-4,3.13061 -2.53931,5.66962 -5.66992,5.66992 -3.13062,-3e-4 -5.66764,-2.5393 -5.66797,-5.66992 -8.5e-4,-3.13146 2.53652,-5.66962 5.66797,-5.66992 z m 182.40039,4.79883 c 3.13145,2.9e-4 5.67078,2.54043 5.66992,5.67187 -3.4e-4,3.13061 -2.5393,5.66767 -5.66992,5.66797 -3.13061,-3e-4 -5.66763,-2.53736 -5.66797,-5.66797 -8.5e-4,-3.13145 2.53652,-5.67158 5.66797,-5.67187 z m -301.871092,0.0996 c 2.713444,4.6e-4 4.912395,2.11553 4.91211,4.72461 3.4e-4,2.60912 -2.198626,4.72414 -4.91211,4.7246 -2.714292,6.3e-4 -4.914404,-2.11471 -4.914062,-4.7246 -2.86e-4,-2.60986 2.199809,-4.72524 4.914062,-4.72461 z m 84.093752,52.91406 c 2.60968,-3.3e-4 4.72494,2.11492 4.72461,4.72461 -8.5e-4,2.60885 -2.11576,4.72298 -4.72461,4.72265 -2.60886,3.3e-4 -4.72377,-2.1138 -4.72461,-4.72265 -3.3e-4,-2.6097 2.11491,-4.72494 4.72461,-4.72461 z m -83.906252,52.91211 c 2.609687,-3.3e-4 4.724943,2.11492 4.72461,4.72461 3.33e-4,2.60968 -2.114923,4.72689 -4.72461,4.72656 -2.608866,-8.3e-4 -4.72299,-2.1177 -4.722656,-4.72656 -3.34e-4,-2.60887 2.11379,-4.72378 4.722656,-4.72461 z m 60.140622,58.65429 h 0.002 c 0.41159,0.0119 0.76076,0.32261 0.81836,0.73047 l 0.77929,5.50391 c 0.78429,0.19221 1.56172,0.42557 2.14258,0.9043 0.73237,0.60362 1.23951,1.44718 1.24023,2.39843 v 0.002 c -0.002,0.79542 -0.41369,1.48966 -0.97265,2.05859 v 4.18164 c 1.30649,0.44043 2.49296,1.01443 3.33984,1.82227 0.99109,0.94537 1.6131,2.14463 1.61524,3.43945 -1.1e-4,1.52899 -0.97097,2.7706 -2.23633,3.75391 l 0.7168,0.71679 0.3457,0.30664 -0.0176,-0.0137 c 0.2627,0.20822 0.37866,0.55428 0.29492,0.87891 l 0.0137,-0.0937 v 10.07226 l 6.25586,4.17188 c 0.23733,0.15776 0.38149,0.42401 0.38086,0.70898 v 3.37305 l 10.66602,-3.73437 c 0.3918,-0.13784 0.83149,0.0332 1.0293,0.39843 l 10.02539,18.42969 c 0.12693,0.22228 0.1492,0.48605 0.0742,0.69922 -0.075,0.21315 -0.22671,0.3731 -0.40626,0.4707 -0.17953,0.0976 -0.39557,0.13895 -0.61523,0.0859 -0.21879,-0.0528 -0.42718,-0.21539 -0.54492,-0.44141 l -0.002,-0.002 -9.67969,-17.79492 -11.11719,3.89258 c -0.54245,0.19032 -1.13324,-0.23017 -1.13281,-0.80469 v -4.11719 l -6.25781,-4.17187 c -0.23734,-0.15775 -0.3815,-0.42402 -0.38086,-0.70899 V 337.1543 l -0.11914,-0.11914 -1.40625,-1.24805 c -0.26733,-0.23696 -0.31807,-0.62059 -0.18946,-0.94922 0.0809,-0.31132 0.32257,-0.54511 0.62696,-0.61523 1.2897,-0.82366 1.97257,-1.84383 1.97265,-2.87891 -0.001,-0.75812 -0.35144,-1.50652 -1.08789,-2.20898 -0.7344,-0.70057 -1.84939,-1.31779 -3.24023,-1.69727 -0.36743,-0.10065 -0.62646,-0.43935 -0.62696,-0.82031 v -5.00196 c 8e-5,-0.25831 0.11843,-0.50291 0.32032,-0.66406 0.47758,-0.38076 0.6516,-0.76308 0.65234,-1.11328 -6.7e-4,-0.35464 -0.17592,-0.71869 -0.61914,-1.08398 -0.43941,-0.36216 -1.12978,-0.67546 -1.9668,-0.80274 -0.36916,-0.0563 -0.66213,-0.35101 -0.71484,-0.7207 l -0.041,-0.2832 -0.041,0.27148 c -0.0579,0.37353 -0.35932,0.66596 -0.73438,0.71289 -0.874373,0.10863 -1.607033,0.41967 -2.074216,0.78906 -0.470731,0.3722 -0.658983,0.74903 -0.660156,1.11524 9.73e-4,0.33054 0.152276,0.68483 0.574218,1.04883 l 0.002,0.002 c 0.243214,0.21054 0.345529,0.54192 0.265625,0.85351 l 0.01367,-0.0937 v 5.00782 c 3.76e-4,0.37902 -0.254462,0.7151 -0.61914,0.81836 -2.718267,0.77331 -4.21235,2.38908 -4.21875,3.87109 v 0.002 c 8.23e-4,1.12062 0.78954,2.23005 2.285156,3.07813 h 0.002 c 0.533105,0.30304 0.564784,1.09527 0.05859,1.4414 l -0.458985,0.3125 -1.886718,1.35547 v 9.88477 c 0.0014,0.32717 -0.187614,0.62764 -0.482422,0.76953 l -3.392578,1.62109 c -0.231497,0.11261 -0.501818,0.11394 -0.734375,0.004 L 39.752051,326.42407 27.19541,334.98266 c -0.208364,0.16246 -0.476557,0.22112 -0.703124,0.16992 -0.226568,-0.0511 -0.403922,-0.19081 -0.521485,-0.36328 -0.117567,-0.17245 -0.181663,-0.3876 -0.146484,-0.61718 0.03518,-0.22961 0.18719,-0.45703 0.414062,-0.5918 l 12.958985,-8.83789 c 0.127947,-0.0877 0.276759,-0.13795 0.43164,-0.14649 0.141688,-0.008 0.283914,0.0193 0.41211,0.0801 l 49.195312,23.42774 2.539063,-1.21875 v -9.72657 l 0.01758,0.10742 c -0.107344,-0.35982 0.0367,-0.75047 0.351562,-0.95507 l 1.841797,-1.25196 c -1.244845,-0.97899 -2.210819,-2.2005 -2.210937,-3.71484 v -0.002 -0.002 c 0.0066,-2.36354 2.029319,-4.26331 4.83789,-5.24609 v -4.31836 c -0.489995,-0.54506 -0.853228,-1.19243 -0.855469,-1.93164 v -0.002 -0.002 c 7.54e-4,-0.98185 0.539633,-1.84707 1.308594,-2.45507 0.61355,-0.48514 1.42941,-0.70865 2.253906,-0.88672 l 0.849608,-5.47461 c 0.0647,-0.42043 0.43821,-0.73201 0.86328,-0.72071 z m 4.72655,24.3711 -0.0703,0.13281 c 0.004,-0.01 -0.0107,-0.0197 -0.006,-0.0293 l 0.0273,-0.0566 0.0449,-0.043 0.004,-0.004 z m 73.61718,3.04883 c 3.13144,2.9e-4 5.6688,2.53848 5.66797,5.66992 -3.4e-4,3.13061 -2.53735,5.66962 -5.66797,5.66992 -3.13061,-3e-4 -5.66958,-2.53931 -5.66992,-5.66992 -8.3e-4,-3.13145 2.53848,-5.66963 5.66992,-5.66992 z m 105.59961,0 c 3.13144,2.9e-4 5.6688,2.53848 5.66797,5.66992 -3.4e-4,3.13061 -2.53735,5.66962 -5.66797,5.66992 -3.13061,-3e-4 -5.66762,-2.53931 -5.66797,-5.66992 -8.3e-4,-3.13145 2.53653,-5.66963 5.66797,-5.66992 z"
     transform="scale(0.9375)"
     id="path6579"
     inkscape:connector-curvature="0"
     sodipodi:nodetypes="ssssssssscccccccccccccccccccccccccccccccccccccccccccccccccccccccccccccccccccccccccccccccccccccccccccccccccccccccccccccccccccccccccccccccccccccccccccccc" />
  <path
     style="color:#000000;clip-rule:nonzero;display:inline;overflow:visible;visibility:visible;opacity:1;isolation:auto;mix-blend-mode:normal;color-interpolation:sRGB;color-interpolation-filters:linearRGB;solid-color:#000000;solid-opacity:1;fill:#e9afaf;fill-opacity:1;fill-rule:nonzero;stroke:#000000;stroke-width:0.35433072;stroke-linecap:butt;stroke-linejoin:miter;stroke-miterlimit:4;stroke-dasharray:none;stroke-dashoffset:0;stroke-opacity:1;color-rendering:auto;image-rendering:auto;shape-rendering:auto;text-rendering:auto;enable-background:accumulate"
     d="m 9.2727759,34.488865 c -3.600419,0.22949 -6.458799,3.07664 -6.707031,6.67188 v 18.49805 c 0.248232,3.59524 3.106612,6.44238 6.707031,6.67187 H 27.700511 c 3.60042,-0.22949 6.4588,-3.07663 6.707032,-6.67187 v -18.49805 c -0.248232,-3.59524 -3.106612,-6.44239 -6.707032,-6.67188 z"
     id="rect5564"
     inkscape:connector-curvature="0" />
  <text
     xml:space="preserve"
     style="font-style:normal;font-weight:normal;font-size:20px;line-height:0%;font-family:sans-serif;letter-spacing:0px;word-spacing:0px;opacity:1;fill:#e9afaf;fill-opacity:1;stroke:none;stroke-width:1px;stroke-linecap:butt;stroke-linejoin:miter;stroke-opacity:1"
     x="70.199997"
     y="366.93066"
     id="text4367"><tspan
       id="tspan4369"
       x="70.199997"
       y="366.93066"
       style="fill:#e9afaf" /></text>
  <path
     inkscape:connector-curvature="0"
     id="path4525"
     d="m 9.2727759,2.647065 c -3.600419,0.22949 -6.458799,3.07664 -6.707031,6.67188 v 18.49805 c 0.248232,3.59524 3.106612,6.44238 6.707031,6.67187 H 27.700511 c 3.60042,-0.22949 6.4588,-3.07663 6.707032,-6.67187 V 9.318945 c -0.248232,-3.59524 -3.106612,-6.44239 -6.707032,-6.67188 z"
     style="color:#000000;clip-rule:nonzero;display:inline;overflow:visible;visibility:visible;opacity:1;isolation:auto;mix-blend-mode:normal;color-interpolation:sRGB;color-interpolation-filters:linearRGB;solid-color:#000000;solid-opacity:1;fill:#e9afaf;fill-opacity:1;fill-rule:nonzero;stroke:#000000;stroke-width:0.35433072;stroke-linecap:butt;stroke-linejoin:miter;stroke-miterlimit:4;stroke-dasharray:none;stroke-dashoffset:0;stroke-opacity:1;color-rendering:auto;image-rendering:auto;shape-rendering:auto;text-rendering:auto;enable-background:accumulate" />
  <path
     inkscape:connector-curvature="0"
     id="path4527"
     d="m 41.114574,34.488865 c -3.600419,0.22949 -6.458799,3.07664 -6.707031,6.67188 v 18.49805 c 0.248232,3.59524 3.106612,6.44238 6.707031,6.67187 h 18.427735 c 3.60042,-0.22949 6.4588,-3.07663 6.70703,-6.67187 v -18.49805 c -0.24823,-3.59524 -3.10661,-6.44239 -6.70703,-6.67188 z"
     style="color:#000000;clip-rule:nonzero;display:inline;overflow:visible;visibility:visible;opacity:1;isolation:auto;mix-blend-mode:normal;color-interpolation:sRGB;color-interpolation-filters:linearRGB;solid-color:#000000;solid-opacity:1;fill:#e9afaf;fill-opacity:1;fill-rule:nonzero;stroke:#000000;stroke-width:0.35433072;stroke-linecap:butt;stroke-linejoin:miter;stroke-miterlimit:4;stroke-dasharray:none;stroke-dashoffset:0;stroke-opacity:1;color-rendering:auto;image-rendering:auto;shape-rendering:auto;text-rendering:auto;enable-background:accumulate" />
  <path
     style="color:#000000;clip-rule:nonzero;display:inline;overflow:visible;visibility:visible;opacity:1;isolation:auto;mix-blend-mode:normal;color-interpolation:sRGB;color-interpolation-filters:linearRGB;solid-color:#000000;solid-opacity:1;fill:#e9afaf;fill-opacity:1;fill-rule:nonzero;stroke:#000000;stroke-width:0.35433072;stroke-linecap:butt;stroke-linejoin:miter;stroke-miterlimit:4;stroke-dasharray:none;stroke-dashoffset:0;stroke-opacity:1;color-rendering:auto;image-rendering:auto;shape-rendering:auto;text-rendering:auto;enable-background:accumulate"
     d="m 41.114574,2.647065 c -3.600419,0.22949 -6.458799,3.07664 -6.707031,6.67188 v 18.49805 c 0.248232,3.59524 3.106612,6.44238 6.707031,6.67187 h 18.427735 c 3.60042,-0.22949 6.4588,-3.07663 6.70703,-6.67187 V 9.318945 c -0.24823,-3.59524 -3.10661,-6.44239 -6.70703,-6.67188 z"
     id="path4531"
     inkscape:connector-curvature="0" />
  <path
     inkscape:connector-curvature="0"
     id="path4533"
     d="m 72.95637,2.647065 c -3.600419,0.22949 -6.458799,3.07664 -6.707031,6.67188 v 18.49805 c 0.248232,3.59524 3.106612,6.44238 6.707031,6.67187 h 18.427735 c 3.60042,-0.22949 6.4588,-3.07663 6.70703,-6.67187 V 9.318945 c -0.24823,-3.59524 -3.10661,-6.44239 -6.70703,-6.67188 z"
     style="color:#000000;clip-rule:nonzero;display:inline;overflow:visible;visibility:visible;opacity:1;isolation:auto;mix-blend-mode:normal;color-interpolation:sRGB;color-interpolation-filters:linearRGB;solid-color:#000000;solid-opacity:1;fill:#e9afaf;fill-opacity:1;fill-rule:nonzero;stroke:#000000;stroke-width:0.35433072;stroke-linecap:butt;stroke-linejoin:miter;stroke-miterlimit:4;stroke-dasharray:none;stroke-dashoffset:0;stroke-opacity:1;color-rendering:auto;image-rendering:auto;shape-rendering:auto;text-rendering:auto;enable-background:accumulate" />
  <path
     style="color:#000000;clip-rule:nonzero;display:inline;overflow:visible;visibility:visible;opacity:1;isolation:auto;mix-blend-mode:normal;color-interpolation:sRGB;color-interpolation-filters:linearRGB;solid-color:#000000;solid-opacity:1;fill:#e9afaf;fill-opacity:1;fill-rule:nonzero;stroke:#000000;stroke-width:0.35433072;stroke-linecap:butt;stroke-linejoin:miter;stroke-miterlimit:4;stroke-dasharray:none;stroke-dashoffset:0;stroke-opacity:1;color-rendering:auto;image-rendering:auto;shape-rendering:auto;text-rendering:auto;enable-background:accumulate"
     d="m 72.95637,34.488865 c -3.600419,0.22949 -6.458799,3.07664 -6.707031,6.67188 v 18.49805 c 0.248232,3.59524 3.106612,6.44238 6.707031,6.67187 h 18.427735 c 3.60042,-0.22949 6.4588,-3.07663 6.70703,-6.67187 v -18.49805 c -0.24823,-3.59524 -3.10661,-6.44239 -6.70703,-6.67188 z"
     id="path4535"
     inkscape:connector-curvature="0" />
  <path
     inkscape:connector-curvature="0"
     id="path4537"
     d="m 104.79817,34.488865 c -3.60042,0.22949 -6.458803,3.07664 -6.707035,6.67188 v 18.49805 c 0.248232,3.59524 3.106615,6.44238 6.707035,6.67187 h 18.42773 c 3.60042,-0.22949 6.4588,-3.07663 6.70703,-6.67187 v -18.49805 c -0.24823,-3.59524 -3.10661,-6.44239 -6.70703,-6.67188 z"
     style="color:#000000;clip-rule:nonzero;display:inline;overflow:visible;visibility:visible;opacity:1;isolation:auto;mix-blend-mode:normal;color-interpolation:sRGB;color-interpolation-filters:linearRGB;solid-color:#000000;solid-opacity:1;fill:#e9afaf;fill-opacity:1;fill-rule:nonzero;stroke:#000000;stroke-width:0.35433072;stroke-linecap:butt;stroke-linejoin:miter;stroke-miterlimit:4;stroke-dasharray:none;stroke-dashoffset:0;stroke-opacity:1;color-rendering:auto;image-rendering:auto;shape-rendering:auto;text-rendering:auto;enable-background:accumulate" />
  <path
     style="color:#000000;clip-rule:nonzero;display:inline;overflow:visible;visibility:visible;opacity:1;isolation:auto;mix-blend-mode:normal;color-interpolation:sRGB;color-interpolation-filters:linearRGB;solid-color:#000000;solid-opacity:1;fill:#e9afaf;fill-opacity:1;fill-rule:nonzero;stroke:#000000;stroke-width:0.35433072;stroke-linecap:butt;stroke-linejoin:miter;stroke-miterlimit:4;stroke-dasharray:none;stroke-dashoffset:0;stroke-opacity:1;color-rendering:auto;image-rendering:auto;shape-rendering:auto;text-rendering:auto;enable-background:accumulate"
     d="m 104.79817,2.647065 c -3.60042,0.22949 -6.458803,3.07664 -6.707035,6.67188 v 18.49805 c 0.248232,3.59524 3.106615,6.44238 6.707035,6.67187 h 18.42773 c 3.60042,-0.22949 6.4588,-3.07663 6.70703,-6.67187 V 9.318945 c -0.24823,-3.59524 -3.10661,-6.44239 -6.70703,-6.67188 z"
     id="path4539"
     inkscape:connector-curvature="0" />
  <path
     inkscape:connector-curvature="0"
     style="color:#000000;clip-rule:nonzero;display:inline;overflow:visible;visibility:visible;opacity:1;isolation:auto;mix-blend-mode:normal;color-interpolation:sRGB;color-interpolation-filters:linearRGB;solid-color:#000000;solid-opacity:1;fill:#e9afaf;fill-opacity:1;fill-rule:nonzero;stroke:#000000;stroke-width:0.35433072;stroke-linecap:butt;stroke-linejoin:miter;stroke-miterlimit:4;stroke-dasharray:none;stroke-dashoffset:0;stroke-opacity:1;color-rendering:auto;image-rendering:auto;shape-rendering:auto;text-rendering:auto;enable-background:accumulate"
     d="m 138.79035,17.927416 a 8.8582678,8.8582678 0 0 0 -8.85742,8.85938 8.8582678,8.8582678 0 0 0 8.85742,8.85742 8.8582678,8.8582678 0 0 0 8.85938,-8.85742 8.8582678,8.8582678 0 0 0 -8.85938,-8.85938 z m 0,3.54297 a 5.3149605,5.3149605 0 0 1 5.31641,5.31641 5.3149605,5.3149605 0 0 1 -5.31641,5.31445 5.3149605,5.3149605 0 0 1 -5.31445,-5.31445 5.3149605,5.3149605 0 0 1 5.31445,-5.31641 z"
     id="path4543" />
  <path
     id="path6546"
     d="m 138.79035,48.613865 a 8.8582678,8.8582678 0 0 0 -8.85742,8.85938 8.8582678,8.8582678 0 0 0 8.85742,8.85742 8.8582678,8.8582678 0 0 0 8.85938,-8.85742 8.8582678,8.8582678 0 0 0 -8.85938,-8.85938 z m 0,3.54297 a 5.3149605,5.3149605 0 0 1 5.31641,5.31641 5.3149605,5.3149605 0 0 1 -5.31641,5.31445 5.3149605,5.3149605 0 0 1 -5.31445,-5.31445 5.3149605,5.3149605 0 0 1 5.31445,-5.31641 z"
     style="color:#000000;clip-rule:nonzero;display:inline;overflow:visible;visibility:visible;opacity:1;isolation:auto;mix-blend-mode:normal;color-interpolation:sRGB;color-interpolation-filters:linearRGB;solid-color:#000000;solid-opacity:1;fill:#e9afaf;fill-opacity:1;fill-rule:nonzero;stroke:#000000;stroke-width:0.35433072;stroke-linecap:butt;stroke-linejoin:miter;stroke-miterlimit:4;stroke-dasharray:none;stroke-dashoffset:0;stroke-opacity:1;color-rendering:auto;image-rendering:auto;shape-rendering:auto;text-rendering:auto;enable-background:accumulate"
     inkscape:connector-curvature="0" />
  <path
     inkscape:connector-curvature="0"
     style="color:#000000;clip-rule:nonzero;display:inline;overflow:visible;visibility:visible;opacity:1;isolation:auto;mix-blend-mode:normal;color-interpolation:sRGB;color-interpolation-filters:linearRGB;solid-color:#000000;solid-opacity:1;fill:#e9afaf;fill-opacity:1;fill-rule:nonzero;stroke:#000000;stroke-width:0.35433072;stroke-linecap:butt;stroke-linejoin:miter;stroke-miterlimit:4;stroke-dasharray:none;stroke-dashoffset:0;stroke-opacity:1;color-rendering:auto;image-rendering:auto;shape-rendering:auto;text-rendering:auto;enable-background:accumulate"
     d="m 139.97769,37.700665 a 8.8582678,8.8582678 0 0 0 3.24374,12.100441 8.8582678,8.8582678 0 0 0 12.09946,-3.242041 8.8582678,8.8582678 0 0 0 -3.24106,-12.101158 8.8582678,8.8582678 0 0 0 -12.10214,3.242758 z m 3.0683,1.771485 a 5.3149605,5.3149605 0 0 1 7.26235,-1.945941 5.3149605,5.3149605 0 0 1 1.94425,7.261371 5.3149605,5.3149605 0 0 1 -7.25968,1.945224 5.3149605,5.3149605 0 0 1 -1.94692,-7.260654 z"
     id="path4571" />
  <path
     id="path4545"
     d="m 156.50715,48.613865 a 8.8582678,8.8582678 0 0 0 -8.85742,8.85938 8.8582678,8.8582678 0 0 0 8.85742,8.85742 8.8582678,8.8582678 0 0 0 8.85938,-8.85742 8.8582678,8.8582678 0 0 0 -8.85938,-8.85938 z m 0,3.54297 a 5.3149605,5.3149605 0 0 1 5.31641,5.31641 5.3149605,5.3149605 0 0 1 -5.31641,5.31445 5.3149605,5.3149605 0 0 1 -5.31445,-5.31445 5.3149605,5.3149605 0 0 1 5.31445,-5.31641 z"
     style="color:#000000;clip-rule:nonzero;display:inline;overflow:visible;visibility:visible;opacity:1;isolation:auto;mix-blend-mode:normal;color-interpolation:sRGB;color-interpolation-filters:linearRGB;solid-color:#000000;solid-opacity:1;fill:#e9afaf;fill-opacity:1;fill-rule:nonzero;stroke:#000000;stroke-width:0.35433072;stroke-linecap:butt;stroke-linejoin:miter;stroke-miterlimit:4;stroke-dasharray:none;stroke-dashoffset:0;stroke-opacity:1;color-rendering:auto;image-rendering:auto;shape-rendering:auto;text-rendering:auto;enable-background:accumulate"
     inkscape:connector-curvature="0" />
  <path
     id="path4575"
     d="m 139.97769,37.700664 a 8.8582678,8.8582678 0 0 0 3.24374,12.100441 8.8582678,8.8582678 0 0 0 12.09946,-3.242041 8.8582678,8.8582678 0 0 0 -3.24106,-12.101158 8.8582678,8.8582678 0 0 0 -12.10214,3.242758 z m 3.0683,1.771485 a 5.3149605,5.3149605 0 0 1 7.26235,-1.945941 5.3149605,5.3149605 0 0 1 1.94425,7.261371 5.3149605,5.3149605 0 0 1 -7.25968,1.945224 5.3149605,5.3149605 0 0 1 -1.94692,-7.260654 z"
     style="color:#000000;clip-rule:nonzero;display:inline;overflow:visible;visibility:visible;opacity:1;isolation:auto;mix-blend-mode:normal;color-interpolation:sRGB;color-interpolation-filters:linearRGB;solid-color:#000000;solid-opacity:1;fill:#e9afaf;fill-opacity:1;fill-rule:nonzero;stroke:#000000;stroke-width:0.35433072;stroke-linecap:butt;stroke-linejoin:miter;stroke-miterlimit:4;stroke-dasharray:none;stroke-dashoffset:0;stroke-opacity:1;color-rendering:auto;image-rendering:auto;shape-rendering:auto;text-rendering:auto;enable-background:accumulate"
     inkscape:connector-curvature="0" />
  <path
     id="path4577"
     d="m 148.83609,22.357465 a 8.8582678,8.8582678 0 0 0 3.24374,12.100441 8.8582678,8.8582678 0 0 0 12.09946,-3.242041 8.8582678,8.8582678 0 0 0 -3.24106,-12.101158 8.8582678,8.8582678 0 0 0 -12.10214,3.242758 z m 3.0683,1.771485 a 5.3149605,5.3149605 0 0 1 7.26235,-1.945941 5.3149605,5.3149605 0 0 1 1.94425,7.261371 5.3149605,5.3149605 0 0 1 -7.25968,1.945224 5.3149605,5.3149605 0 0 1 -1.94692,-7.260654 z"
     style="color:#000000;clip-rule:nonzero;display:inline;overflow:visible;visibility:visible;opacity:1;isolation:auto;mix-blend-mode:normal;color-interpolation:sRGB;color-interpolation-filters:linearRGB;solid-color:#000000;solid-opacity:1;fill:#e9afaf;fill-opacity:1;fill-rule:nonzero;stroke:#000000;stroke-width:0.35433072;stroke-linecap:butt;stroke-linejoin:miter;stroke-miterlimit:4;stroke-dasharray:none;stroke-dashoffset:0;stroke-opacity:1;color-rendering:auto;image-rendering:auto;shape-rendering:auto;text-rendering:auto;enable-background:accumulate"
     inkscape:connector-curvature="0" />
  <path
     inkscape:connector-curvature="0"
     style="color:#000000;clip-rule:nonzero;display:inline;overflow:visible;visibility:visible;opacity:1;isolation:auto;mix-blend-mode:normal;color-interpolation:sRGB;color-interpolation-filters:linearRGB;solid-color:#000000;solid-opacity:1;fill:#e9afaf;fill-opacity:1;fill-rule:nonzero;stroke:#000000;stroke-width:0.35433072;stroke-linecap:butt;stroke-linejoin:miter;stroke-miterlimit:4;stroke-dasharray:none;stroke-dashoffset:0;stroke-opacity:1;color-rendering:auto;image-rendering:auto;shape-rendering:auto;text-rendering:auto;enable-background:accumulate"
     d="m 139.97769,7.0142153 a 8.8582678,8.8582678 0 0 0 3.24374,12.1004407 8.8582678,8.8582678 0 0 0 12.09946,-3.242041 8.8582678,8.8582678 0 0 0 -3.24106,-12.1011578 8.8582678,8.8582678 0 0 0 -12.10214,3.2427581 z m 3.0683,1.771485 a 5.3149605,5.3149605 0 0 1 7.26235,-1.9459411 5.3149605,5.3149605 0 0 1 1.94425,7.2613708 5.3149605,5.3149605 0 0 1 -7.25968,1.945224 5.3149605,5.3149605 0 0 1 -1.94692,-7.2606537 z"
     id="path4585" />
  <path
     inkscape:connector-curvature="0"
     style="color:#000000;clip-rule:nonzero;display:inline;overflow:visible;visibility:visible;opacity:1;isolation:auto;mix-blend-mode:normal;color-interpolation:sRGB;color-interpolation-filters:linearRGB;solid-color:#000000;solid-opacity:1;fill:#e9afaf;fill-opacity:1;fill-rule:nonzero;stroke:#000000;stroke-width:0.35433072;stroke-linecap:butt;stroke-linejoin:miter;stroke-miterlimit:4;stroke-dasharray:none;stroke-dashoffset:0;stroke-opacity:1;color-rendering:auto;image-rendering:auto;shape-rendering:auto;text-rendering:auto;enable-background:accumulate"
     d="m 174.22405,48.613865 a 8.8582678,8.8582678 0 0 0 -8.85742,8.85938 8.8582678,8.8582678 0 0 0 8.85742,8.85742 8.8582678,8.8582678 0 0 0 8.85938,-8.85742 8.8582678,8.8582678 0 0 0 -8.85938,-8.85938 z m 0,3.54297 a 5.3149605,5.3149605 0 0 1 5.31641,5.31641 5.3149605,5.3149605 0 0 1 -5.31641,5.31445 5.3149605,5.3149605 0 0 1 -5.31445,-5.31445 5.3149605,5.3149605 0 0 1 5.31445,-5.31641 z"
     id="path4607" />
  <path
     inkscape:connector-curvature="0"
     style="color:#000000;clip-rule:nonzero;display:inline;overflow:visible;visibility:visible;opacity:1;isolation:auto;mix-blend-mode:normal;color-interpolation:sRGB;color-interpolation-filters:linearRGB;solid-color:#000000;solid-opacity:1;fill:#e9afaf;fill-opacity:1;fill-rule:nonzero;stroke:#000000;stroke-width:0.35433072;stroke-linecap:butt;stroke-linejoin:miter;stroke-miterlimit:4;stroke-dasharray:none;stroke-dashoffset:0;stroke-opacity:1;color-rendering:auto;image-rendering:auto;shape-rendering:auto;text-rendering:auto;enable-background:accumulate"
     d="m 157.69459,37.700664 a 8.8582678,8.8582678 0 0 0 3.24374,12.100441 8.8582678,8.8582678 0 0 0 12.09946,-3.242041 8.8582678,8.8582678 0 0 0 -3.24106,-12.101158 8.8582678,8.8582678 0 0 0 -12.10214,3.242758 z m 3.0683,1.771485 a 5.3149605,5.3149605 0 0 1 7.26235,-1.945941 5.3149605,5.3149605 0 0 1 1.94425,7.261371 5.3149605,5.3149605 0 0 1 -7.25968,1.945224 5.3149605,5.3149605 0 0 1 -1.94692,-7.260654 z"
     id="path4609" />
  <path
     inkscape:connector-curvature="0"
     style="color:#000000;clip-rule:nonzero;display:inline;overflow:visible;visibility:visible;opacity:1;isolation:auto;mix-blend-mode:normal;color-interpolation:sRGB;color-interpolation-filters:linearRGB;solid-color:#000000;solid-opacity:1;fill:#e9afaf;fill-opacity:1;fill-rule:nonzero;stroke:#000000;stroke-width:0.35433072;stroke-linecap:butt;stroke-linejoin:miter;stroke-miterlimit:4;stroke-dasharray:none;stroke-dashoffset:0;stroke-opacity:1;color-rendering:auto;image-rendering:auto;shape-rendering:auto;text-rendering:auto;enable-background:accumulate"
     d="m 166.55299,22.357465 a 8.8582678,8.8582678 0 0 0 3.24374,12.100441 8.8582678,8.8582678 0 0 0 12.09946,-3.242041 8.8582678,8.8582678 0 0 0 -3.24106,-12.101158 8.8582678,8.8582678 0 0 0 -12.10214,3.242758 z m 3.0683,1.771485 a 5.3149605,5.3149605 0 0 1 7.26235,-1.945941 5.3149605,5.3149605 0 0 1 1.94425,7.261371 5.3149605,5.3149605 0 0 1 -7.25968,1.945224 5.3149605,5.3149605 0 0 1 -1.94692,-7.260654 z"
     id="path4611" />
  <path
     id="path4613"
     d="m 157.69459,7.0142153 a 8.8582678,8.8582678 0 0 0 3.24374,12.1004407 8.8582678,8.8582678 0 0 0 12.09946,-3.242041 8.8582678,8.8582678 0 0 0 -3.24106,-12.1011578 8.8582678,8.8582678 0 0 0 -12.10214,3.2427581 z m 3.0683,1.771485 a 5.3149605,5.3149605 0 0 1 7.26235,-1.9459411 5.3149605,5.3149605 0 0 1 1.94425,7.2613708 5.3149605,5.3149605 0 0 1 -7.25968,1.945224 5.3149605,5.3149605 0 0 1 -1.94692,-7.2606537 z"
     style="color:#000000;clip-rule:nonzero;display:inline;overflow:visible;visibility:visible;opacity:1;isolation:auto;mix-blend-mode:normal;color-interpolation:sRGB;color-interpolation-filters:linearRGB;solid-color:#000000;solid-opacity:1;fill:#e9afaf;fill-opacity:1;fill-rule:nonzero;stroke:#000000;stroke-width:0.35433072;stroke-linecap:butt;stroke-linejoin:miter;stroke-miterlimit:4;stroke-dasharray:none;stroke-dashoffset:0;stroke-opacity:1;color-rendering:auto;image-rendering:auto;shape-rendering:auto;text-rendering:auto;enable-background:accumulate"
     inkscape:connector-curvature="0" />
  <path
     id="path4621"
     d="m 191.94095,48.613865 a 8.8582678,8.8582678 0 0 0 -8.85742,8.85938 8.8582678,8.8582678 0 0 0 8.85742,8.85742 8.8582678,8.8582678 0 0 0 8.85938,-8.85742 8.8582678,8.8582678 0 0 0 -8.85938,-8.85938 z m 0,3.54297 a 5.3149605,5.3149605 0 0 1 5.31641,5.31641 5.3149605,5.3149605 0 0 1 -5.31641,5.31445 5.3149605,5.3149605 0 0 1 -5.31445,-5.31445 5.3149605,5.3149605 0 0 1 5.31445,-5.31641 z"
     style="color:#000000;clip-rule:nonzero;display:inline;overflow:visible;visibility:visible;opacity:1;isolation:auto;mix-blend-mode:normal;color-interpolation:sRGB;color-interpolation-filters:linearRGB;solid-color:#000000;solid-opacity:1;fill:#e9afaf;fill-opacity:1;fill-rule:nonzero;stroke:#000000;stroke-width:0.35433072;stroke-linecap:butt;stroke-linejoin:miter;stroke-miterlimit:4;stroke-dasharray:none;stroke-dashoffset:0;stroke-opacity:1;color-rendering:auto;image-rendering:auto;shape-rendering:auto;text-rendering:auto;enable-background:accumulate"
     inkscape:connector-curvature="0" />
  <path
     id="path4623"
     d="m 175.41149,37.700664 a 8.8582678,8.8582678 0 0 0 3.24374,12.100441 8.8582678,8.8582678 0 0 0 12.09946,-3.242041 8.8582678,8.8582678 0 0 0 -3.24106,-12.101158 8.8582678,8.8582678 0 0 0 -12.10214,3.242758 z m 3.0683,1.771485 a 5.3149605,5.3149605 0 0 1 7.26235,-1.945941 5.3149605,5.3149605 0 0 1 1.94425,7.261371 5.3149605,5.3149605 0 0 1 -7.25968,1.945224 5.3149605,5.3149605 0 0 1 -1.94692,-7.260654 z"
     style="color:#000000;clip-rule:nonzero;display:inline;overflow:visible;visibility:visible;opacity:1;isolation:auto;mix-blend-mode:normal;color-interpolation:sRGB;color-interpolation-filters:linearRGB;solid-color:#000000;solid-opacity:1;fill:#e9afaf;fill-opacity:1;fill-rule:nonzero;stroke:#000000;stroke-width:0.35433072;stroke-linecap:butt;stroke-linejoin:miter;stroke-miterlimit:4;stroke-dasharray:none;stroke-dashoffset:0;stroke-opacity:1;color-rendering:auto;image-rendering:auto;shape-rendering:auto;text-rendering:auto;enable-background:accumulate"
     inkscape:connector-curvature="0" />
  <path
     id="path4625"
     d="m 184.26989,22.357465 a 8.8582678,8.8582678 0 0 0 3.24374,12.100441 8.8582678,8.8582678 0 0 0 12.09946,-3.242041 8.8582678,8.8582678 0 0 0 -3.24106,-12.101158 8.8582678,8.8582678 0 0 0 -12.10214,3.242758 z m 3.0683,1.771485 a 5.3149605,5.3149605 0 0 1 7.26235,-1.945941 5.3149605,5.3149605 0 0 1 1.94425,7.261371 5.3149605,5.3149605 0 0 1 -7.25968,1.945224 5.3149605,5.3149605 0 0 1 -1.94692,-7.260654 z"
     style="color:#000000;clip-rule:nonzero;display:inline;overflow:visible;visibility:visible;opacity:1;isolation:auto;mix-blend-mode:normal;color-interpolation:sRGB;color-interpolation-filters:linearRGB;solid-color:#000000;solid-opacity:1;fill:#e9afaf;fill-opacity:1;fill-rule:nonzero;stroke:#000000;stroke-width:0.35433072;stroke-linecap:butt;stroke-linejoin:miter;stroke-miterlimit:4;stroke-dasharray:none;stroke-dashoffset:0;stroke-opacity:1;color-rendering:auto;image-rendering:auto;shape-rendering:auto;text-rendering:auto;enable-background:accumulate"
     inkscape:connector-curvature="0" />
  <path
     inkscape:connector-curvature="0"
     style="color:#000000;clip-rule:nonzero;display:inline;overflow:visible;visibility:visible;opacity:1;isolation:auto;mix-blend-mode:normal;color-interpolation:sRGB;color-interpolation-filters:linearRGB;solid-color:#000000;solid-opacity:1;fill:#e9afaf;fill-opacity:1;fill-rule:nonzero;stroke:#000000;stroke-width:0.35433072;stroke-linecap:butt;stroke-linejoin:miter;stroke-miterlimit:4;stroke-dasharray:none;stroke-dashoffset:0;stroke-opacity:1;color-rendering:auto;image-rendering:auto;shape-rendering:auto;text-rendering:auto;enable-background:accumulate"
     d="m 175.41149,7.0142153 a 8.8582678,8.8582678 0 0 0 3.24374,12.1004407 8.8582678,8.8582678 0 0 0 12.09946,-3.242041 8.8582678,8.8582678 0 0 0 -3.24106,-12.1011578 8.8582678,8.8582678 0 0 0 -12.10214,3.2427581 z m 3.0683,1.771485 a 5.3149605,5.3149605 0 0 1 7.26235,-1.9459411 5.3149605,5.3149605 0 0 1 1.94425,7.2613708 5.3149605,5.3149605 0 0 1 -7.25968,1.945224 5.3149605,5.3149605 0 0 1 -1.94692,-7.2606537 z"
     id="path4627" />
  <path
     inkscape:connector-curvature="0"
     style="color:#000000;clip-rule:nonzero;display:inline;overflow:visible;visibility:visible;opacity:1;isolation:auto;mix-blend-mode:normal;color-interpolation:sRGB;color-interpolation-filters:linearRGB;solid-color:#000000;solid-opacity:1;fill:#e9afaf;fill-opacity:1;fill-rule:nonzero;stroke:#000000;stroke-width:0.35433072;stroke-linecap:butt;stroke-linejoin:miter;stroke-miterlimit:4;stroke-dasharray:none;stroke-dashoffset:0;stroke-opacity:1;color-rendering:auto;image-rendering:auto;shape-rendering:auto;text-rendering:auto;enable-background:accumulate"
     d="m 245.09165,48.613865 a 8.8582678,8.8582678 0 0 0 -8.85742,8.85938 8.8582678,8.8582678 0 0 0 8.85742,8.85742 8.8582678,8.8582678 0 0 0 8.85938,-8.85742 8.8582678,8.8582678 0 0 0 -8.85938,-8.85938 z m 0,3.54297 a 5.3149605,5.3149605 0 0 1 5.31641,5.31641 5.3149605,5.3149605 0 0 1 -5.31641,5.31445 5.3149605,5.3149605 0 0 1 -5.31445,-5.31445 5.3149605,5.3149605 0 0 1 5.31445,-5.31641 z"
     id="path4631" />
  <path
     inkscape:connector-curvature="0"
     style="color:#000000;clip-rule:nonzero;display:inline;overflow:visible;visibility:visible;opacity:1;isolation:auto;mix-blend-mode:normal;color-interpolation:sRGB;color-interpolation-filters:linearRGB;solid-color:#000000;solid-opacity:1;fill:#e9afaf;fill-opacity:1;fill-rule:nonzero;stroke:#000000;stroke-width:0.35433072;stroke-linecap:butt;stroke-linejoin:miter;stroke-miterlimit:4;stroke-dasharray:none;stroke-dashoffset:0;stroke-opacity:1;color-rendering:auto;image-rendering:auto;shape-rendering:auto;text-rendering:auto;enable-background:accumulate"
     d="m 228.56219,37.700664 a 8.8582678,8.8582678 0 0 0 3.24374,12.100441 8.8582678,8.8582678 0 0 0 12.09946,-3.242041 8.8582678,8.8582678 0 0 0 -3.24106,-12.101158 8.8582678,8.8582678 0 0 0 -12.10214,3.242758 z m 3.0683,1.771485 a 5.3149605,5.3149605 0 0 1 7.26235,-1.945941 5.3149605,5.3149605 0 0 1 1.94425,7.261371 5.3149605,5.3149605 0 0 1 -7.25968,1.945224 5.3149605,5.3149605 0 0 1 -1.94692,-7.260654 z"
     id="path4633" />
  <path
     inkscape:connector-curvature="0"
     style="color:#000000;clip-rule:nonzero;display:inline;overflow:visible;visibility:visible;opacity:1;isolation:auto;mix-blend-mode:normal;color-interpolation:sRGB;color-interpolation-filters:linearRGB;solid-color:#000000;solid-opacity:1;fill:#e9afaf;fill-opacity:1;fill-rule:nonzero;stroke:#000000;stroke-width:0.35433072;stroke-linecap:butt;stroke-linejoin:miter;stroke-miterlimit:4;stroke-dasharray:none;stroke-dashoffset:0;stroke-opacity:1;color-rendering:auto;image-rendering:auto;shape-rendering:auto;text-rendering:auto;enable-background:accumulate"
     d="m 237.42059,22.357465 a 8.8582678,8.8582678 0 0 0 3.24374,12.100441 8.8582678,8.8582678 0 0 0 12.09946,-3.242041 8.8582678,8.8582678 0 0 0 -3.24106,-12.101158 8.8582678,8.8582678 0 0 0 -12.10214,3.242758 z m 3.0683,1.771485 a 5.3149605,5.3149605 0 0 1 7.26235,-1.945941 5.3149605,5.3149605 0 0 1 1.94425,7.261371 5.3149605,5.3149605 0 0 1 -7.25968,1.945224 5.3149605,5.3149605 0 0 1 -1.94692,-7.260654 z"
     id="path4635" />
  <path
     id="path4637"
     d="m 228.56219,7.0142153 a 8.8582678,8.8582678 0 0 0 3.24374,12.1004407 8.8582678,8.8582678 0 0 0 12.09946,-3.242041 8.8582678,8.8582678 0 0 0 -3.24106,-12.1011578 8.8582678,8.8582678 0 0 0 -12.10214,3.2427581 z m 3.0683,1.771485 a 5.3149605,5.3149605 0 0 1 7.26235,-1.9459411 5.3149605,5.3149605 0 0 1 1.94425,7.2613708 5.3149605,5.3149605 0 0 1 -7.25968,1.945224 5.3149605,5.3149605 0 0 1 -1.94692,-7.2606537 z"
     style="color:#000000;clip-rule:nonzero;display:inline;overflow:visible;visibility:visible;opacity:1;isolation:auto;mix-blend-mode:normal;color-interpolation:sRGB;color-interpolation-filters:linearRGB;solid-color:#000000;solid-opacity:1;fill:#e9afaf;fill-opacity:1;fill-rule:nonzero;stroke:#000000;stroke-width:0.35433072;stroke-linecap:butt;stroke-linejoin:miter;stroke-miterlimit:4;stroke-dasharray:none;stroke-dashoffset:0;stroke-opacity:1;color-rendering:auto;image-rendering:auto;shape-rendering:auto;text-rendering:auto;enable-background:accumulate"
     inkscape:connector-curvature="0" />
  <path
     id="path4649"
     d="m 333.67615,48.613865 a 8.8582678,8.8582678 0 0 0 -8.85742,8.85938 8.8582678,8.8582678 0 0 0 8.85742,8.85742 8.8582678,8.8582678 0 0 0 8.85938,-8.85742 8.8582678,8.8582678 0 0 0 -8.85938,-8.85938 z m 0,3.54297 a 5.3149605,5.3149605 0 0 1 5.31641,5.31641 5.3149605,5.3149605 0 0 1 -5.31641,5.31445 5.3149605,5.3149605 0 0 1 -5.31445,-5.31445 5.3149605,5.3149605 0 0 1 5.31445,-5.31641 z"
     style="color:#000000;clip-rule:nonzero;display:inline;overflow:visible;visibility:visible;opacity:1;isolation:auto;mix-blend-mode:normal;color-interpolation:sRGB;color-interpolation-filters:linearRGB;solid-color:#000000;solid-opacity:1;fill:#e9afaf;fill-opacity:1;fill-rule:nonzero;stroke:#000000;stroke-width:0.35433072;stroke-linecap:butt;stroke-linejoin:miter;stroke-miterlimit:4;stroke-dasharray:none;stroke-dashoffset:0;stroke-opacity:1;color-rendering:auto;image-rendering:auto;shape-rendering:auto;text-rendering:auto;enable-background:accumulate"
     inkscape:connector-curvature="0" />
  <path
     id="path4651"
     d="m 317.14669,37.700664 a 8.8582678,8.8582678 0 0 0 3.24374,12.100441 8.8582678,8.8582678 0 0 0 12.09946,-3.242041 8.8582678,8.8582678 0 0 0 -3.24106,-12.101158 8.8582678,8.8582678 0 0 0 -12.10214,3.242758 z m 3.0683,1.771485 a 5.3149605,5.3149605 0 0 1 7.26235,-1.945941 5.3149605,5.3149605 0 0 1 1.94425,7.261371 5.3149605,5.3149605 0 0 1 -7.25968,1.945224 5.3149605,5.3149605 0 0 1 -1.94692,-7.260654 z"
     style="color:#000000;clip-rule:nonzero;display:inline;overflow:visible;visibility:visible;opacity:1;isolation:auto;mix-blend-mode:normal;color-interpolation:sRGB;color-interpolation-filters:linearRGB;solid-color:#000000;solid-opacity:1;fill:#e9afaf;fill-opacity:1;fill-rule:nonzero;stroke:#000000;stroke-width:0.35433072;stroke-linecap:butt;stroke-linejoin:miter;stroke-miterlimit:4;stroke-dasharray:none;stroke-dashoffset:0;stroke-opacity:1;color-rendering:auto;image-rendering:auto;shape-rendering:auto;text-rendering:auto;enable-background:accumulate"
     inkscape:connector-curvature="0" />
  <path
     id="path4653"
     d="m 326.00509,22.357465 a 8.8582678,8.8582678 0 0 0 3.24374,12.100441 8.8582678,8.8582678 0 0 0 12.09946,-3.242041 8.8582678,8.8582678 0 0 0 -3.24106,-12.101158 8.8582678,8.8582678 0 0 0 -12.10214,3.242758 z m 3.0683,1.771485 a 5.3149605,5.3149605 0 0 1 7.26235,-1.945941 5.3149605,5.3149605 0 0 1 1.94425,7.261371 5.3149605,5.3149605 0 0 1 -7.25968,1.945224 5.3149605,5.3149605 0 0 1 -1.94692,-7.260654 z"
     style="color:#000000;clip-rule:nonzero;display:inline;overflow:visible;visibility:visible;opacity:1;isolation:auto;mix-blend-mode:normal;color-interpolation:sRGB;color-interpolation-filters:linearRGB;solid-color:#000000;solid-opacity:1;fill:#e9afaf;fill-opacity:1;fill-rule:nonzero;stroke:#000000;stroke-width:0.35433072;stroke-linecap:butt;stroke-linejoin:miter;stroke-miterlimit:4;stroke-dasharray:none;stroke-dashoffset:0;stroke-opacity:1;color-rendering:auto;image-rendering:auto;shape-rendering:auto;text-rendering:auto;enable-background:accumulate"
     inkscape:connector-curvature="0" />
  <path
     inkscape:connector-curvature="0"
     style="color:#000000;clip-rule:nonzero;display:inline;overflow:visible;visibility:visible;opacity:1;isolation:auto;mix-blend-mode:normal;color-interpolation:sRGB;color-interpolation-filters:linearRGB;solid-color:#000000;solid-opacity:1;fill:#e9afaf;fill-opacity:1;fill-rule:nonzero;stroke:#000000;stroke-width:0.35433072;stroke-linecap:butt;stroke-linejoin:miter;stroke-miterlimit:4;stroke-dasharray:none;stroke-dashoffset:0;stroke-opacity:1;color-rendering:auto;image-rendering:auto;shape-rendering:auto;text-rendering:auto;enable-background:accumulate"
     d="m 317.14669,7.0142153 a 8.8582678,8.8582678 0 0 0 3.24374,12.1004407 8.8582678,8.8582678 0 0 0 12.09946,-3.242041 8.8582678,8.8582678 0 0 0 -3.24106,-12.1011578 8.8582678,8.8582678 0 0 0 -12.10214,3.2427581 z m 3.0683,1.771485 a 5.3149605,5.3149605 0 0 1 7.26235,-1.9459411 5.3149605,5.3149605 0 0 1 1.94425,7.2613708 5.3149605,5.3149605 0 0 1 -7.25968,1.945224 5.3149605,5.3149605 0 0 1 -1.94692,-7.2606537 z"
     id="path4655" />
  <path
     inkscape:connector-curvature="0"
     style="color:#000000;clip-rule:nonzero;display:inline;overflow:visible;visibility:visible;opacity:1;isolation:auto;mix-blend-mode:normal;color-interpolation:sRGB;color-interpolation-filters:linearRGB;solid-color:#000000;solid-opacity:1;fill:#e9afaf;fill-opacity:1;fill-rule:nonzero;stroke:#000000;stroke-width:0.35433072;stroke-linecap:butt;stroke-linejoin:miter;stroke-miterlimit:4;stroke-dasharray:none;stroke-dashoffset:0;stroke-opacity:1;color-rendering:auto;image-rendering:auto;shape-rendering:auto;text-rendering:auto;enable-background:accumulate"
     d="m 280.52545,48.613865 a 8.8582678,8.8582678 0 0 0 -8.85742,8.85938 8.8582678,8.8582678 0 0 0 8.85742,8.85742 8.8582678,8.8582678 0 0 0 8.85938,-8.85742 8.8582678,8.8582678 0 0 0 -8.85938,-8.85938 z m 0,3.54297 a 5.3149605,5.3149605 0 0 1 5.31641,5.31641 5.3149605,5.3149605 0 0 1 -5.31641,5.31445 5.3149605,5.3149605 0 0 1 -5.31445,-5.31445 5.3149605,5.3149605 0 0 1 5.31445,-5.31641 z"
     id="path4659" />
  <path
     inkscape:connector-curvature="0"
     style="color:#000000;clip-rule:nonzero;display:inline;overflow:visible;visibility:visible;opacity:1;isolation:auto;mix-blend-mode:normal;color-interpolation:sRGB;color-interpolation-filters:linearRGB;solid-color:#000000;solid-opacity:1;fill:#e9afaf;fill-opacity:1;fill-rule:nonzero;stroke:#000000;stroke-width:0.35433072;stroke-linecap:butt;stroke-linejoin:miter;stroke-miterlimit:4;stroke-dasharray:none;stroke-dashoffset:0;stroke-opacity:1;color-rendering:auto;image-rendering:auto;shape-rendering:auto;text-rendering:auto;enable-background:accumulate"
     d="m 263.99599,37.700664 a 8.8582678,8.8582678 0 0 0 3.24374,12.100441 8.8582678,8.8582678 0 0 0 12.09946,-3.242041 8.8582678,8.8582678 0 0 0 -3.24106,-12.101158 8.8582678,8.8582678 0 0 0 -12.10214,3.242758 z m 3.0683,1.771485 a 5.3149605,5.3149605 0 0 1 7.26235,-1.945941 5.3149605,5.3149605 0 0 1 1.94425,7.261371 5.3149605,5.3149605 0 0 1 -7.25968,1.945224 5.3149605,5.3149605 0 0 1 -1.94692,-7.260654 z"
     id="path4661" />
  <path
     inkscape:connector-curvature="0"
     style="color:#000000;clip-rule:nonzero;display:inline;overflow:visible;visibility:visible;opacity:1;isolation:auto;mix-blend-mode:normal;color-interpolation:sRGB;color-interpolation-filters:linearRGB;solid-color:#000000;solid-opacity:1;fill:#e9afaf;fill-opacity:1;fill-rule:nonzero;stroke:#000000;stroke-width:0.35433072;stroke-linecap:butt;stroke-linejoin:miter;stroke-miterlimit:4;stroke-dasharray:none;stroke-dashoffset:0;stroke-opacity:1;color-rendering:auto;image-rendering:auto;shape-rendering:auto;text-rendering:auto;enable-background:accumulate"
     d="m 272.85439,22.357465 a 8.8582678,8.8582678 0 0 0 3.24374,12.100441 8.8582678,8.8582678 0 0 0 12.09946,-3.242041 8.8582678,8.8582678 0 0 0 -3.24106,-12.101158 8.8582678,8.8582678 0 0 0 -12.10214,3.242758 z m 3.0683,1.771485 a 5.3149605,5.3149605 0 0 1 7.26235,-1.945941 5.3149605,5.3149605 0 0 1 1.94425,7.261371 5.3149605,5.3149605 0 0 1 -7.25968,1.945224 5.3149605,5.3149605 0 0 1 -1.94692,-7.260654 z"
     id="path4663" />
  <path
     id="path4665"
     d="m 263.99599,7.0142153 a 8.8582678,8.8582678 0 0 0 3.24374,12.1004407 8.8582678,8.8582678 0 0 0 12.09946,-3.242041 8.8582678,8.8582678 0 0 0 -3.24106,-12.1011578 8.8582678,8.8582678 0 0 0 -12.10214,3.2427581 z m 3.0683,1.771485 a 5.3149605,5.3149605 0 0 1 7.26235,-1.9459411 5.3149605,5.3149605 0 0 1 1.94425,7.2613708 5.3149605,5.3149605 0 0 1 -7.25968,1.945224 5.3149605,5.3149605 0 0 1 -1.94692,-7.2606537 z"
     style="color:#000000;clip-rule:nonzero;display:inline;overflow:visible;visibility:visible;opacity:1;isolation:auto;mix-blend-mode:normal;color-interpolation:sRGB;color-interpolation-filters:linearRGB;solid-color:#000000;solid-opacity:1;fill:#e9afaf;fill-opacity:1;fill-rule:nonzero;stroke:#000000;stroke-width:0.35433072;stroke-linecap:butt;stroke-linejoin:miter;stroke-miterlimit:4;stroke-dasharray:none;stroke-dashoffset:0;stroke-opacity:1;color-rendering:auto;image-rendering:auto;shape-rendering:auto;text-rendering:auto;enable-background:accumulate"
     inkscape:connector-curvature="0" />
  <path
     id="path4669"
     d="m 315.95925,48.613865 a 8.8582678,8.8582678 0 0 0 -8.85742,8.85938 8.8582678,8.8582678 0 0 0 8.85742,8.85742 8.8582678,8.8582678 0 0 0 8.85938,-8.85742 8.8582678,8.8582678 0 0 0 -8.85938,-8.85938 z m 0,3.54297 a 5.3149605,5.3149605 0 0 1 5.31641,5.31641 5.3149605,5.3149605 0 0 1 -5.31641,5.31445 5.3149605,5.3149605 0 0 1 -5.31445,-5.31445 5.3149605,5.3149605 0 0 1 5.31445,-5.31641 z"
     style="color:#000000;clip-rule:nonzero;display:inline;overflow:visible;visibility:visible;opacity:1;isolation:auto;mix-blend-mode:normal;color-interpolation:sRGB;color-interpolation-filters:linearRGB;solid-color:#000000;solid-opacity:1;fill:#e9afaf;fill-opacity:1;fill-rule:nonzero;stroke:#000000;stroke-width:0.35433072;stroke-linecap:butt;stroke-linejoin:miter;stroke-miterlimit:4;stroke-dasharray:none;stroke-dashoffset:0;stroke-opacity:1;color-rendering:auto;image-rendering:auto;shape-rendering:auto;text-rendering:auto;enable-background:accumulate"
     inkscape:connector-curvature="0" />
  <path
     id="path4671"
     d="m 299.42979,37.700664 a 8.8582678,8.8582678 0 0 0 3.24374,12.100441 8.8582678,8.8582678 0 0 0 12.09946,-3.242041 8.8582678,8.8582678 0 0 0 -3.24106,-12.101158 8.8582678,8.8582678 0 0 0 -12.10214,3.242758 z m 3.0683,1.771485 a 5.3149605,5.3149605 0 0 1 7.26235,-1.945941 5.3149605,5.3149605 0 0 1 1.94425,7.261371 5.3149605,5.3149605 0 0 1 -7.25968,1.945224 5.3149605,5.3149605 0 0 1 -1.94692,-7.260654 z"
     style="color:#000000;clip-rule:nonzero;display:inline;overflow:visible;visibility:visible;opacity:1;isolation:auto;mix-blend-mode:normal;color-interpolation:sRGB;color-interpolation-filters:linearRGB;solid-color:#000000;solid-opacity:1;fill:#e9afaf;fill-opacity:1;fill-rule:nonzero;stroke:#000000;stroke-width:0.35433072;stroke-linecap:butt;stroke-linejoin:miter;stroke-miterlimit:4;stroke-dasharray:none;stroke-dashoffset:0;stroke-opacity:1;color-rendering:auto;image-rendering:auto;shape-rendering:auto;text-rendering:auto;enable-background:accumulate"
     inkscape:connector-curvature="0" />
  <path
     id="path4673"
     d="m 308.28819,22.357465 a 8.8582678,8.8582678 0 0 0 3.24374,12.100441 8.8582678,8.8582678 0 0 0 12.09946,-3.242041 8.8582678,8.8582678 0 0 0 -3.24106,-12.101158 8.8582678,8.8582678 0 0 0 -12.10214,3.242758 z m 3.0683,1.771485 a 5.3149605,5.3149605 0 0 1 7.26235,-1.945941 5.3149605,5.3149605 0 0 1 1.94425,7.261371 5.3149605,5.3149605 0 0 1 -7.25968,1.945224 5.3149605,5.3149605 0 0 1 -1.94692,-7.260654 z"
     style="color:#000000;clip-rule:nonzero;display:inline;overflow:visible;visibility:visible;opacity:1;isolation:auto;mix-blend-mode:normal;color-interpolation:sRGB;color-interpolation-filters:linearRGB;solid-color:#000000;solid-opacity:1;fill:#e9afaf;fill-opacity:1;fill-rule:nonzero;stroke:#000000;stroke-width:0.35433072;stroke-linecap:butt;stroke-linejoin:miter;stroke-miterlimit:4;stroke-dasharray:none;stroke-dashoffset:0;stroke-opacity:1;color-rendering:auto;image-rendering:auto;shape-rendering:auto;text-rendering:auto;enable-background:accumulate"
     inkscape:connector-curvature="0" />
  <path
     inkscape:connector-curvature="0"
     style="color:#000000;clip-rule:nonzero;display:inline;overflow:visible;visibility:visible;opacity:1;isolation:auto;mix-blend-mode:normal;color-interpolation:sRGB;color-interpolation-filters:linearRGB;solid-color:#000000;solid-opacity:1;fill:#e9afaf;fill-opacity:1;fill-rule:nonzero;stroke:#000000;stroke-width:0.35433072;stroke-linecap:butt;stroke-linejoin:miter;stroke-miterlimit:4;stroke-dasharray:none;stroke-dashoffset:0;stroke-opacity:1;color-rendering:auto;image-rendering:auto;shape-rendering:auto;text-rendering:auto;enable-background:accumulate"
     d="m 299.42979,7.0142153 a 8.8582678,8.8582678 0 0 0 3.24374,12.1004407 8.8582678,8.8582678 0 0 0 12.09946,-3.242041 8.8582678,8.8582678 0 0 0 -3.24106,-12.1011578 8.8582678,8.8582678 0 0 0 -12.10214,3.2427581 z m 3.0683,1.771485 a 5.3149605,5.3149605 0 0 1 7.26235,-1.9459411 5.3149605,5.3149605 0 0 1 1.94425,7.2613708 5.3149605,5.3149605 0 0 1 -7.25968,1.945224 5.3149605,5.3149605 0 0 1 -1.94692,-7.2606537 z"
     id="path4675" />
  <path
     inkscape:connector-curvature="0"
     style="color:#000000;clip-rule:nonzero;display:inline;overflow:visible;visibility:visible;opacity:1;isolation:auto;mix-blend-mode:normal;color-interpolation:sRGB;color-interpolation-filters:linearRGB;solid-color:#000000;solid-opacity:1;fill:#e9afaf;fill-opacity:1;fill-rule:nonzero;stroke:#000000;stroke-width:0.35433072;stroke-linecap:butt;stroke-linejoin:miter;stroke-miterlimit:4;stroke-dasharray:none;stroke-dashoffset:0;stroke-opacity:1;color-rendering:auto;image-rendering:auto;shape-rendering:auto;text-rendering:auto;enable-background:accumulate"
     d="m 334.86359,37.700664 a 8.8582678,8.8582678 0 0 0 3.24374,12.100441 8.8582678,8.8582678 0 0 0 12.09946,-3.242041 8.8582678,8.8582678 0 0 0 -3.24106,-12.101158 8.8582678,8.8582678 0 0 0 -12.10214,3.242758 z m 3.0683,1.771485 a 5.3149605,5.3149605 0 0 1 7.26235,-1.945941 5.3149605,5.3149605 0 0 1 1.94425,7.261371 5.3149605,5.3149605 0 0 1 -7.25968,1.945224 5.3149605,5.3149605 0 0 1 -1.94692,-7.260654 z"
     id="path4681" />
  <path
     id="path4685"
     d="m 334.86359,7.0142153 a 8.8582678,8.8582678 0 0 0 3.24374,12.1004407 8.8582678,8.8582678 0 0 0 12.09946,-3.242041 8.8582678,8.8582678 0 0 0 -3.24106,-12.1011578 8.8582678,8.8582678 0 0 0 -12.10214,3.2427581 z m 3.0683,1.771485 a 5.3149605,5.3149605 0 0 1 7.26235,-1.9459411 5.3149605,5.3149605 0 0 1 1.94425,7.2613708 5.3149605,5.3149605 0 0 1 -7.25968,1.945224 5.3149605,5.3149605 0 0 1 -1.94692,-7.2606537 z"
     style="color:#000000;clip-rule:nonzero;display:inline;overflow:visible;visibility:visible;opacity:1;isolation:auto;mix-blend-mode:normal;color-interpolation:sRGB;color-interpolation-filters:linearRGB;solid-color:#000000;solid-opacity:1;fill:#e9afaf;fill-opacity:1;fill-rule:nonzero;stroke:#000000;stroke-width:0.35433072;stroke-linecap:butt;stroke-linejoin:miter;stroke-miterlimit:4;stroke-dasharray:none;stroke-dashoffset:0;stroke-opacity:1;color-rendering:auto;image-rendering:auto;shape-rendering:auto;text-rendering:auto;enable-background:accumulate"
     inkscape:connector-curvature="0" />
  <path
     id="path4689"
     d="m 262.80855,48.613865 a 8.8582678,8.8582678 0 0 0 -8.85742,8.85938 8.8582678,8.8582678 0 0 0 8.85742,8.85742 8.8582678,8.8582678 0 0 0 8.85938,-8.85742 8.8582678,8.8582678 0 0 0 -8.85938,-8.85938 z m 0,3.54297 a 5.3149605,5.3149605 0 0 1 5.31641,5.31641 5.3149605,5.3149605 0 0 1 -5.31641,5.31445 5.3149605,5.3149605 0 0 1 -5.31445,-5.31445 5.3149605,5.3149605 0 0 1 5.31445,-5.31641 z"
     style="color:#000000;clip-rule:nonzero;display:inline;overflow:visible;visibility:visible;opacity:1;isolation:auto;mix-blend-mode:normal;color-interpolation:sRGB;color-interpolation-filters:linearRGB;solid-color:#000000;solid-opacity:1;fill:#e9afaf;fill-opacity:1;fill-rule:nonzero;stroke:#000000;stroke-width:0.35433072;stroke-linecap:butt;stroke-linejoin:miter;stroke-miterlimit:4;stroke-dasharray:none;stroke-dashoffset:0;stroke-opacity:1;color-rendering:auto;image-rendering:auto;shape-rendering:auto;text-rendering:auto;enable-background:accumulate"
     inkscape:connector-curvature="0" />
  <path
     id="path4691"
     d="m 246.27909,37.700664 a 8.8582678,8.8582678 0 0 0 3.24374,12.100441 8.8582678,8.8582678 0 0 0 12.09946,-3.242041 8.8582678,8.8582678 0 0 0 -3.24106,-12.101158 8.8582678,8.8582678 0 0 0 -12.10214,3.242758 z m 3.0683,1.771485 a 5.3149605,5.3149605 0 0 1 7.26235,-1.945941 5.3149605,5.3149605 0 0 1 1.94425,7.261371 5.3149605,5.3149605 0 0 1 -7.25968,1.945224 5.3149605,5.3149605 0 0 1 -1.94692,-7.260654 z"
     style="color:#000000;clip-rule:nonzero;display:inline;overflow:visible;visibility:visible;opacity:1;isolation:auto;mix-blend-mode:normal;color-interpolation:sRGB;color-interpolation-filters:linearRGB;solid-color:#000000;solid-opacity:1;fill:#e9afaf;fill-opacity:1;fill-rule:nonzero;stroke:#000000;stroke-width:0.35433072;stroke-linecap:butt;stroke-linejoin:miter;stroke-miterlimit:4;stroke-dasharray:none;stroke-dashoffset:0;stroke-opacity:1;color-rendering:auto;image-rendering:auto;shape-rendering:auto;text-rendering:auto;enable-background:accumulate"
     inkscape:connector-curvature="0" />
  <path
     id="path4693"
     d="m 255.13749,22.357465 a 8.8582678,8.8582678 0 0 0 3.24374,12.100441 8.8582678,8.8582678 0 0 0 12.09946,-3.242041 8.8582678,8.8582678 0 0 0 -3.24106,-12.101158 8.8582678,8.8582678 0 0 0 -12.10214,3.242758 z m 3.0683,1.771485 a 5.3149605,5.3149605 0 0 1 7.26235,-1.945941 5.3149605,5.3149605 0 0 1 1.94425,7.261371 5.3149605,5.3149605 0 0 1 -7.25968,1.945224 5.3149605,5.3149605 0 0 1 -1.94692,-7.260654 z"
     style="color:#000000;clip-rule:nonzero;display:inline;overflow:visible;visibility:visible;opacity:1;isolation:auto;mix-blend-mode:normal;color-interpolation:sRGB;color-interpolation-filters:linearRGB;solid-color:#000000;solid-opacity:1;fill:#e9afaf;fill-opacity:1;fill-rule:nonzero;stroke:#000000;stroke-width:0.35433072;stroke-linecap:butt;stroke-linejoin:miter;stroke-miterlimit:4;stroke-dasharray:none;stroke-dashoffset:0;stroke-opacity:1;color-rendering:auto;image-rendering:auto;shape-rendering:auto;text-rendering:auto;enable-background:accumulate"
     inkscape:connector-curvature="0" />
  <path
     inkscape:connector-curvature="0"
     style="color:#000000;clip-rule:nonzero;display:inline;overflow:visible;visibility:visible;opacity:1;isolation:auto;mix-blend-mode:normal;color-interpolation:sRGB;color-interpolation-filters:linearRGB;solid-color:#000000;solid-opacity:1;fill:#e9afaf;fill-opacity:1;fill-rule:nonzero;stroke:#000000;stroke-width:0.35433072;stroke-linecap:butt;stroke-linejoin:miter;stroke-miterlimit:4;stroke-dasharray:none;stroke-dashoffset:0;stroke-opacity:1;color-rendering:auto;image-rendering:auto;shape-rendering:auto;text-rendering:auto;enable-background:accumulate"
     d="m 246.27909,7.0142153 a 8.8582678,8.8582678 0 0 0 3.24374,12.1004407 8.8582678,8.8582678 0 0 0 12.09946,-3.242041 8.8582678,8.8582678 0 0 0 -3.24106,-12.1011578 8.8582678,8.8582678 0 0 0 -12.10214,3.2427581 z m 3.0683,1.771485 a 5.3149605,5.3149605 0 0 1 7.26235,-1.9459411 5.3149605,5.3149605 0 0 1 1.94425,7.2613708 5.3149605,5.3149605 0 0 1 -7.25968,1.945224 5.3149605,5.3149605 0 0 1 -1.94692,-7.2606537 z"
     id="path4695" />
  <path
     inkscape:connector-curvature="0"
     style="color:#000000;clip-rule:nonzero;display:inline;overflow:visible;visibility:visible;opacity:1;isolation:auto;mix-blend-mode:normal;color-interpolation:sRGB;color-interpolation-filters:linearRGB;solid-color:#000000;solid-opacity:1;fill:#e9afaf;fill-opacity:1;fill-rule:nonzero;stroke:#000000;stroke-width:0.35433072;stroke-linecap:butt;stroke-linejoin:miter;stroke-miterlimit:4;stroke-dasharray:none;stroke-dashoffset:0;stroke-opacity:1;color-rendering:auto;image-rendering:auto;shape-rendering:auto;text-rendering:auto;enable-background:accumulate"
     d="m 298.24235,48.613865 a 8.8582678,8.8582678 0 0 0 -8.85742,8.85938 8.8582678,8.8582678 0 0 0 8.85742,8.85742 8.8582678,8.8582678 0 0 0 8.85938,-8.85742 8.8582678,8.8582678 0 0 0 -8.85938,-8.85938 z m 0,3.54297 a 5.3149605,5.3149605 0 0 1 5.31641,5.31641 5.3149605,5.3149605 0 0 1 -5.31641,5.31445 5.3149605,5.3149605 0 0 1 -5.31445,-5.31445 5.3149605,5.3149605 0 0 1 5.31445,-5.31641 z"
     id="path4699" />
  <path
     inkscape:connector-curvature="0"
     style="color:#000000;clip-rule:nonzero;display:inline;overflow:visible;visibility:visible;opacity:1;isolation:auto;mix-blend-mode:normal;color-interpolation:sRGB;color-interpolation-filters:linearRGB;solid-color:#000000;solid-opacity:1;fill:#e9afaf;fill-opacity:1;fill-rule:nonzero;stroke:#000000;stroke-width:0.35433072;stroke-linecap:butt;stroke-linejoin:miter;stroke-miterlimit:4;stroke-dasharray:none;stroke-dashoffset:0;stroke-opacity:1;color-rendering:auto;image-rendering:auto;shape-rendering:auto;text-rendering:auto;enable-background:accumulate"
     d="m 281.71289,37.700664 a 8.8582678,8.8582678 0 0 0 3.24374,12.100441 8.8582678,8.8582678 0 0 0 12.09946,-3.242041 8.8582678,8.8582678 0 0 0 -3.24106,-12.101158 8.8582678,8.8582678 0 0 0 -12.10214,3.242758 z m 3.0683,1.771485 a 5.3149605,5.3149605 0 0 1 7.26235,-1.945941 5.3149605,5.3149605 0 0 1 1.94425,7.261371 5.3149605,5.3149605 0 0 1 -7.25968,1.945224 5.3149605,5.3149605 0 0 1 -1.94692,-7.260654 z"
     id="path4701" />
  <path
     inkscape:connector-curvature="0"
     style="color:#000000;clip-rule:nonzero;display:inline;overflow:visible;visibility:visible;opacity:1;isolation:auto;mix-blend-mode:normal;color-interpolation:sRGB;color-interpolation-filters:linearRGB;solid-color:#000000;solid-opacity:1;fill:#e9afaf;fill-opacity:1;fill-rule:nonzero;stroke:#000000;stroke-width:0.35433072;stroke-linecap:butt;stroke-linejoin:miter;stroke-miterlimit:4;stroke-dasharray:none;stroke-dashoffset:0;stroke-opacity:1;color-rendering:auto;image-rendering:auto;shape-rendering:auto;text-rendering:auto;enable-background:accumulate"
     d="m 290.57129,22.357465 a 8.8582678,8.8582678 0 0 0 3.24374,12.100441 8.8582678,8.8582678 0 0 0 12.09946,-3.242041 8.8582678,8.8582678 0 0 0 -3.24106,-12.101158 8.8582678,8.8582678 0 0 0 -12.10214,3.242758 z m 3.0683,1.771485 a 5.3149605,5.3149605 0 0 1 7.26235,-1.945941 5.3149605,5.3149605 0 0 1 1.94425,7.261371 5.3149605,5.3149605 0 0 1 -7.25968,1.945224 5.3149605,5.3149605 0 0 1 -1.94692,-7.260654 z"
     id="path4703" />
  <path
     id="path4705"
     d="m 281.71289,7.0142153 a 8.8582678,8.8582678 0 0 0 3.24374,12.1004407 8.8582678,8.8582678 0 0 0 12.09946,-3.242041 8.8582678,8.8582678 0 0 0 -3.24106,-12.1011578 8.8582678,8.8582678 0 0 0 -12.10214,3.2427581 z m 3.0683,1.771485 a 5.3149605,5.3149605 0 0 1 7.26235,-1.9459411 5.3149605,5.3149605 0 0 1 1.94425,7.2613708 5.3149605,5.3149605 0 0 1 -7.25968,1.945224 5.3149605,5.3149605 0 0 1 -1.94692,-7.2606537 z"
     style="color:#000000;clip-rule:nonzero;display:inline;overflow:visible;visibility:visible;opacity:1;isolation:auto;mix-blend-mode:normal;color-interpolation:sRGB;color-interpolation-filters:linearRGB;solid-color:#000000;solid-opacity:1;fill:#e9afaf;fill-opacity:1;fill-rule:nonzero;stroke:#000000;stroke-width:0.35433072;stroke-linecap:butt;stroke-linejoin:miter;stroke-miterlimit:4;stroke-dasharray:none;stroke-dashoffset:0;stroke-opacity:1;color-rendering:auto;image-rendering:auto;shape-rendering:auto;text-rendering:auto;enable-background:accumulate"
     inkscape:connector-curvature="0" />
  <path
     id="path4709"
     d="m 227.37475,48.613865 a 8.8582678,8.8582678 0 0 0 -8.85742,8.85938 8.8582678,8.8582678 0 0 0 8.85742,8.85742 8.8582678,8.8582678 0 0 0 8.85938,-8.85742 8.8582678,8.8582678 0 0 0 -8.85938,-8.85938 z m 0,3.54297 a 5.3149605,5.3149605 0 0 1 5.31641,5.31641 5.3149605,5.3149605 0 0 1 -5.31641,5.31445 5.3149605,5.3149605 0 0 1 -5.31445,-5.31445 5.3149605,5.3149605 0 0 1 5.31445,-5.31641 z"
     style="color:#000000;clip-rule:nonzero;display:inline;overflow:visible;visibility:visible;opacity:1;isolation:auto;mix-blend-mode:normal;color-interpolation:sRGB;color-interpolation-filters:linearRGB;solid-color:#000000;solid-opacity:1;fill:#e9afaf;fill-opacity:1;fill-rule:nonzero;stroke:#000000;stroke-width:0.35433072;stroke-linecap:butt;stroke-linejoin:miter;stroke-miterlimit:4;stroke-dasharray:none;stroke-dashoffset:0;stroke-opacity:1;color-rendering:auto;image-rendering:auto;shape-rendering:auto;text-rendering:auto;enable-background:accumulate"
     inkscape:connector-curvature="0" />
  <path
     id="path4711"
     d="m 210.84529,37.700664 a 8.8582678,8.8582678 0 0 0 3.24374,12.100441 8.8582678,8.8582678 0 0 0 12.09946,-3.242041 8.8582678,8.8582678 0 0 0 -3.24106,-12.101158 8.8582678,8.8582678 0 0 0 -12.10214,3.242758 z m 3.0683,1.771485 a 5.3149605,5.3149605 0 0 1 7.26235,-1.945941 5.3149605,5.3149605 0 0 1 1.94425,7.261371 5.3149605,5.3149605 0 0 1 -7.25968,1.945224 5.3149605,5.3149605 0 0 1 -1.94692,-7.260654 z"
     style="color:#000000;clip-rule:nonzero;display:inline;overflow:visible;visibility:visible;opacity:1;isolation:auto;mix-blend-mode:normal;color-interpolation:sRGB;color-interpolation-filters:linearRGB;solid-color:#000000;solid-opacity:1;fill:#e9afaf;fill-opacity:1;fill-rule:nonzero;stroke:#000000;stroke-width:0.35433072;stroke-linecap:butt;stroke-linejoin:miter;stroke-miterlimit:4;stroke-dasharray:none;stroke-dashoffset:0;stroke-opacity:1;color-rendering:auto;image-rendering:auto;shape-rendering:auto;text-rendering:auto;enable-background:accumulate"
     inkscape:connector-curvature="0" />
  <path
     id="path4713"
     d="m 219.70369,22.357465 a 8.8582678,8.8582678 0 0 0 3.24374,12.100441 8.8582678,8.8582678 0 0 0 12.09946,-3.242041 8.8582678,8.8582678 0 0 0 -3.24106,-12.101158 8.8582678,8.8582678 0 0 0 -12.10214,3.242758 z m 3.0683,1.771485 a 5.3149605,5.3149605 0 0 1 7.26235,-1.945941 5.3149605,5.3149605 0 0 1 1.94425,7.261371 5.3149605,5.3149605 0 0 1 -7.25968,1.945224 5.3149605,5.3149605 0 0 1 -1.94692,-7.260654 z"
     style="color:#000000;clip-rule:nonzero;display:inline;overflow:visible;visibility:visible;opacity:1;isolation:auto;mix-blend-mode:normal;color-interpolation:sRGB;color-interpolation-filters:linearRGB;solid-color:#000000;solid-opacity:1;fill:#e9afaf;fill-opacity:1;fill-rule:nonzero;stroke:#000000;stroke-width:0.35433072;stroke-linecap:butt;stroke-linejoin:miter;stroke-miterlimit:4;stroke-dasharray:none;stroke-dashoffset:0;stroke-opacity:1;color-rendering:auto;image-rendering:auto;shape-rendering:auto;text-rendering:auto;enable-background:accumulate"
     inkscape:connector-curvature="0" />
  <path
     inkscape:connector-curvature="0"
     style="color:#000000;clip-rule:nonzero;display:inline;overflow:visible;visibility:visible;opacity:1;isolation:auto;mix-blend-mode:normal;color-interpolation:sRGB;color-interpolation-filters:linearRGB;solid-color:#000000;solid-opacity:1;fill:#e9afaf;fill-opacity:1;fill-rule:nonzero;stroke:#000000;stroke-width:0.35433072;stroke-linecap:butt;stroke-linejoin:miter;stroke-miterlimit:4;stroke-dasharray:none;stroke-dashoffset:0;stroke-opacity:1;color-rendering:auto;image-rendering:auto;shape-rendering:auto;text-rendering:auto;enable-background:accumulate"
     d="m 210.84529,7.0142153 a 8.8582678,8.8582678 0 0 0 3.24374,12.1004407 8.8582678,8.8582678 0 0 0 12.09946,-3.242041 8.8582678,8.8582678 0 0 0 -3.24106,-12.1011578 8.8582678,8.8582678 0 0 0 -12.10214,3.2427581 z m 3.0683,1.771485 a 5.3149605,5.3149605 0 0 1 7.26235,-1.9459411 5.3149605,5.3149605 0 0 1 1.94425,7.2613708 5.3149605,5.3149605 0 0 1 -7.25968,1.945224 5.3149605,5.3149605 0 0 1 -1.94692,-7.2606537 z"
     id="path4715" />
  <path
     inkscape:connector-curvature="0"
     style="color:#000000;clip-rule:nonzero;display:inline;overflow:visible;visibility:visible;opacity:1;isolation:auto;mix-blend-mode:normal;color-interpolation:sRGB;color-interpolation-filters:linearRGB;solid-color:#000000;solid-opacity:1;fill:#e9afaf;fill-opacity:1;fill-rule:nonzero;stroke:#000000;stroke-width:0.35433072;stroke-linecap:butt;stroke-linejoin:miter;stroke-miterlimit:4;stroke-dasharray:none;stroke-dashoffset:0;stroke-opacity:1;color-rendering:auto;image-rendering:auto;shape-rendering:auto;text-rendering:auto;enable-background:accumulate"
     d="m 209.65785,48.613865 a 8.8582678,8.8582678 0 0 0 -8.85742,8.85938 8.8582678,8.8582678 0 0 0 8.85742,8.85742 8.8582678,8.8582678 0 0 0 8.85938,-8.85742 8.8582678,8.8582678 0 0 0 -8.85938,-8.85938 z m 0,3.54297 a 5.3149605,5.3149605 0 0 1 5.31641,5.31641 5.3149605,5.3149605 0 0 1 -5.31641,5.31445 5.3149605,5.3149605 0 0 1 -5.31445,-5.31445 5.3149605,5.3149605 0 0 1 5.31445,-5.31641 z"
     id="path4719" />
  <path
     inkscape:connector-curvature="0"
     style="color:#000000;clip-rule:nonzero;display:inline;overflow:visible;visibility:visible;opacity:1;isolation:auto;mix-blend-mode:normal;color-interpolation:sRGB;color-interpolation-filters:linearRGB;solid-color:#000000;solid-opacity:1;fill:#e9afaf;fill-opacity:1;fill-rule:nonzero;stroke:#000000;stroke-width:0.35433072;stroke-linecap:butt;stroke-linejoin:miter;stroke-miterlimit:4;stroke-dasharray:none;stroke-dashoffset:0;stroke-opacity:1;color-rendering:auto;image-rendering:auto;shape-rendering:auto;text-rendering:auto;enable-background:accumulate"
     d="m 193.12839,37.700664 a 8.8582678,8.8582678 0 0 0 3.24374,12.100441 8.8582678,8.8582678 0 0 0 12.09946,-3.242041 8.8582678,8.8582678 0 0 0 -3.24106,-12.101158 8.8582678,8.8582678 0 0 0 -12.10214,3.242758 z m 3.0683,1.771485 a 5.3149605,5.3149605 0 0 1 7.26235,-1.945941 5.3149605,5.3149605 0 0 1 1.94425,7.261371 5.3149605,5.3149605 0 0 1 -7.25968,1.945224 5.3149605,5.3149605 0 0 1 -1.94692,-7.260654 z"
     id="path4721" />
  <path
     inkscape:connector-curvature="0"
     style="color:#000000;clip-rule:nonzero;display:inline;overflow:visible;visibility:visible;opacity:1;isolation:auto;mix-blend-mode:normal;color-interpolation:sRGB;color-interpolation-filters:linearRGB;solid-color:#000000;solid-opacity:1;fill:#e9afaf;fill-opacity:1;fill-rule:nonzero;stroke:#000000;stroke-width:0.35433072;stroke-linecap:butt;stroke-linejoin:miter;stroke-miterlimit:4;stroke-dasharray:none;stroke-dashoffset:0;stroke-opacity:1;color-rendering:auto;image-rendering:auto;shape-rendering:auto;text-rendering:auto;enable-background:accumulate"
     d="m 201.98679,22.357465 a 8.8582678,8.8582678 0 0 0 3.24374,12.100441 8.8582678,8.8582678 0 0 0 12.09946,-3.242041 8.8582678,8.8582678 0 0 0 -3.24106,-12.101158 8.8582678,8.8582678 0 0 0 -12.10214,3.242758 z m 3.0683,1.771485 a 5.3149605,5.3149605 0 0 1 7.26235,-1.945941 5.3149605,5.3149605 0 0 1 1.94425,7.261371 5.3149605,5.3149605 0 0 1 -7.25968,1.945224 5.3149605,5.3149605 0 0 1 -1.94692,-7.260654 z"
     id="path4723" />
  <path
     id="path4725"
     d="m 193.12839,7.0142153 a 8.8582678,8.8582678 0 0 0 3.24374,12.1004407 8.8582678,8.8582678 0 0 0 12.09946,-3.242041 8.8582678,8.8582678 0 0 0 -3.24106,-12.1011578 8.8582678,8.8582678 0 0 0 -12.10214,3.2427581 z m 3.0683,1.771485 a 5.3149605,5.3149605 0 0 1 7.26235,-1.9459411 5.3149605,5.3149605 0 0 1 1.94425,7.2613708 5.3149605,5.3149605 0 0 1 -7.25968,1.945224 5.3149605,5.3149605 0 0 1 -1.94692,-7.2606537 z"
     style="color:#000000;clip-rule:nonzero;display:inline;overflow:visible;visibility:visible;opacity:1;isolation:auto;mix-blend-mode:normal;color-interpolation:sRGB;color-interpolation-filters:linearRGB;solid-color:#000000;solid-opacity:1;fill:#e9afaf;fill-opacity:1;fill-rule:nonzero;stroke:#000000;stroke-width:0.35433072;stroke-linecap:butt;stroke-linejoin:miter;stroke-miterlimit:4;stroke-dasharray:none;stroke-dashoffset:0;stroke-opacity:1;color-rendering:auto;image-rendering:auto;shape-rendering:auto;text-rendering:auto;enable-background:accumulate"
     inkscape:connector-curvature="0" />
</svg>
